<svg xmlns="http://www.w3.org/2000/svg" viewBox="0 0 86.1 100"><defs><style>.cls-1{fill:#307fc2;}</style></defs><title>Asset 15</title><g id="Layer_2" data-name="Layer 2"><g id="Layer_1-2" data-name="Layer 1"><path class="cls-1" d="M86.1,56.57c0,22.24-16.14,40.51-37.47,43.09-24.61,3-43.9-13.74-47.9-35C-3.57,41.9,11.59,19.3,34.21,14.63c1.61-.33,2.93-.55,4.2,1.38,2,3,7.61,3,9.57-.11,1.09-1.74,2.22-1.61,3.67-1.35,16.25,2.92,30.52,17.17,33.61,33.5A61.63,61.63,0,0,1,86.1,56.57Zm-8.59.32A34.48,34.48,0,1,0,43,91.4,34.5,34.5,0,0,0,77.51,56.89Z"/><path class="cls-1" d="M43.35,7.33c-2.18,0-4.36,0-6.53,0-2.6,0-3.43-1.36-3.43-3.74S34.14,0,36.61,0c4.55,0,9.1.07,13.65,0,2.68,0,3,1.52,3,3.66s-.56,3.7-3.1,3.68C47.9,7.31,45.62,7.33,43.35,7.33Z"/><path class="cls-1" d="M46.42,11.73c.43,2.71-.56,4.23-3.22,4.35s-3.1-.89-3.42-4.58,2-2.67,3.89-2.91C46.48,8.23,46.89,9.66,46.42,11.73Z"/><path class="cls-1" d="M62.78,40.9l-.89,1.17-1.7,2.19c-1.77,2.16-3.48,4.37-5.14,6.61l0,.05c-1,1.1-1.85,2.26-2.7,3.45-.3.37-.62.72-.89,1.1s-.73.65-.7,1.19a8.21,8.21,0,0,1-1.15,4.45l-1.16,1.37a8.74,8.74,0,0,1-2,1.32,7.5,7.5,0,0,1-8.06-1.24l-1.22-1.44a9.73,9.73,0,0,1-1.18-3.38,12.23,12.23,0,0,1,.35-3,9.6,9.6,0,0,1,2-3.13l.48-.41a11.76,11.76,0,0,1,2.86-1.37,8.35,8.35,0,0,1,1.64-.12A1.88,1.88,0,0,0,45,49l1.68-1.34a10.37,10.37,0,0,0,1.69-1.34,23.58,23.58,0,0,0,2.56-2,2.49,2.49,0,0,0,.82-.66l6.79-5.28c.07-.06.09-.2.13-.3s.41-.1.49-.32a30.9,30.9,0,0,0,2.71-2c1.52-.44,2.18-.18,2.88,1.12a2.82,2.82,0,0,1-.74,2.39C63.6,39.77,63.2,40.35,62.78,40.9ZM40.14,58a2.65,2.65,0,0,0,1.53,2,3.31,3.31,0,0,0,4.49-1,3.39,3.39,0,0,0-4.93-4.51A3.26,3.26,0,0,0,40.14,58Z"/><path class="cls-1" d="M41.82,73.84l-.13-1L41.45,71q-.27-2.78-.69-5.54v0c-.07-1-.2-1.94-.36-2.9,0-.32,0-.63-.1-.94s0-.65-.23-.89a5.53,5.53,0,0,1-1.56-2.64l-.1-1.2a6,6,0,0,1,.34-1.57,5,5,0,0,1,4.38-3.22l1.26.11a6.52,6.52,0,0,1,2.14,1,7.73,7.73,0,0,1,1.26,1.6,6.15,6.15,0,0,1,.51,2.43l0,.42a7.81,7.81,0,0,1-.71,2,5.65,5.65,0,0,1-.71.83,1.24,1.24,0,0,0-.47,1.15l-.17,1.42a7.64,7.64,0,0,0-.16,1.43,15.58,15.58,0,0,0-.26,2.15,1.67,1.67,0,0,0-.08.7c-.23,1.9-.47,3.8-.7,5.69,0,.06.05.13.07.2s-.14.24-.08.39a20.66,20.66,0,0,0-.33,2.21c-.52.92-1,1.11-1.89.83A1.88,1.88,0,0,1,42,75.22C42,74.76,41.88,74.3,41.82,73.84Zm2.64-18.7a1.81,1.81,0,0,0-1.67-.22,2.21,2.21,0,0,0-1.64,2.59,2.26,2.26,0,0,0,4.45-.2A2.19,2.19,0,0,0,44.46,55.14Z"/></g></g></svg>