<svg xmlns="http://www.w3.org/2000/svg" width="73.788" height="73.94" viewBox="0 0 73.788 73.94">
  <g id="Group_35770" data-name="Group 35770" transform="translate(8.296 -40.633)">
    <path id="Path_37777" data-name="Path 37777" d="M39.651,106.789c0-3.118-.067-6.238.012-9.354.3-11.8,9.469-22.254,21.06-24.347A25.9,25.9,0,0,1,90.773,93.5a20.511,20.511,0,0,1,.46,4.035q.017,9.7.023,19.4a3.677,3.677,0,0,1-5.98,2.961,3.7,3.7,0,0,1-1.376-3.123q.024-6.323,0-12.646c-.01-2.4.085-4.792-.1-7.186a18.432,18.432,0,0,0-36.424-2.129,19.764,19.764,0,0,0-.4,4.215c0,5.948.012,11.9-.008,17.843a3.671,3.671,0,1,1-7.336.055c-.018-3.378-.005-6.756-.005-10.134Z" transform="translate(-36.848 -24.635)" fill="#0e77ff"/>
    <path id="Path_37778" data-name="Path 37778" d="M125.577,160.418c0,4.39.015,8.78-.008,13.17a3.682,3.682,0,0,1-7.169,1.2,5.545,5.545,0,0,1-.219-1.8q0-12.477-.007-24.954a3.693,3.693,0,0,0-2.672-3.879,3.641,3.641,0,0,0-4.654,3.505c-.045,3.465-.015,6.931-.015,10.4,0,5.083.009,10.166-.005,15.249a3.71,3.71,0,0,1-3.159,3.931,3.654,3.654,0,0,1-4.223-3.708c-.023-3.119-.009-6.238-.01-9.358,0-5.459-.011-10.917,0-16.376a11.064,11.064,0,0,1,21.883-2.432,11.5,11.5,0,0,1,.26,2.579Q125.569,154.18,125.577,160.418Z" transform="translate(-85.913 -73.807)" fill="#0e77ff"/>
    <path id="Path_37779" data-name="Path 37779" d="M249.706,52.337c0,1.011.018,2.022,0,3.032a3.671,3.671,0,1,1-7.342.025c-.029-1.674,0-3.349-.011-5.024s-.693-2.346-2.382-2.352c-1.614-.006-3.228.013-4.841-.006a3.684,3.684,0,1,1,.005-7.361c1.931-.014,3.863-.035,5.792.031a9.1,9.1,0,0,1,8.754,8.8c.035.951.005,1.905.005,2.858Z" transform="translate(-184.224 -0.002)" fill="#0e77ff"/>
    <path id="Path_37780" data-name="Path 37780" d="M-8.284,287.47c0-1.068-.03-2.138.007-3.2a3.613,3.613,0,0,1,3.7-3.561,3.607,3.607,0,0,1,3.628,3.541c.048,1.673.015,3.349.019,5.024,0,1.9.629,2.522,2.556,2.525,1.556,0,3.113-.012,4.668,0a3.684,3.684,0,1,1-.009,7.361c-1.93.013-3.863.036-5.791-.031a9.1,9.1,0,0,1-8.752-8.8c-.035-.951-.005-1.905-.005-2.858Z" transform="translate(0 -184.602)" fill="#0e77ff"/>
    <path id="Path_37781" data-name="Path 37781" d="M238.041,299.171c-1.066,0-2.133.032-3.2-.007a3.669,3.669,0,0,1,.014-7.333c1.728-.044,3.457-.008,5.186-.018,1.635-.009,2.317-.685,2.326-2.314.01-1.645-.012-3.291.006-4.936a3.672,3.672,0,1,1,7.339-.049c.021,1.963.042,3.927-.024,5.888a9.112,9.112,0,0,1-8.711,8.749c-.978.038-1.959.006-2.938.006Z" transform="translate(-184.243 -184.622)" fill="#0e77ff"/>
    <path id="Path_37782" data-name="Path 37782" d="M-8.264,51.956A22.765,22.765,0,0,1-8.1,48.123,9.123,9.123,0,0,1,.665,40.672c1.928-.057,3.86-.041,5.79-.013a3.674,3.674,0,1,1-.045,7.348c-1.671.027-3.342,0-5.013.009-1.627.009-2.3.69-2.31,2.328S-.9,53.635-.92,55.28A3.633,3.633,0,0,1-4.625,59.1a3.633,3.633,0,0,1-3.636-3.8C-8.278,54.317-8.264,53.335-8.264,51.956Z" transform="translate(-0.02 0)" fill="#0e77ff"/>
  </g>
</svg>
