<svg xmlns="http://www.w3.org/2000/svg" width="68.442" height="79.967" viewBox="0 0 68.442 79.967">
  <g id="Group_35769" data-name="Group 35769" transform="translate(293.582 -106.222)">
    <path id="Path_37771" data-name="Path 37771" d="M-81.9,162.3a.745.745,0,0,0-.109.16,3.075,3.075,0,0,1-3.194,2.321q-15.39.014-30.781,0a3.077,3.077,0,0,1-3.223-3.178,3.093,3.093,0,0,1,3.278-3.054c10.06,0,20.12.014,30.18-.022,1.815-.006,3.185.49,3.849,2.564Z" transform="translate(-143.242 -42.968)" fill="#0e77ff"/>
    <path id="Path_37772" data-name="Path 37772" d="M-82.013,336.907a4.822,4.822,0,0,1-1.051,1.666,3.453,3.453,0,0,1-2.349.775q-9.752-.017-19.5-.006c-3.762,0-7.525.017-11.287-.008a3.1,3.1,0,0,1-2.944-4.184,3.077,3.077,0,0,1,3.013-2.013q5.343-.015,10.686-.008c6.5,0,13,.044,19.5-.022,1.928-.019,3.271.6,3.932,2.461Z" transform="translate(-143.127 -186.375)" fill="#0e77ff"/>
    <path id="Path_37773" data-name="Path 37773" d="M-281.112,131.148q-4.509,0-9.019,0a3.1,3.1,0,0,1-3.376-3.361q-.005-9.1,0-18.206a3.127,3.127,0,0,1,3.336-3.354q9.119-.008,18.237,0a3.086,3.086,0,0,1,3.3,3.312q.01,9.17,0,18.34a3.049,3.049,0,0,1-3.256,3.267C-274.966,131.155-278.039,131.148-281.112,131.148Zm6.271-12.432c0-1.895-.007-3.79.006-5.685,0-.379-.07-.559-.508-.558q-5.707.022-11.414,0c-.414,0-.528.137-.527.537q.018,5.684,0,11.369c0,.449.15.564.577.562q5.64-.021,11.28,0c.478,0,.6-.153.6-.611C-274.854,122.461-274.841,120.588-274.841,118.715Z" transform="translate(-0.059 0)" fill="#0e77ff"/>
    <path id="Path_37774" data-name="Path 37774" d="M-268.556,300.382a3.148,3.148,0,0,1-.943,2.469q-6.27,6.213-12.546,12.42a3.1,3.1,0,0,1-4.763-.085c-1.964-2.039-3.932-4.074-5.88-6.128a2.96,2.96,0,0,1-.71-3.158,2.977,2.977,0,0,1,2.413-2.069,2.978,2.978,0,0,1,2.79.936c1.119,1.15,2.245,2.295,3.33,3.477.394.429.614.49,1.068.035q4.932-4.95,9.924-9.841a3.092,3.092,0,0,1,5.22,1.342A3.988,3.988,0,0,1-268.556,300.382Z" transform="translate(0 -157.118)" fill="#0e77ff"/>
    <path id="Path_37775" data-name="Path 37775" d="M-82.013,471.109a4.822,4.822,0,0,1-1.051,1.666,3.454,3.454,0,0,1-2.349.775q-9.752-.017-19.5-.006c-3.762,0-7.525.017-11.287-.008a3.1,3.1,0,0,1-2.944-4.184,3.078,3.078,0,0,1,3.013-2.013q5.343-.015,10.686-.008c6.5,0,13,.045,19.5-.021,1.928-.019,3.271.6,3.932,2.46Z" transform="translate(-143.127 -293.617)" fill="#0e77ff"/>
    <path id="Path_37776" data-name="Path 37776" d="M-268.556,434.584a3.148,3.148,0,0,1-.943,2.469q-6.27,6.213-12.546,12.42a3.1,3.1,0,0,1-4.763-.085c-1.964-2.039-3.932-4.074-5.88-6.128a2.96,2.96,0,0,1-.71-3.158,2.977,2.977,0,0,1,2.413-2.069,2.978,2.978,0,0,1,2.79.936c1.119,1.15,2.245,2.295,3.33,3.477.394.429.614.49,1.068.035q4.932-4.95,9.924-9.841a3.092,3.092,0,0,1,5.22,1.343A3.988,3.988,0,0,1-268.556,434.584Z" transform="translate(0 -264.359)" fill="#0e77ff"/>
  </g>
</svg>
