<svg id="Layer_1" data-name="Layer 1" xmlns="http://www.w3.org/2000/svg" viewBox="0 0 46 46"><defs><style>.cls-1{fill:#fff;}</style></defs><title>شوكولاتة</title><path id="Path_2654" data-name="Path 2654" class="cls-1" d="M.39,26a12.29,12.29,0,0,1,.55-3.64.81.81,0,0,1,.35-.48l12.26-9.36q4.17-3.19,8.33-6.4l3.43-2.62a.66.66,0,0,1,.94,0h0L33.48,9q3.51,2.7,7,5.42c1.3,1,2.61,2,3.94,3a1.58,1.58,0,0,1,.72,1.16,9.71,9.71,0,0,0,.28,1.3,15.15,15.15,0,0,1,.19,3.29c0,.19-.12.27-.24.37l-9.47,7.21-11,8.41c-1.48,1.14-3,2.27-4.49,3.42-.2.16-.3.08-.46,0l-7.7-5.91-10.5-8a11.15,11.15,0,0,0-1.18-.9.39.39,0,0,1-.21-.41C.41,27,.39,26.56.39,26Zm19.8,9.47a1.56,1.56,0,0,0,.74-.15,6.22,6.22,0,0,0,1.31-.84l7.63-5.83,11.48-8.8a4.72,4.72,0,0,0,1.22-1.14.81.81,0,0,0-.06-1.13l-.09-.06a5.91,5.91,0,0,0-.63-.49l-8.74-6.73L26.73,5.45a1.25,1.25,0,0,0-1.9,0l-7.9,6.05-13,10a1.16,1.16,0,0,0,0,2c.51.41,1,.82,1.56,1.22l8.93,6.85,4.32,3.33A2.53,2.53,0,0,0,20.19,35.46Zm.68,5.22,1-.7L37.59,28l6.52-5c.12-.09.25-.16.25-.36a9.77,9.77,0,0,0-.28-3c-.07-.25-.14-.18-.28-.08l-.85.65L28.29,31.44,21.08,37a.4.4,0,0,0-.21.34c0,1.1,0,2.2,0,3.39Zm-1.3,0V37.21c0-.11-.08-.15-.15-.21-.92-.7-1.82-1.41-2.73-2.11l-8.47-6.5-6-4.61c-.19-.14-.25-.21-.33.09a10.1,10.1,0,0,0-.28,2.68.82.82,0,0,0,.38.73q4.13,3.13,8.24,6.28l3.44,2.65,3.46,2.64Z"/><path id="Path_2655" data-name="Path 2655" class="cls-1" d="M7.17,23.17a.58.58,0,0,1,.36-.56.66.66,0,0,1,.74.12l2.25,1.73a1.62,1.62,0,0,0,2.39,0L14,23.66a.64.64,0,0,1,.66-.12.6.6,0,0,1,.42.51.64.64,0,0,1-.29.59c-1,.74-1.93,1.47-2.88,2.21a.25.25,0,0,1-.36,0v0l-4-3.05C7.36,23.63,7.12,23.46,7.17,23.17Z"/><path id="Path_2656" data-name="Path 2656" class="cls-1" d="M20.47,19.88a.59.59,0,0,1-.27.52l-2.85,2.19a.27.27,0,0,1-.38,0l0,0c-1.32-1-2.67-2.07-4-3.1-.38-.28-.46-.63-.21-.93a.67.67,0,0,1,.94-.1s0,0,.05.05c.8.59,1.58,1.2,2.37,1.8a1.51,1.51,0,0,0,2.16,0l1.2-.9a.62.62,0,0,1,.71-.06.54.54,0,0,1,.32.54Z"/><path id="Path_2657" data-name="Path 2657" class="cls-1" d="M25,20.05a.66.66,0,0,1,.34-.54.62.62,0,0,1,.71.07l2.05,1.57c.19.15.37.31.57.44a1.41,1.41,0,0,0,1.84-.06c.42-.3.82-.62,1.23-.93a.67.67,0,0,1,1,0s0,0,0,0c.25.29.19.67-.2,1l-2.74,2.1a.32.32,0,0,1-.46,0l0,0c-1.33-1.05-2.66-2.08-4-3.11A.76.76,0,0,1,25,20.05Z"/><path id="Path_2658" data-name="Path 2658" class="cls-1" d="M19.57,24.32a.61.61,0,0,1,.35-.56.65.65,0,0,1,.75.1l2.45,1.88a1.49,1.49,0,0,0,2,0l.86-.66c.15-.11.3-.24.46-.34a.64.64,0,0,1,.86.13.6.6,0,0,1-.08.84c-1,.78-2,1.53-3,2.3-.17.13-.25,0-.34-.06l-3.25-2.5-.85-.65A.6.6,0,0,1,19.57,24.32Z"/><path id="Path_2659" data-name="Path 2659" class="cls-1" d="M24.07,9.84a.71.71,0,0,1,.51.21l2.31,1.77a1.51,1.51,0,0,0,2.18,0L30.19,11a.66.66,0,0,1,.94,0l.05.06a.6.6,0,0,1-.07.85l-.1.07c-.94.72-1.87,1.43-2.8,2.16a.31.31,0,0,1-.44,0l0,0q-2-1.56-4.05-3.11a.63.63,0,0,1-.24-.75A.58.58,0,0,1,24.07,9.84Z"/><path id="Path_2660" data-name="Path 2660" class="cls-1" d="M14.18,28.56A.53.53,0,0,1,14.5,28a.65.65,0,0,1,.74.09l1.85,1.41c.25.19.49.39.75.56A1.43,1.43,0,0,0,19.7,30l1.23-.94a.68.68,0,0,1,1,0,.64.64,0,0,1-.11.9l-.06.05L18.91,32.2a.28.28,0,0,1-.38,0l0,0c-1.34-1.05-2.69-2.08-4-3.12A.56.56,0,0,1,14.18,28.56Z"/><path id="Path_2661" data-name="Path 2661" class="cls-1" d="M18,14.7a.71.71,0,0,1,.35-.55.62.62,0,0,1,.71.07c.68.51,1.36,1,2,1.55,1.28,1,1.67,1,3,0l.8-.61a.67.67,0,0,1,.49-.15.64.64,0,0,1,.44.23.59.59,0,0,1-.06.84.21.21,0,0,1-.08.06l-2.86,2.18a.28.28,0,0,1-.4,0h0l-4.05-3.1A.78.78,0,0,1,18,14.7Z"/><path id="Path_2662" data-name="Path 2662" class="cls-1" d="M31,15.21a.87.87,0,0,1,.61.26c.66.5,1.3,1,2,1.51a6.22,6.22,0,0,0,.65.45,1.36,1.36,0,0,0,1.53,0c.49-.33,1-.69,1.42-1a.68.68,0,0,1,1,0l0,0c.24.29.17.65-.21.94-.93.7-1.84,1.4-2.76,2.12-.15.11-.26.16-.44,0q-2-1.59-4.1-3.15a.61.61,0,0,1-.22-.72A.6.6,0,0,1,31,15.21Z"/></svg>