<svg id="Layer_1" data-name="Layer 1" xmlns="http://www.w3.org/2000/svg" viewBox="0 0 46 46"><defs><style>.cls-1{fill:#fff;}</style></defs><title>بهارات</title><path id="Path_2665" data-name="Path 2665" class="cls-1" d="M14.88,31.52a.91.91,0,0,1-1.17-.62,1.28,1.28,0,0,1,0-1.16A3.62,3.62,0,0,0,14,28.61c.09-.43-.08-.39-.24-.4a3.5,3.5,0,0,1-2.48-1.36c.57,1-.07,1.87-.05,2.8,0,.22-.27.3-.44.29a.38.38,0,0,1-.41-.37,1.27,1.27,0,0,0-.47-.95,1.28,1.28,0,0,1-.29-.94c0-.33,0-.61-.3-.7-.09.48-.15,1-.59,1.14s-.58-.31-.84-.66a1.69,1.69,0,0,1-.52-1.22c0-.36-.56-.56-.8-.33l-.4.32a1.39,1.39,0,0,1,.85.45,1.62,1.62,0,0,1,.27,1.11c0,.84-.57,1.17-.91,1.68-.12.16-.31,0-.36-.14-.15-.49-.56-.81-.58-1.35s-.26-.4-.43-.49c-.33-.16-.2.29-.25.45-.16.54-.41.87-.85.7s-.58-.71-.47-1.29.46-.74.88-.61c.07,0,.21.39.29,0,0-.21.1-.41-.13-.5a.82.82,0,0,1-.35-.52c-.18-.48-.43-.8-.85-.87s-.72-.51-.83-1.11c-.07-.38-.21-.55-.48-.58-.54,0-1-.57-1.57-.51C.14,22.67,0,22.32,0,22a1,1,0,0,1,.34-.87c.68-.63,1.49-1,1.92-2.11l.08-.12c1.91-1.68,3.45-4.15,5.7-5.09a4.92,4.92,0,0,1,2.36-.5.73.73,0,0,0,.73-.36A6.42,6.42,0,0,1,15.06,10c.64-.13,1.22-.66,1.89-.8a4.93,4.93,0,0,1,3.42.71,16.71,16.71,0,0,1,4.43,3.41,4,4,0,0,0,2.41,1.28,2.92,2.92,0,0,1,1.45.57c1.11.86,2.32,1.41,3.43,2.23A8.87,8.87,0,0,0,35.44,19a6.21,6.21,0,0,1,2.26,1.26c.42.32.78.91,1.35.66.12-.06.27.1.33.28s.16.18.29,0,.5-.33.72,0a.66.66,0,0,1,0,.74c-.23.35-.49.23-.73,0-.06-.06-.08-.18-.18-.15-.16.24,0,.39.08.57a1.16,1.16,0,0,1-.22,1.23c-.29.32-.59.37-.85,0-.4-.52-.57.06-.63.34-.1.57-.2,1.05-.66,1.2-.18.06-.13.29-.17.46s-.15.4-.34.33-.24-.29-.2-.52.12-.3,0-.49a1.56,1.56,0,0,1,0-1.77c-.48.2-1,0-1,1.09a4.25,4.25,0,0,0,.06,1.5A1.22,1.22,0,0,1,35,27.16c-.38.2-.47.57-.55,1-.22,1.31-.69,1.83-1.65,1.84a1.21,1.21,0,0,0-.82.31c-.71.61-1.29.44-1.8-.45a2.06,2.06,0,0,1,.25-2.32c.2-.26.31-.42.06-.74a2.88,2.88,0,0,1-.23-.81,1.56,1.56,0,0,1-.94,1.71,2.62,2.62,0,0,1-2.19,0c-.19-.05-.45-.09-.55.39s-.49.77-.92.63c-1-.3-1-.3-1.27-.73,0,.48.14.94-.14,1.31s-.59.19-.92.18-.68.52-.95.88c-.72.91-1.47,1.05-2.24.2-.22-.23-.29-.15-.47.05a1.56,1.56,0,0,1-2.48-.47,3.52,3.52,0,0,1-.69-1.47c0-.15-.15-.44-.35-.2s.07.28.13.39a1.06,1.06,0,0,1,0,1.05.38.38,0,0,1-.52.24.74.74,0,0,1-.35-.84c.18-.64-.09-.69-.42-.79a1.55,1.55,0,0,0,.07.93A1.59,1.59,0,0,1,15,31.36Zm15-4.74c-.19,0-.36,0-.49-.05a.83.83,0,0,1-.37-1c.11-.46.35-.73.72-.58,1.11.43,1.55.26,2.18-1,.22-.45.31-.31.47.06s0,.4-.09.62c-.22.41-.49.89,0,1.31s.69-.09.82-.59.23-.52.49-.51.68-.44,1.11-.32c.25.08.49-.37.38-.73-.24-.82,0-1,.53-1a1.84,1.84,0,0,0,.77-.34,5.54,5.54,0,0,1,1.74-.93.26.26,0,0,0,.17-.17c0-.19-.09-.28-.18-.36a6.77,6.77,0,0,0-2.81-1.73,9.87,9.87,0,0,1-3.25-1.48c-1.2-.82-2.41-1.59-3.63-2.37a2.62,2.62,0,0,0-1.11-.44,4.94,4.94,0,0,1-3.07-1.78,13.83,13.83,0,0,0-2.72-2.22c-1.48-.94-3-1.84-4.65-1.42-.61.15-1.13.66-1.72.77-1.6.27-2.82,1.45-3.92,3-.15.22-.3.4-.55.36-1.66-.24-3.07.69-4.48,1.73S4,18.16,2.68,19.2c-.5.4-.68,1.49-1.42,1.61-.05,0-.13.14-.15.23-.07.38-.22.54-.51.5s-.24.12-.26.35.07.34.2.33c.72-.11,1.3.67,2,.63.19,0,.17.14.17.37,0,.77.3,1.24.85,1.23.28,0,.39.13.54.44.52,1.13,1.51,1.39,2.26.56.33-.37.56-.33.87,0s.71.75,1.07.46.84.05,1.19-.43c.11-.15.35,0,.43.28.14.46-.13.65-.47.87a.73.73,0,0,1,.48,1,.88.88,0,0,0,.48,1,.44.44,0,0,0,.59-.18.29.29,0,0,0,0-.1,1.07,1.07,0,0,0-.15-1.1,3.1,3.1,0,0,0-.33-.36c.4-.17.41-.66.61-1a3.12,3.12,0,0,0,3.35,1.93.76.76,0,0,0,.64-.49c.3-.66.52-.36.85,0a13,13,0,0,1,1.36,2.46,1.53,1.53,0,0,0,1.44.88c.44,0,.84-.27.88-1,0-.14.09-.17.17-.17s.21.2.26.37c.17.61.61,1,1.08.89A2.43,2.43,0,0,0,22.91,29a1.75,1.75,0,0,1,1-1.13c.24-.1.42-.19.35-.66a.6.6,0,0,1,.35-.73c.25-.09.46,0,.61.33a.86.86,0,0,1-.15.93c-.07.09-.18.11-.21.26.2.52.55-.07.79.23s.35.23.51,0a.82.82,0,0,0,0-.76c-.16-.53-.15-1,.3-1.27s.72.12.81.82c0,.28.1.47.29.53s.33,0,.4-.33.25-.4.34-.06.06.56.34.5.15-.44.26-.68C29.24,27.15,29.56,27.45,29.89,26.78Zm3.11.07c-.74.26-1.46.56-2.17.89a1.19,1.19,0,0,0-.48.72,1.64,1.64,0,0,0,0,1c.3.77.87,1,1.39.55a1.55,1.55,0,0,1,1.1-.44c.76,0,1.07-.39,1.25-1.45.08-.5.16-1,.56-1.25a.81.81,0,0,0,.47-1c0-.3-.19-.49-.42-.45-.43.09-.37.57-.39,1,0,.72-.3.94-.76.64a1.57,1.57,0,0,0-.58-.25Zm-26.08.8c0-.58-.26-.88-.63-.86s-.59.38-.57.94a1.1,1.1,0,0,0,.17.59.51.51,0,0,0,.43.23C6.69,28.54,6.92,28.2,6.92,27.65ZM15,30.33a1,1,0,0,0-.15-.52.46.46,0,0,0-.38-.2c-.28,0-.55.22-.53.7s.21.78.56.76.5-.28.5-.74ZM37.49,24c-.09-.33-.16-.71-.48-.67a.45.45,0,0,0-.37.24.89.89,0,0,0-.11.53.75.75,0,0,0,.14.48.39.39,0,0,0,.35.17c.27,0,.43-.35.47-.75Zm-6,1.75c-.3.08-.67.05-.74.6,0,.33.17.48.39.43s.69-.17.74-.72c0-.32-.22-.31-.39-.31ZM34,25.48c-.54-.19-.64.45-.86.9l.78.4Zm5.23-2.68a.61.61,0,0,0-.13-.39.33.33,0,0,0-.29-.15.27.27,0,0,0-.26.13.56.56,0,0,0-.11.37.65.65,0,0,0,.11.41.31.31,0,0,0,.29.15c.23,0,.35-.2.39-.52ZM4,27.13a.52.52,0,0,0-.32.59c0,.33.13.53.36.49A.31.31,0,0,0,4.33,28a.64.64,0,0,0,.08-.38A.5.5,0,0,0,4,27.13Zm20.08,1.5a.53.53,0,0,0-.13-.31.24.24,0,0,0-.24-.08c-.22,0-.31.19-.31.47a.54.54,0,0,0,.08.33.25.25,0,0,0,.24.11c.21,0,.34-.22.36-.52ZM8.89,27.2c-.05-.25-.15-.45-.35-.42a.26.26,0,0,0-.23.13.52.52,0,0,0-.09.34.54.54,0,0,0,.11.32.26.26,0,0,0,.24.11.46.46,0,0,0,.32-.48Zm6.69.38c-.18,0-.44,0-.41.35s.26.33.47.32.3-.08.31-.35-.2-.3-.37-.32ZM37,22.75c.43.37.74-.38,1.13-.19a.65.65,0,0,0,0-.31c0-.07-.13-.07-.2-.06A2.2,2.2,0,0,0,37,22.75Z"/><path id="Path_2666" data-name="Path 2666" class="cls-1" d="M14.88,31.52l.18-.17a2,2,0,0,1,2.06.24c.28.24.45,0,.67-.08a1.45,1.45,0,0,1,1.9.33,1.9,1.9,0,0,0,.94.63.53.53,0,0,1,.44.61.57.57,0,0,1-.58.5c-.94,0-1.85.86-2.82.09-.14-.12-.23.06-.34.12a1.78,1.78,0,0,1-2.3,0C14.37,33.12,14.32,32.49,14.88,31.52Zm5.64,1.53a4.13,4.13,0,0,1-1.29-1,.84.84,0,0,0-.58-.33A.81.81,0,0,0,18,32c-.51.45-.83.44-1.31,0a1,1,0,0,0-1.4,0A.86.86,0,0,0,15.08,33a1.14,1.14,0,0,0,1.18.72c.75,0,.9-.58,1.19-1.15.81,1.78,2,.35,3.07.49Z"/><path id="Path_2667" data-name="Path 2667" class="cls-1" d="M26.91,32.38a1.35,1.35,0,0,1-1.43-1.27.41.41,0,0,1,0-.11c0-.69.5-1,.89-1.46s.76-.9,1.47-.57c.14.07.2,0,.28-.08s.41-.2.55,0,.08.41-.22.49-.28.38-.09.59a1.19,1.19,0,0,1,.28,1.54A1.81,1.81,0,0,1,26.91,32.38ZM27,32a1.54,1.54,0,0,0,1.23-.64c.14-.24.22-.57,0-.65a15.27,15.27,0,0,0-1.89-.45s-.11.1-.17.17a1,1,0,0,0-.06,1.08A1,1,0,0,0,27,32Z"/><path id="Path_2668" data-name="Path 2668" class="cls-1" d="M37.53,28.11c-.19.3,0,.44.25.64a1,1,0,0,1,.16,1.4l-.06.06a1,1,0,0,1-.65.43,1.07,1.07,0,0,1-.78-.15A1,1,0,0,1,36,29c.17-.34-.29-1-.7-1a.71.71,0,0,1-.75-.39.45.45,0,0,1,.16-.59.59.59,0,0,1,.83,0c.21.2.35.13.58,0A1,1,0,0,1,37.53,28.11Zm.15,1.4c-.1-.26-.2-.58-.62-.6a.59.59,0,0,0-.48.13.66.66,0,0,0,.25,1.13H37c.38,0,.59-.27.7-.67ZM37,27.93a.44.44,0,0,0-.13-.34.43.43,0,0,0-.34-.13c-.25,0-.52.14-.51.42s.3.42.55.44a.35.35,0,0,0,.31-.09.31.31,0,0,0,.11-.3Z"/><path id="Path_2669" data-name="Path 2669" class="cls-1" d="M38.41,27.27a1.67,1.67,0,0,1-1.49-1,1.39,1.39,0,0,1,.2-1.66,1.49,1.49,0,0,1,1.64-.57,9.39,9.39,0,0,0,1.82.57c.29,0,.41.29.43.54a.56.56,0,0,1-.39.65,1.25,1.25,0,0,0-.81.71A1.74,1.74,0,0,1,38.41,27.27Zm1.18-2a5.18,5.18,0,0,0,.66.14.3.3,0,0,0,.25-.17.17.17,0,0,0,0-.15.18.18,0,0,0-.16-.05c-.59.14-1-.25-1.45-.47a1.05,1.05,0,0,0-1.34.34,1,1,0,0,0,0,1.4h0a1.11,1.11,0,0,0,1.2.4,1.21,1.21,0,0,0,.89-1.45Z"/><path id="Path_2670" data-name="Path 2670" class="cls-1" d="M9.1,33A1.18,1.18,0,0,1,8,32.08,1,1,0,0,1,8.6,30.8a.83.83,0,0,0,.64-.61,1,1,0,0,1,1.1-.72,1.05,1.05,0,0,1,1,.87.93.93,0,0,1-.61,1.13c-.36.12-.37.32-.44.58A1.26,1.26,0,0,1,9.1,33Zm.74-1.16c-.1-.36-.27-.65-.72-.66a.59.59,0,0,0-.66.6.63.63,0,0,0,.53.71h.1c.42,0,.63-.28.75-.66Zm1-1.33a.59.59,0,0,0-.62-.56.59.59,0,0,0-.57.61.53.53,0,0,0,.16.41.58.58,0,0,0,.43.16.59.59,0,0,0,.6-.57V30.5Z"/><path id="Path_2671" data-name="Path 2671" class="cls-1" d="M41.44,24.34a1.05,1.05,0,0,1-1-.68.89.89,0,0,1,.22-1.11c.24-.24.46-.37.29-.8s.13-.7.58-.7.73.29.61.68a.79.79,0,0,0,.24.89.87.87,0,0,1,.13,1.13A1.09,1.09,0,0,1,41.44,24.34Zm.06-1.69a.63.63,0,0,0-.7.55s0,0,0,.06a.61.61,0,0,0,.65.63.63.63,0,0,0,.47-.16.58.58,0,0,0,.19-.45.62.62,0,0,0-.61-.63h0Z"/><path id="Path_2672" data-name="Path 2672" class="cls-1" d="M24.76,32a1.21,1.21,0,0,1-.87-.33,1.1,1.1,0,0,1-.31-.86,1.16,1.16,0,0,1,1.16-1.14A1.33,1.33,0,0,1,26,30.89,1.25,1.25,0,0,1,24.76,32Zm.72-1.17c-.11-.38-.29-.65-.75-.64a.59.59,0,0,0-.66.52.38.38,0,0,0,0,.15.62.62,0,0,0,.59.66h.11c.45,0,.63-.3.71-.68Z"/><path id="Path_2673" data-name="Path 2673" class="cls-1" d="M34.73,30.75c0-.6.52-1.24,1-1.16a2.08,2.08,0,0,1,1.49.82c.17.28-1,1.27-1.43,1.26A1,1,0,0,1,34.73,30.75Zm1.67-.13c-.1-.31-.27-.59-.63-.55a.63.63,0,0,0-.41.19.55.55,0,0,0-.12.43.46.46,0,0,0,.17.36.53.53,0,0,0,.38.14c.38,0,.53-.27.62-.58Z"/><path id="Path_2674" data-name="Path 2674" class="cls-1" d="M35.94,32.92A1,1,0,0,1,34.74,34a1,1,0,0,1-1-1.09,1.06,1.06,0,0,1,.37-.8,1.12,1.12,0,0,1,.86-.26A1,1,0,0,1,35.94,32.92Zm-.51,0c0-.34-.13-.59-.52-.6a.61.61,0,0,0-.5.18.57.57,0,0,0-.17.48.55.55,0,0,0,.59.56.54.54,0,0,0,.61-.47.38.38,0,0,0,0-.15Z"/><path id="Path_2675" data-name="Path 2675" class="cls-1" d="M33,32.3c0,.55-.53.75-1.11.79A1.14,1.14,0,0,1,30.69,32v0a1,1,0,0,1,1.06-1A1.23,1.23,0,0,1,33,32.3Zm-1.08.35c.28-.11.62-.18.59-.57a.68.68,0,0,0-.68-.69h0a.51.51,0,0,0-.58.44.67.67,0,0,0,0,.2C31.23,32.41,31.5,32.58,31.87,32.65Z"/><path id="Path_2676" data-name="Path 2676" class="cls-1" d="M31.3,34.69a1.11,1.11,0,0,1,.78,1.86,1.1,1.1,0,0,1-.84.32,1,1,0,0,1-1-1.07,1,1,0,0,1,1-1.1Zm.58,1.09c0-.3-.15-.58-.52-.61a.62.62,0,0,0-.65.58.6.6,0,0,0,.57.65h0c.35,0,.54-.26.58-.62Z"/><path id="Path_2677" data-name="Path 2677" class="cls-1" d="M14,32.67c-.69,0-1-.31-1.07-.82s.32-.84.88-.86a.79.79,0,0,1,.93.8A.84.84,0,0,1,14,32.67Z"/><path id="Path_2678" data-name="Path 2678" class="cls-1" d="M41,28.23a1,1,0,0,1,.94,1,1,1,0,0,1-1,.95,1,1,0,0,1-.75-.3A1,1,0,0,1,41,28.23Zm0,.49a.46.46,0,0,0-.51.38v.12a.44.44,0,0,0,.49.51.48.48,0,0,0,.38-.13.43.43,0,0,0,.14-.37.45.45,0,0,0-.39-.51Z"/><path id="Path_2679" data-name="Path 2679" class="cls-1" d="M4.1,25.77a.76.76,0,0,1-.71.82.33.33,0,0,1-.14,0,.78.78,0,0,1-.81-.74.37.37,0,0,1,0-.11.74.74,0,0,1,.68-.8,1,1,0,0,1,.17,0A.75.75,0,0,1,4.1,25.77Z"/><path id="Path_2680" data-name="Path 2680" class="cls-1" d="M23.16,34.08a.89.89,0,0,1-.85.94h-.12a.89.89,0,0,1-1-.78V34.1a.87.87,0,0,1,.78-1h.23a.88.88,0,0,1,.93.83ZM22.64,34c0-.21-.2-.34-.49-.33a.44.44,0,0,0-.33.14.4.4,0,0,0-.11.34.45.45,0,0,0,.16.33.47.47,0,0,0,.35.1c.26,0,.45-.2.43-.58Z"/><path id="Path_2681" data-name="Path 2681" class="cls-1" d="M34.07,33a.71.71,0,0,1,.8.63.49.49,0,0,1,0,.17.73.73,0,0,1-.64.83h-.15a.76.76,0,0,1-.85-.67v-.14a.74.74,0,0,1,.64-.83A.67.67,0,0,1,34.07,33Z"/><path id="Path_2682" data-name="Path 2682" class="cls-1" d="M34.14,30.83a.89.89,0,0,1,.85-.91h.11a.86.86,0,0,1,.92.81.66.66,0,0,1,0,.14.94.94,0,0,1-1.87,0Zm1.38,0a.42.42,0,0,0-.4-.43H35a.47.47,0,0,0-.29.14.41.41,0,0,0-.1.3.41.41,0,0,0,.12.33.44.44,0,0,0,.33.14.42.42,0,0,0,.43-.5Z"/><path id="Path_2683" data-name="Path 2683" class="cls-1" d="M29.08,33.18c-.65,0-1-.35-.95-.94a.84.84,0,0,1,.8-.87.21.21,0,0,1,.11,0,.87.87,0,0,1,1,.77v.13A.86.86,0,0,1,29.08,33.18Zm0-1.34a.46.46,0,0,0-.32.1.41.41,0,0,0-.14.3.38.38,0,0,0,.28.44H29c.28,0,.5-.11.5-.43a.38.38,0,0,0-.12-.29A.43.43,0,0,0,29.09,31.84Z"/><path id="Path_2684" data-name="Path 2684" class="cls-1" d="M27.16,34.49a.87.87,0,0,1-.93-.93.89.89,0,0,1,1.06-.89.86.86,0,0,1,.9.82.76.76,0,0,1,0,.15.87.87,0,0,1-.89.86Zm.55-.93a.47.47,0,0,0-.52-.42c-.3,0-.48.17-.47.45a.44.44,0,0,0,.15.32.43.43,0,0,0,.36.1.47.47,0,0,0,.48-.45Z"/><path id="Path_2685" data-name="Path 2685" class="cls-1" d="M12.92,28.2a1,1,0,0,1,1.06.88.89.89,0,0,1-.81,1A.49.49,0,0,1,13,30a.89.89,0,0,1-1-.79v-.11A.93.93,0,0,1,12.92,28.2Zm.58.92a.48.48,0,0,0-.51-.44.44.44,0,0,0-.34.13.39.39,0,0,0-.12.33c0,.28.19.42.49.42a.47.47,0,0,0,.48-.44Z"/><path id="Path_2686" data-name="Path 2686" class="cls-1" d="M29.74,29.06c-.13.44-.36.72-.84.68a.67.67,0,0,1-.72-.62,1.34,1.34,0,0,1,0-.2.67.67,0,0,1,.74-.63A.84.84,0,0,1,29.74,29.06Z"/><path id="Path_2687" data-name="Path 2687" class="cls-1" d="M10.65,30.6a.67.67,0,0,1-.64.68h0a.6.6,0,0,1-.68-.53v0A.6.6,0,0,1,9.75,30a.38.38,0,0,1,.15,0,.65.65,0,0,1,.75.56Z"/><path id="Path_2688" data-name="Path 2688" class="cls-1" d="M30.32,30.33a.61.61,0,0,1-.5.69h-.08a.59.59,0,0,1-.51-.12.56.56,0,0,1-.22-.47.61.61,0,0,1,.17-.48.66.66,0,0,1,.49-.2A.62.62,0,0,1,30.32,30.33Z"/><path id="Path_2689" data-name="Path 2689" class="cls-1" d="M44.3,26.39a.59.59,0,0,1,.66.5V27a.65.65,0,0,1-.69.61.66.66,0,0,1-.6-.57C43.65,26.64,43.9,26.42,44.3,26.39Z"/><path id="Path_2690" data-name="Path 2690" class="cls-1" d="M11.24,30.05a.59.59,0,0,1-.42-.21.55.55,0,0,1-.12-.44.59.59,0,0,1,.62-.55l.09,0a.56.56,0,0,1,.42.18.51.51,0,0,1,.14.42C12,29.83,11.71,30.06,11.24,30.05Z"/><path id="Path_2691" data-name="Path 2691" class="cls-1" d="M46,31.1a.6.6,0,0,1-.64.55.58.58,0,0,1-.37-.17.51.51,0,0,1-.15-.41.5.5,0,0,1,.16-.4.53.53,0,0,1,.42-.13.55.55,0,0,1,.58.51Z"/><path id="Path_2692" data-name="Path 2692" class="cls-1" d="M39.93,32.18a.47.47,0,0,1-.43.51h-.1a.48.48,0,0,1-.55-.42.38.38,0,0,1,0-.15.46.46,0,0,1,.15-.37.54.54,0,0,1,.38-.15.51.51,0,0,1,.55.47A.24.24,0,0,1,39.93,32.18Z"/><path id="Path_2693" data-name="Path 2693" class="cls-1" d="M16.5,35.3c.3,0,.49.19.46.53s-.25.46-.57.44-.43-.21-.43-.49S16.14,35.29,16.5,35.3Z"/><path id="Path_2694" data-name="Path 2694" class="cls-1" d="M28.1,36.19c0,.39-.17.57-.46.54a.44.44,0,0,1-.41-.47h0a.45.45,0,0,1,.48-.4C28,35.88,28.14,36,28.1,36.19Z"/><path id="Path_2695" data-name="Path 2695" class="cls-1" d="M21.66,32.25a.37.37,0,0,1-.1.3.42.42,0,0,1-.3.13c-.25,0-.42-.08-.44-.35a.38.38,0,0,1,.41-.46.41.41,0,0,1,.3.1A.37.37,0,0,1,21.66,32.25Z"/><path id="Path_2696" data-name="Path 2696" class="cls-1" d="M27.42,17.69c.64.06,1,.39,1,.91a.74.74,0,0,1-.28.58.82.82,0,0,1-.64.18.84.84,0,0,1-.88-.82v-.09a.76.76,0,0,1,.74-.77Z"/><path id="Path_2697" data-name="Path 2697" class="cls-1" d="M23.51,26c0,.75-.4,1-.94,1a.83.83,0,0,1-.9-.78.6.6,0,0,1,0-.19.8.8,0,0,1,.27-.59.84.84,0,0,1,.63-.2C23.11,25.26,23.55,25.5,23.51,26Zm-.51.15c0-.25-.08-.45-.36-.43a.49.49,0,0,0-.47.4c-.06.28.2.39.41.41a.33.33,0,0,0,.31-.08.34.34,0,0,0,.11-.3Z"/><path id="Path_2698" data-name="Path 2698" class="cls-1" d="M10.11,23.82a.73.73,0,0,1,.65-.8h.11c.56,0,.8.37.77.86a.71.71,0,0,1-.65.76h-.14a.75.75,0,0,1-.75-.74A.22.22,0,0,1,10.11,23.82Z"/><path id="Path_2699" data-name="Path 2699" class="cls-1" d="M33.16,21.07c0,.7-.34,1-.86,1.06a.91.91,0,1,1,0-1.82h0a.81.81,0,0,1,.87.71Zm-.87.61a.55.55,0,0,0,.4-.43.42.42,0,0,0-.07-.31.46.46,0,0,0-.28-.17.43.43,0,0,0-.48.35.33.33,0,0,0,0,.1c0,.23.15.37.43.46Z"/><path id="Path_2700" data-name="Path 2700" class="cls-1" d="M19.48,20.56c-.72,0-1-.35-1-.89a.84.84,0,0,1,.25-.63.86.86,0,0,1,.65-.23.93.93,0,0,1,.69.27.81.81,0,0,1,.22.68.79.79,0,0,1-.77.81Zm.07-.49a.36.36,0,0,0,.28-.37.45.45,0,0,0-.42-.43.42.42,0,0,0-.3.12.36.36,0,0,0-.11.29c0,.26.12.41.55.4Z"/><path id="Path_2701" data-name="Path 2701" class="cls-1" d="M14.16,24.12a.68.68,0,0,1,.71.64.49.49,0,0,1,0,.12.75.75,0,0,1-1.5.07.25.25,0,0,1,0-.08.71.71,0,0,1,.67-.75Z"/><path id="Path_2702" data-name="Path 2702" class="cls-1" d="M20.78,29.21c-.4-.09-.75-.22-.78-.71a.66.66,0,0,1,.52-.77h.16a.7.7,0,0,1,.83.55.78.78,0,0,1,0,.16C21.54,28.89,21.19,29.08,20.78,29.21Z"/><path id="Path_2703" data-name="Path 2703" class="cls-1" d="M15.18,13.65c-.08.33-.18.66-.68.66a.56.56,0,0,1-.65-.58c0-.39.13-.7.6-.73S15.09,13.26,15.18,13.65Z"/><path id="Path_2704" data-name="Path 2704" class="cls-1" d="M9.08,23.16c-.44-.1-.73-.33-.71-.72a.59.59,0,0,1,.2-.48.61.61,0,0,1,.5-.15.56.56,0,0,1,.6.52v.1C9.68,22.87,9.4,23,9.08,23.16Z"/><path id="Path_2705" data-name="Path 2705" class="cls-1" d="M15.82,18.63a.58.58,0,0,1-.59-.64.57.57,0,0,1,.2-.43.6.6,0,0,1,.48-.13.58.58,0,0,1,.6.63.62.62,0,0,1-.66.57Z"/><path id="Path_2706" data-name="Path 2706" class="cls-1" d="M12.7,18.4a.58.58,0,0,1-.16.45.64.64,0,0,1-.45.19.56.56,0,0,1-.61-.49v-.13a.57.57,0,0,1,.47-.63h.12a.6.6,0,0,1,.63.61Z"/><path id="Path_2707" data-name="Path 2707" class="cls-1" d="M22.45,14.58a.6.6,0,0,1-.59.56c-.36,0-.6-.11-.6-.49a.56.56,0,0,1,.51-.63h.08C22.17,14,22.36,14.26,22.45,14.58Z"/><path id="Path_2708" data-name="Path 2708" class="cls-1" d="M11,18.74a.49.49,0,0,1,.38.14.47.47,0,0,1,.13.37.46.46,0,0,1-.4.49H11c-.31,0-.44-.16-.45-.46S10.62,18.75,11,18.74Z"/></svg>