<?xml version="1.0" encoding="utf-8"?>
<!-- Generator: Adobe Illustrator 23.0.3, SVG Export Plug-In . SVG Version: 6.00 Build 0)  -->
<svg version="1.1" id="Layer_1" xmlns="http://www.w3.org/2000/svg" xmlns:xlink="http://www.w3.org/1999/xlink" x="0px" y="0px"
	 viewBox="0 0 46 46" style="enable-background:new 0 0 46 46;" xml:space="preserve">
<style type="text/css">
	.st0{fill:#FFFFFF;}
</style>
<title>زيوت</title>
<path class="st0" d="M46,16.2c-0.2,0.6-0.4,1.2-0.8,1.6c-0.2,0.2,0,0.4,0.1,0.6c0.9,2,0.2,4.1-1.7,5.1c-0.7,0.4-1.4,0.3-2.2,0.2
	c-0.9-0.1-1.9-0.2-2.8-0.4c-0.4-0.1-0.4,0.1-0.4,0.4c0,1-0.1,1.9-0.5,2.8c-0.5,1.2-1.3,2-2.5,2.4c-5.5,2-11,3.9-16.4,6
	c-2.6,1-4.6,0.3-6.5-1.5c-0.5-0.5-0.7-0.5-1.1,0c-0.6,0.7-1.3,1.4-1.9,2.1c-0.9,1-2,1.3-3.2,1.1c-1.5-0.3-2.5-1.2-3-2.6
	c-0.2-0.5-0.4-0.7-0.9-0.8c-2-0.5-2.9-3.1-1.6-4.7c0.3-0.3,0.2-0.5,0.1-0.9c-0.7-1.4-0.5-2.8,0.5-4.1C2,22.5,3,22.1,4.4,22.5
	c1,0.3,2,0.4,3,0.7c0.6,0.2,0.6,0,0.6-0.5c0-1.2,0.2-2.4,0.8-3.4c0.6-1,1.4-1.8,2.5-2.2c5.8-2.1,11.6-4.2,17.4-6.3
	c1.4-0.5,2.7-0.1,3.9,0.7c0.6,0.4,1.2,1,1.7,1.6c0.3,0.5,0.5,0.4,0.8,0c0.5-0.8,1.1-1.5,1.7-2.3c1.2-1.7,3.4-2,5-0.6
	c0.7,0.6,1.1,1.3,1.4,2.2c0.1,0.2,0.1,0.4,0.4,0.4c1.4,0.3,2.2,1.2,2.5,2.5c0,0,0.1,0.1,0.1,0.1C46,15.6,46,15.9,46,16.2z
	 M28.8,29.2c0-0.2-0.2-0.3-0.3-0.4c-4.2-3.6-8.4-7.2-12.6-10.9c-0.3-0.2-0.5-0.3-0.8-0.1c-1.1,0.4-2.1,0.8-3.2,1.2
	c-0.3,0.1-0.6,0.3-0.9,0.6c-0.3,0.3-0.4,0.6,0,0.9c1,0.8,2,1.6,3,2.5c3.1,2.6,6.2,5.2,9.3,7.8c0.2,0.2,0.4,0.4,0.8,0.3
	C25.6,30.4,27.2,29.8,28.8,29.2z M35.7,26.1c0-0.2-0.2-0.3-0.3-0.3c-4.3-3.5-8.5-6.9-12.8-10.4c-0.2-0.2-0.4-0.2-0.7-0.1
	c-1.2,0.5-2.5,0.9-3.7,1.4c-0.5,0.2-0.4,0.3-0.1,0.6c4.2,3.6,8.5,7.3,12.7,10.9c0.1,0.1,0.3,0.3,0.5,0.2c1.3-0.5,2.6-1,3.8-1.5
	C35.4,26.7,35.6,26.4,35.7,26.1z M3.9,31.3c0.9-0.1,1.4,0.6,1,1.5c-0.1,0.3-0.3,0.6-0.1,1c0.5,0.7,1.1,1.1,1.9,1.2
	c0.3,0,0.5-0.1,0.7-0.3c0.9-1,1.8-2,2.7-2.9c0.2-0.3,0.3-0.4,0.1-0.8c-0.9-1.6-1.6-3.2-1.9-5c-0.1-0.3-0.2-0.5-0.6-0.6
	c-1.4-0.3-2.7-0.6-4.1-1c-0.3-0.1-0.5-0.1-0.7,0.1c-0.6,0.5-0.7,1.2-0.8,1.9c0,0.6,0.3,0.8,0.8,1c0.4,0.1,0.6,0.5,0.6,0.9
	c0,0.4-0.2,0.7-0.6,0.9c-0.1,0.1-0.3,0.1-0.4,0.2C2,29.6,1.8,30.2,2,30.7c0.2,0.5,0.8,0.9,1.4,0.7C3.6,31.4,3.8,31.4,3.9,31.3z
	 M41.2,12.7c0-0.3-0.1-0.5-0.3-0.7c-0.3-0.3-0.6-0.5-1-0.7c-0.7-0.4-1.1-0.3-1.5,0.3c-0.8,1.1-1.6,2.1-2.4,3.2
	c-0.3,0.3-0.3,0.6-0.1,1c0.8,1.5,1.4,3.1,1.7,4.8c0.1,0.5,0.4,0.7,0.9,0.8c1.2,0.1,2.4,0.3,3.6,0.5c0.2,0,0.4,0,0.6-0.1
	c0.7-0.4,0.9-1.2,1-1.9c0.1-0.6-0.3-0.9-0.8-1.1c-0.8-0.4-0.8-1.3,0-1.8c0.2-0.1,0.4-0.2,0.6-0.3c0.4-0.3,0.6-0.7,0.5-1.2
	c-0.1-0.5-0.5-0.8-1-0.9c-0.3-0.1-0.5,0-0.7,0.1c-0.5,0.2-0.8,0.1-1.1-0.3c-0.3-0.3-0.3-0.7-0.1-1.1C41.1,13.1,41.2,12.9,41.2,12.7z
	 M10,22.2c-0.1,1.4,0.1,2.7,0.5,3.9c0.7,2.4,1.7,4.6,3.6,6.4c1,1,2.2,1.4,3.6,0.8c1.1-0.5,2.2-0.8,3.3-1.2c0.4-0.2,0.5-0.3,0.1-0.6
	c-3.2-2.7-6.4-5.4-9.6-8.1C11,23,10.5,22.7,10,22.2z M24.5,14.3c3.9,3.2,7.7,6.3,11.7,9.5c0-0.4,0-0.7,0-0.9c-0.3-2.1-0.8-4.1-1.8-6
	c-0.7-1.4-1.4-2.7-2.6-3.7c-0.6-0.5-1.2-1-2-0.7C28,13,26.3,13.7,24.5,14.3z"/>
</svg>
