<svg xmlns="http://www.w3.org/2000/svg" viewBox="0 0 491.5 349.32"><defs><style>.cls-1{fill:#3c92ca;}.cls-2{fill:#2c2f33;}</style></defs><title>Asset 6</title><g id="Layer_2" data-name="Layer 2"><g id="Layer_1-2" data-name="Layer 1"><path class="cls-1" d="M180.12,334.66c-1.56,4.21,4.14,11-4.5,13.53-11.47,3.39-28.83-1.1-33.46-9.84-3.37-6.34-5.48-13.37-7.83-20.2-5-14.45-15.39-19-28.79-12.45-30.51,15-34.91,14.15-57.64-10.77-16.45-18.05-16.84-20.9-5.71-42.55,10.64-20.73,5.91-31.51-16.91-38.48C1.05,206.49,0,205.15,0,180.18c0-3.83,0-7.67.18-11.5,1-22.32,2.53-24.27,24-31.53,23.58-8,27.48-15.37,15.08-37.41C29.94,83.21,30.77,70.47,45,58.17c6.42-5.55,12.32-11.71,18.36-17.69,6.22-6.17,13.22-7.24,21-3.52,6.54,3.11,13,6.49,19.62,9.31,10.72,4.53,20.5.21,24.64-10.52C142.72-.68,142.72-.68,181.91.23c19.43.45,22.79,3,28.93,22,1,3.23,2.27,6.42,3.57,9.56,6,14.39,15.1,17.69,29.49,10.74,29.61-14.32,29.61-14.32,53.16,9.34,1.8,1.82,3.59,3.64,5.34,5.5,14.19,15.13,14.34,16,5.89,34.59-1.94,4.27-3.79,8.59-6,12.73-3.42,6.47-1.25,12.14,1.41,18.24,1.76,4,10,5,6.34,10.86-4,6.43-9.43,12.52-16.42,15.68-5.64,2.55-9.42-2-12-6.85-9.35-17.95-16-35.9-1.89-54.79,5.48-7.34,2-13.23-3.79-18.93s-11.48-7.66-18-2.35c-19.43,15.87-38.2,7.61-56.78-1.48-8.73-4.27-8.87-14.11-11.9-21.8-3.3-8.36-6.13-15-17.45-14.95-11.61,0-15.26,6.83-16.44,15.57-3.28,24.25-23.68,28.1-41.12,34.48-8.32,3-15.79-4.93-23.58-8.12-6.39-2.61-12.08-7.94-19.31,0-6.42,7-10.92,13.63-4.27,22,14.16,17.91,7.1,34.94-.94,52.28C61.18,155.38,50,156,41,160.2c-4.88,2.3-11.11,2.86-12.17,9.8-1.41,9.24-.74,18.14,10.9,19.09,28.67,2.34,30.56,27.17,38.63,46.08,3.79,8.89-4.34,16.92-9,24.29-5.7,9.11-3.92,15.4,3.93,21.94,5.45,4.55,10.6,5.91,16,1.37,19.64-16.65,38.88-8.5,57.77,1,8.42,4.23,9,14,12,21.85C161.84,313,164.1,320,174,320.54S179.7,328.91,180.12,334.66Z"/><path class="cls-2" d="M209.1,348.15c-11-.16-17.61-8-14.81-18.31,7.25-26.67,15.19-53.17,23.05-79.68,1.59-5.38,5.2-9.74,9.15-13.69q81.6-81.66,163.26-163.27c6.32-6.3,12.91-12.35,19.56-18.31s13.77-6.58,20.43,0c19.09,18.84,38.19,37.67,57,56.81,7.41,7.55,5.66,15.14-1.5,22.33-26.43,26.56-52.58,53.37-79.08,79.85-33.69,33.66-67.67,67-101.37,100.69-5.25,5.23-10.82,9.33-18.06,11.4-24.15,6.86-48.22,14-72.34,21C212.35,347.56,210.25,347.9,209.1,348.15Zm63.66-47c6.62-.55,13.15-6.56,19.55-13q59.9-60,119.92-119.87c15.51-15.46,15.58-15.37-.36-31.41q-5.4-5.43-10.68-11c-11.25-11.77-11.93-11.88-23.05-.8-41.25,41.12-82.33,82.42-123.73,123.4-19.64,19.44-19.26,26.66.15,42.9C259.23,295.37,261.86,302.5,272.76,301.17Zm148.07-215c-4.54.13-6.91,2.39-8.78,5.39-2,3.22-.34,5.65,1.85,7.87,9.23,9.34,18.6,18.53,27.68,28,4.35,4.54,8,3.53,11.86-.32,4.13-4.06,2.47-7.45-.94-10.85-8.7-8.68-17.3-17.45-26.06-26.07A40.34,40.34,0,0,0,420.83,86.21Z"/><path class="cls-1" d="M178,253.87c-46,.19-82.81-35.21-83.28-77.57C94.17,132,130.08,95.05,174,94.77c42.43-.27,79.09,35.84,79.72,78.65.17,11.93-3.42,21.94-12.51,30.73-13.35,12.93-27.65,24.95-37.78,41.21C197.5,254.93,185.19,252.49,178,253.87Zm-3.35-28.56c28.88,0,50.42-21.63,50.7-51,.27-28.83-21.69-50.82-50.83-50.91-29.68-.1-51.42,21.81-51.35,51.73C123.19,203.62,145.4,225.26,174.6,225.31Z"/></g></g></svg>