<svg xmlns="http://www.w3.org/2000/svg" viewBox="0 0 475.11 491.34"><defs><style>.cls-1{fill:#2c2f33;}.cls-2{fill:#3c92ca;}</style></defs><title>Asset 1</title><g id="Layer_2" data-name="Layer 2"><g id="Layer_1-2" data-name="Layer 1"><g id="Layer_1-2-2" data-name="Layer 1-2"><path class="cls-1" d="M336.5,206.55h-182c-10.84,0-21.72.45-32.5,0-6.2-.41-16.58,4.28-16.88-6.65s10.08-7.26,16.33-7.41c17.28-.4,34.61,0,52.44,0-.25-5.49-4.23-6.8-6.8-9.07-46.2-41.36-49.93-109.53-7.61-152.3a103.39,103.39,0,0,1,146.2-1.67c2.33,2.28,4.56,4.67,6.66,7.16,3.53,4,5.44,11.08,13.2,3.17,3.93-4,10.68-.55,10.48,6.25-.4,12,5.54,26.5-2.92,35.27s-18.89-2.92-28.62-5c-5.74-1.11-13.7-2.17-11.89-10.68C294.69,55.5,303.1,61.4,309,61.15c-15.62-39.6-71.29-57.89-113.72-37.34a88.31,88.31,0,1,0,125,93.76c.66-4.18,1.31-8.36,1.61-12.59s1.92-8.62,7.21-8.67c6.3,0,7.4,4.54,7.3,9.73A100.73,100.73,0,0,1,304,178.74c-3.68,3.57-7.71,6.8-13.45,11.79h54.06s.55-1.31,0-1.87c-3.18-4.63-11.14-8.71-4.54-15.11s11.09.3,15.72,4.08c27.11,21.81,27.11,21.86-2.67,39.85-4.23,2.52-8.11,7.36-13.9,3.73S337.87,211.59,336.5,206.55Z"/><path class="cls-2" d="M136.29,271.34c18.84,0,37.68-.3,56.48,0,7.7,0,12.74-.71,11.89-10.33s5.49-11.29,12.94-10.08c12.25,1.77,15.92-3.83,14.46-15.11a22.65,22.65,0,0,1,.71-9.72,6.3,6.3,0,0,1,7.72-4.45h0c2.82.66,5.34,2,5.54,5.49a35.7,35.7,0,0,1,0,7c-1.56,12.09,1.81,19,15.77,16.72,8.06-1.31,13,2.37,11.94,11.09s4.48,9.42,11.29,9.37c37.63,0,75.32.6,113-.41,14.76-.4,19.2,4.64,17.94,18.65-1.06,11.68,0,23.52,0,35.26,0,5,0,10.08-6.65,10.38-7.31.3-7.76-5-7.76-10.73,0-9.42-.3-18.84,0-28.21.3-7-1.67-10.08-9.37-10.08q-54.31.36-108.73,0c-7.55,0-10.07,3-9.52,10.08.71,8.61-3.78,11.48-12,11.28-15.11-.35-30.23-.3-45.34,0-8.17,0-12.95-2.92-12.3-11.33s-3.62-10.08-10.93-10.08c-34.36.25-68.77.4-103.08,0-9.67,0-12.14,3.68-11.59,12.49s0,18.85,0,28.22c0,5-2.11,8.46-7.2,8.71s-7.46-3.77-7.56-8.36c-.25-15.52-.35-31,0-46.55,0-8.26,6-9.27,12.85-9.17C96.74,271.49,116.54,271.34,136.29,271.34Zm103-6.45c-5,2.72-13.6-3.68-18.44,3.32a15.83,15.83,0,0,0,13.4,24.34,69.26,69.26,0,0,1,9.77,0c12.75,2.06,15.12-3.78,15.52-15.62C259.77,260.2,248.29,266.55,239.27,264.89Z"/><path class="cls-2" d="M25.2,475.69a32.33,32.33,0,0,1,1.05-8.37c9.58-22,.41-37.08-17.13-49.88-4.58-3.37-11-7.25-8.61-14.4s9.57-6.55,14.61-6.3c25.19,1.16,39.6-11.64,47-34.56,1.56-5,3.67-10.63,9.82-10.74s8.62,5.5,10.08,10.43c7,24.19,22.67,35.88,48.16,34.82,4.64,0,11.19,0,13.45,5.74,2.62,6.8-3.72,9.77-7.3,13.86a6.5,6.5,0,0,1-1,.95c-20.15,12.85-25.79,30.23-17.38,52.65,1.76,4.74,3.73,11.34-1.36,15.82-5.85,5-11.34,0-15.12-3-20.8-16.78-40.35-12.6-61.11.91C28.92,491.46,24.59,488.28,25.2,475.69Zm93.45-65.15C93.46,412.31,80.16,399,71.4,377.39c-6.7,24-22.52,33.61-46.66,33.81C46.36,424.6,49.28,443,43,465.81c19.75-16.42,38.74-13.9,58.6-.86C93.31,442.08,98.8,424.9,118.65,410.54Z"/><path class="cls-2" d="M339,406a57.8,57.8,0,0,1,38.85-55.07,60.15,60.15,0,0,1,67.21,19.3,56,56,0,0,1,2.47,67c-8,11.29-4.59,15.12,6.75,18,8.91,2.12,13.85,9.57,19,16a13.4,13.4,0,0,1-18.79,18c-6.85-5.59-14.11-10.63-16.48-20.46s-7.4-13.4-18.64-9.17C379.63,474.63,339,447.07,339,406Zm102.68,0A43.73,43.73,0,0,0,398,362.73a43.28,43.28,0,1,0-.76,86.56,43.74,43.74,0,0,0,44.44-43V406Z"/></g></g></g></svg>