<svg xmlns="http://www.w3.org/2000/svg" viewBox="0 0 491.5 362.81"><defs><style>.cls-1{fill:#3c92ca;}.cls-2{fill:#2c2f33;}</style></defs><title>Asset 2</title><g id="Layer_2" data-name="Layer 2"><g id="Layer_1-2" data-name="Layer 1"><g id="Layer_1-2-2" data-name="Layer 1-2"><path class="cls-1" d="M207.29,362.34H51a51.19,51.19,0,0,1-50.79-43,29.73,29.73,0,0,1,26-33c.46-.06.91-.1,1.37-.13h10.7c2.23,0,2.78-.7,2.73-2.83-.3-13.82,0-27.6,0-41.42-.25-24.78,0-49.56,0-74.33,0-35.13.3-70.27,0-105.35A29.43,29.43,0,0,1,69.76,32.17q.7,0,1.41,0h89.19a7.47,7.47,0,0,0,4.91-2.23,122.64,122.64,0,0,1,160.59,0,6.91,6.91,0,0,0,5,1.84h90.23a28.63,28.63,0,0,1,29.71,27.53c0,.43,0,.87,0,1.31V283.2c0,2.43.9,2.83,3,2.83a56.59,56.59,0,0,1,16.8,1.58,29.39,29.39,0,0,1,19.82,36,50,50,0,0,1-40.59,38.05,135.3,135.3,0,0,1-29.08.7,7.83,7.83,0,0,1-7.09-8.51v0A8.08,8.08,0,0,1,421.9,346c7.58,0,15.26.5,22.74-.34a33.65,33.65,0,0,0,29.73-25.27,13.13,13.13,0,0,0-4-14.87,12.78,12.78,0,0,0-8.48-3.07H373.43c-1.63,0-2.18.69-2.62,2.23A41.82,41.82,0,0,1,360.15,323a21.75,21.75,0,0,1-15.26,6.1H162.79c-10.46,0-16.85-6.25-21.66-14.87a43.36,43.36,0,0,1-4.16-9.91c-.44-1.58-1.24-2-2.77-2H30.14A13,13,0,0,0,17.6,320.57a35.38,35.38,0,0,0,35.23,25.07q122.06-.3,244.1,0h69c5.85,0,9.37,3.07,9.37,8.17a8.28,8.28,0,0,1-8.16,8.39,7.52,7.52,0,0,1-1.16-.06Zm105.1-102c.59.64,1.33.4,2,.4h43.26a16,16,0,0,1,2.77,0,7.92,7.92,0,0,1,6.74,7,8.32,8.32,0,0,1-4.66,8.57,10.63,10.63,0,0,1-4.95.75H133a8.22,8.22,0,0,1-1.28-16.4,6.84,6.84,0,0,1,1.28,0H272.4a5,5,0,0,0,2.92-.5,128.1,128.1,0,0,0,14.87-10.8,89.8,89.8,0,0,0,16.5-114,83.1,83.1,0,0,0-90.43-37.91A87.66,87.66,0,0,0,153.47,200.4a92.92,92.92,0,0,0,7.14,21.41,8.24,8.24,0,1,1-14.07,8.57h0c-1.54-1.93-3-3.86-4.41-5.9a146.53,146.53,0,0,1-24-109.75A141.66,141.66,0,0,1,145.5,51.2c.59-.74,1.63-1.34,1.33-2.67H71.91a13.22,13.22,0,0,0-14.37,12,12.43,12.43,0,0,0,0,2.44c.35,10.21,0,20.47,0,30.68V283.1c0,2.88.89,3.27,3.47,3.27h79.28A10.71,10.71,0,0,1,152,295.93V296a34.39,34.39,0,0,0,5.6,13.48,7.7,7.7,0,0,0,6.78,3.41H344.05a7.56,7.56,0,0,0,6.49-3.22,33.35,33.35,0,0,0,5.9-13.67,10.49,10.49,0,0,1,11.29-9.65l.4,0h61.45c4.6,0,4.6,0,4.6-4.46V61.9A12.27,12.27,0,0,0,423,48.59a13,13,0,0,0-2,0H347.37c-1,0-2.18-.39-3.17.4C396.28,114.88,381.41,215.37,312.39,260.36ZM267.79,19a3.63,3.63,0,0,0-2.53.84,122.51,122.51,0,0,0-46.58,57.78c-1,2.73-.29,2.78,2,2.38a91.81,91.81,0,0,1,47.37,4.16,6.77,6.77,0,0,0,6.84-1.09,200.25,200.25,0,0,1,50.84-26c2.72-.89,2.52-1.59.79-3.47a114.75,114.75,0,0,0-41.77-29.39,105.07,105.07,0,0,0-17.1-5.2Zm-26.06-1.83-.3-.6c-4,.45-7.93.8-11.89,1.29a46.29,46.29,0,0,0-5,1,111.69,111.69,0,0,0-67.79,44.6A7.69,7.69,0,0,0,155.21,68a207.5,207.5,0,0,0,1.34,29.38c.64,5.75,1.48,11.5,2.67,17.25a5.6,5.6,0,0,0,.74-.35,101.26,101.26,0,0,1,38.11-28,3,3,0,0,0,1.78-2.18,172.67,172.67,0,0,1,5.75-17.44,135.08,135.08,0,0,1,30.53-44ZM358.52,134.94a36.71,36.71,0,0,0-.45-9.36,128.31,128.31,0,0,0-17.79-53.27,2.77,2.77,0,0,0-3.66-1.41l-.05,0a174.72,174.72,0,0,0-46.14,21.61c-1.68,1-1.88,1.58,0,2.82a99.51,99.51,0,0,1,30.18,31.32,3.58,3.58,0,0,0,3.12,1.83c4.46.35,8.92.94,13.38,1.54A145.26,145.26,0,0,1,358.52,134.94Zm-29.73,88.6a27,27,0,0,0,2-2.28,128.46,128.46,0,0,0,27.1-66.55c0-1.28,0-2.32-1.38-2.87a124.38,124.38,0,0,0-26.71-6.19,111.82,111.82,0,0,1-.79,77.89Zm-189.34-126a126.94,126.94,0,0,0-3.77,71.75c.25-1.14.5-2,.6-2.92A89.31,89.31,0,0,1,140.74,148,61.71,61.71,0,0,0,146,134a53.81,53.81,0,0,0-2.92-14.86C141.53,112.2,140.49,104.87,139.45,97.53Z"/><path class="cls-2" d="M228.15,232.56a32.9,32.9,0,1,1,15.46-61.94c1.68.94,2.38.6,3.47-.64,11.2-12,22.49-24,33.74-36.08a10,10,0,0,1,5.25-3.52,8.23,8.23,0,0,1,7.73,13.78c-4.95,5.4-9.91,10.75-14.86,16.15-6.74,7.14-13.38,14.32-20.17,21.46a3,3,0,0,0-.64,4,32.81,32.81,0,0,1-15.61,43.69,32.34,32.34,0,0,1-9.17,2.79A43.11,43.11,0,0,1,228.15,232.56Zm-1-16.5a16.45,16.45,0,0,0,17.51-15.31l0-.55a16.48,16.48,0,1,0-17.54,15.86Z"/></g></g></g></svg>