<svg id="Group_6131" data-name="Group 6131" xmlns="http://www.w3.org/2000/svg" width="12.264" height="15.182" viewBox="0 0 12.264 15.182">
  <g id="Path_7067" data-name="Path 7067" transform="translate(0 8.482)">
    <path id="Path_7192" data-name="Path 7192" d="M1465.512,464.334l-2.05,0-.718-.078c-.538-.057-1.095-.116-1.642-.19a6.557,6.557,0,0,1-2.055-.579,1.27,1.27,0,0,1-.8-1.282c.019-.42.015-.851.011-1.267,0-.282-.005-.564,0-.846a2.179,2.179,0,0,1,2.132-2.31c.179-.017.359-.033.538-.048.3-.026.616-.052.92-.09a.539.539,0,0,1,.425.091.563.563,0,0,1,.163.431,14.4,14.4,0,0,0,.422,3.324,3.117,3.117,0,0,0,.728,1.426c0-.389,0-.778,0-1.167,0-.44,0-.881,0-1.321,0-.139-.01-.144-.059-.166l-.016-.008a.694.694,0,0,1-.356-.638.866.866,0,0,1,1.063-1.13h.131c.085,0,.17,0,.255,0h.06a.831.831,0,0,1,.906.435l.009.022a1.242,1.242,0,0,1-.347,1.324l-.015.012a.063.063,0,0,0-.018.017.364.364,0,0,0,0,.082v.054c0,.824,0,1.659,0,2.483a2.515,2.515,0,0,0,.582-.981,12.021,12.021,0,0,0,.561-3.682.658.658,0,0,1,.187-.511.626.626,0,0,1,.5-.087c.336.051.687.077,1.025.1.156.011.311.022.466.036a2.1,2.1,0,0,1,1.969,2.042c.016.505.014,1.018.012,1.513,0,.362,0,.725,0,1.087a1.163,1.163,0,0,1-.761,1.061,7.93,7.93,0,0,1-2.441.646l-.17.026a6.292,6.292,0,0,1-.693.055,3.977,3.977,0,0,0-.9.106Zm-2.01-.476h1.947a4.51,4.51,0,0,1,.98-.114,5.842,5.842,0,0,0,.641-.05l.17-.026a7.455,7.455,0,0,0,2.3-.6c.373-.189.5-.353.5-.63-.005-.365,0-.731,0-1.1,0-.491,0-1-.012-1.5a1.631,1.631,0,0,0-1.531-1.583c-.158-.014-.311-.025-.464-.036-.348-.025-.709-.051-1.064-.106a.586.586,0,0,0-.126-.009.792.792,0,0,0-.018.159,12.777,12.777,0,0,1-.585,3.814,2.976,2.976,0,0,1-.784,1.25l-.035.033a.44.44,0,0,1-.466.146.369.369,0,0,1-.226-.453.359.359,0,0,0,0-.037c0-.86,0-1.735,0-2.6v-.041a.532.532,0,0,1,.2-.481.766.766,0,0,0,.212-.8c-.065-.136-.162-.154-.456-.146h-.064c-.089,0-.177,0-.265,0h-.129c-.2,0-.464.009-.537.087s-.064.352-.051.551v.033a.217.217,0,0,0,.106.2.582.582,0,0,1,.325.6q0,.659,0,1.318c0,.426,0,.852,0,1.278a.313.313,0,0,0,0,.038.37.37,0,0,1-.226.451.436.436,0,0,1-.464-.147l-.03-.028a3.409,3.409,0,0,1-.945-1.723,14.8,14.8,0,0,1-.439-3.433.706.706,0,0,0-.006-.074l-.048,0c-.314.039-.632.066-.938.092-.177.015-.355.03-.532.047a1.722,1.722,0,0,0-1.7,1.843c0,.278,0,.557,0,.835,0,.423.008.86-.011,1.293a.8.8,0,0,0,.528.833,6.091,6.091,0,0,0,1.907.536c.546.073,1.1.132,1.634.189Z" transform="translate(-1458.249 -457.634)" fill="#fff"/>
  </g>
  <g id="Path_7069" data-name="Path 7069" transform="translate(2.33 0)">
    <path id="Path_7194" data-name="Path 7194" d="M1476.759,413.11a2.672,2.672,0,0,1-1.473-.472,4.816,4.816,0,0,1-2.327-3.935v-.017a5.12,5.12,0,0,1,.986-3.092,3.6,3.6,0,0,1,2.835-1.506h.019a3.6,3.6,0,0,1,2.842,1.545,4.857,4.857,0,0,1-1.046,6.789c-.121.088-.247.172-.377.25A2.833,2.833,0,0,1,1476.759,413.11Zm-3.325-4.418a4.358,4.358,0,0,0,2.112,3.549,2.119,2.119,0,0,0,2.428.023c.116-.07.231-.146.339-.225a4.381,4.381,0,0,0,.945-6.124,3.091,3.091,0,0,0-2.462-1.352h-.017a3.087,3.087,0,0,0-2.456,1.319A4.666,4.666,0,0,0,1473.434,408.692Zm3.339,3.235a1.612,1.612,0,0,1-.868-.268,3.521,3.521,0,0,1-1.734-2.946h0a2.048,2.048,0,0,1,.6-1.563.628.628,0,0,1,.469-.226.507.507,0,0,1,.383.2,3.882,3.882,0,0,0,2.882,1.126l.3.032a.673.673,0,0,1,.479.216.643.643,0,0,1,.087.5,3.6,3.6,0,0,1-1.672,2.631A1.676,1.676,0,0,1,1476.773,411.927Zm-2.127-3.228a3.053,3.053,0,0,0,1.506,2.554,1.094,1.094,0,0,0,1.286-.024,3.129,3.129,0,0,0,1.457-2.292.439.439,0,0,0,.006-.154.846.846,0,0,0-.154-.031l-.293-.032a4.3,4.3,0,0,1-3.2-1.3.091.091,0,0,0-.031-.028.247.247,0,0,0-.113.081,1.579,1.579,0,0,0-.468,1.213l-.232.014Z" transform="translate(-1472.958 -404.088)" fill="#fff"/>
  </g>
</svg>
