<svg id="Group_35752" data-name="Group 35752" xmlns="http://www.w3.org/2000/svg" width="41.087" height="42.315" viewBox="0 0 41.087 42.315">
  <path id="Path_37764" data-name="Path 37764" d="M-360.117,38.111c-.631.221-.625-.378-.767-.665-1.4-2.817-2.744-5.662-4.162-8.471a1.881,1.881,0,0,1,.034-1.877q7.336-14.85,14.625-29.724a1.663,1.663,0,0,1,1.766-1.112c2.533.068,5.073.1,7.6-.013a1.976,1.976,0,0,1,2.243,1.343c.28.611.54,1.232.84,1.833q4.124,8.265,8.253,16.528a2.25,2.25,0,0,1,.286,2.308c-1.425,2.7-2.8,5.425-4.082,8.19a2.087,2.087,0,0,1-2.247,1.373c-6.005-.06-12.012-.028-18.017-.033-.731,0-1.389-.051-1.8.823C-357.025,31.8-358.585,34.948-360.117,38.111Zm12.183-20.9h8.447c-1.564-2.92-2.71-5.827-4.34-8.5A2.6,2.6,0,0,0-344.755,7c-1.493,2.991-2.969,5.926-4.416,8.876-.218.445-.8,1-.459,1.376A1.312,1.312,0,0,0-347.934,17.214Z" transform="translate(365.281 3.756)" fill="#0e77ff"/>
  <path id="Path_37766" data-name="Path 37766" d="M-264.349,101l.865-.207,6.778-.067,1.852.1a5.433,5.433,0,0,1-.89,2.148,60.186,60.186,0,0,0-3.367,7.046c-.768.812-.792-.121-.961-.455C-261.515,106.713-262.927,103.852-264.349,101Z" transform="translate(295.941 -68.021)" fill="#0e77ff"/>
</svg>
