<svg id="XMLID_228_" xmlns="http://www.w3.org/2000/svg" width="41.677" height="50.999" viewBox="0 0 41.677 50.999">
  <path id="XMLID_229_" d="M30.026,78.975c-4.312,7.482-1.571,18.836,3.2,25.72,2.38,3.442,4.789,6.531,8.09,6.531.062,0,.125,0,.188,0a9.99,9.99,0,0,0,3.754-1,10.281,10.281,0,0,1,4.447-1.054,9.669,9.669,0,0,1,4.233,1.02,8.969,8.969,0,0,0,4.055.972c3.717-.069,6-3.4,8.014-6.344a28.121,28.121,0,0,0,3.511-7.192l.014-.045a.418.418,0,0,0-.222-.513l-.031-.013a10.655,10.655,0,0,1-6.457-9.758A10.969,10.969,0,0,1,68,78.125l.041-.025a.418.418,0,0,0,.119-.587,12.063,12.063,0,0,0-9.488-5.152c-.27-.027-.548-.04-.828-.04a16.539,16.539,0,0,0-5.955,1.487,9.571,9.571,0,0,1-2.852.852,9.332,9.332,0,0,1-2.95-.863,14.3,14.3,0,0,0-5.2-1.321h-.132A12.752,12.752,0,0,0,30.026,78.975Z" transform="translate(-27.875 -60.227)" fill="#0e77ff"/>
  <path id="XMLID_230_" d="M159.726,0a11.644,11.644,0,0,0-7.687,3.943,10.91,10.91,0,0,0-2.762,8.089.418.418,0,0,0,.382.362c.178.014.359.021.54.021a9.85,9.85,0,0,0,7.256-3.722,11.5,11.5,0,0,0,2.7-8.322A.421.421,0,0,0,159.726,0Z" transform="translate(-128.922 0)" fill="#0e77ff"/>
</svg>
