<svg xmlns="http://www.w3.org/2000/svg" width="66.101" height="66.751" viewBox="0 0 66.101 66.751">
  <g id="Group_2233" data-name="Group 2233" transform="translate(0 0)">
    <path id="Path_2737" data-name="Path 2737" d="M-4813.545,851.243c-8.264,0-16.528-.026-24.792.012a6.524,6.524,0,0,1-6.651-6.611c0-.53,0-1.06,0-1.589q0-20.9,0-41.8a6.662,6.662,0,0,1,1.567-4.543,6.308,6.308,0,0,1,4.775-2.257c1.376-.042,2.754-.012,4.132-.012q7.23,0,14.462,0a1.868,1.868,0,0,0,.952-.246q8.064-4.5,16.134-8.98a4.041,4.041,0,0,1,4.216-.222,3.947,3.947,0,0,1,1.527,1.575c1.347,2.419,2.706,4.832,4.024,7.268a1.034,1.034,0,0,0,1.067.617,25.827,25.827,0,0,1,4.653.1,6.214,6.214,0,0,1,5.012,4.263,7.5,7.5,0,0,1,.386,2.6c0,4.521.007,9.041-.015,13.562,0,.5.151.63.623.605.705-.036,1.413,0,2.118-.015.334-.008.466.087.466.447q-.015,7.734,0,15.469c0,.349-.113.461-.458.451-.741-.021-1.484.02-2.225-.016-.434-.021-.521.134-.52.537q.021,6.039.006,12.078a6.446,6.446,0,0,1-2.529,5.344,6.165,6.165,0,0,1-3.871,1.353Q-4801.016,851.247-4813.545,851.243Zm-10.8-54.132-.023-.105h-.45q-6.7,0-13.4,0a3.92,3.92,0,0,0-4.213,4.194q-.005,21.638,0,43.276a4.793,4.793,0,0,0,.163,1.361,3.85,3.85,0,0,0,4.035,2.839q24.683,0,49.367,0a5.678,5.678,0,0,0,1.261-.12,3.919,3.919,0,0,0,2.938-3.958c-.047-4.043-.022-8.087,0-12.13,0-.469-.162-.538-.576-.536-2.86.017-5.721.024-8.581,0a7.855,7.855,0,0,1-6.376-3.008,8.388,8.388,0,0,1-1.578-6.848,7.771,7.771,0,0,1,7.143-6.435c3.141-.086,6.285-.048,9.427-.045.409,0,.541-.1.539-.529q-.024-5.774,0-11.547c0-.421-.117-.576-.531-.522a4.543,4.543,0,0,1-.583,0h-51.434a2.943,2.943,0,0,1-.892-.084,1.242,1.242,0,0,1-.9-.951,1.189,1.189,0,0,1,.39-1.193,1.579,1.579,0,0,1,1.179-.365c2.031,0,4.061-.021,6.091.009a3.411,3.411,0,0,0,2-.512c.8-.513,1.66-.932,2.492-1.394S-4825.184,797.58-4824.346,797.111Zm-.443,3.193c.129.159.261.1.372.1q15.7,0,31.4.009c.429,0,.532-.058.294-.475-.95-1.67-1.873-3.356-2.807-5.034q-1.942-3.49-3.888-6.978a1.357,1.357,0,0,0-2.046-.6c-.141.072-.278.152-.417.229l-18.9,10.512C-4822.116,798.809-4823.446,799.554-4824.789,800.3Zm36.553,29.036c2.1,0,4.2-.006,6.3.006.347,0,.5-.067.494-.46q-.022-5.136,0-10.273c0-.383-.137-.47-.491-.469-3.972.01-7.943-.02-11.915.013-4.487.037-6.6,4.316-5.018,8.034a5.035,5.035,0,0,0,4.963,3.146C-4792.014,829.348-4790.125,829.34-4788.236,829.34Zm1.095-28.926c.653,0,1.308-.025,1.96.009.417.022.445-.126.373-.482a3.825,3.825,0,0,0-3.021-2.847,23.043,23.043,0,0,0-3.278-.086c-.335-.01-.223.159-.13.327.513.925,1.032,1.847,1.532,2.779a.531.531,0,0,0,.552.3C-4788.483,800.405-4787.812,800.414-4787.142,800.414Z" transform="translate(4844.991 -784.504)" fill="#bd9c72"/>
    <path id="Path_2738" data-name="Path 2738" d="M-4374.68,1132.088a2.83,2.83,0,0,1-2.813,2.845,2.828,2.828,0,0,1-2.823-2.778,2.828,2.828,0,0,1,2.783-2.872A2.833,2.833,0,0,1-4374.68,1132.088Z" transform="translate(4429.551 -1092.753)" fill="#bd9c72"/>
  </g>
</svg>
