<svg xmlns="http://www.w3.org/2000/svg" width="48" height="49" viewBox="0 0 48 49">
  <g id="Group_35844" data-name="Group 35844" transform="translate(-0.346 0.359)">
    <ellipse id="Ellipse_202" data-name="Ellipse 202" cx="24" cy="24.5" rx="24" ry="24.5" transform="translate(0.346 -0.359)" fill="#ffb027" opacity="0.15"/>
    <g id="Group_35845" data-name="Group 35845" transform="translate(13.46 14.267)">
      <path id="Path_7301" data-name="Path 7301" d="M1935.755,1341.68a.978.978,0,0,0-.743.211.962.962,0,0,0-.229.7c.018,1.777.015,3.555.012,5.333l0,2.031a1.363,1.363,0,0,1,0,.382,1.408,1.408,0,0,1-.545.94,1.466,1.466,0,0,1-1.1.274l-13.4,0a1.369,1.369,0,0,1-.38,0,1.437,1.437,0,0,1-1.193-1.663v-13.234c0-1.265.467-1.737,1.725-1.737l1.648,0c1.85,0,3.7-.006,5.545.016.8-.021.941-.483.955-.965a.971.971,0,0,0-.22-.728,1.01,1.01,0,0,0-.761-.24c-1.815.016-3.628.011-5.438.013h-1.779a3.232,3.232,0,0,0-.623,0,3.3,3.3,0,0,0-2.976,3.556v13.254a3.477,3.477,0,0,0,0,.669,3.352,3.352,0,0,0,3.3,3.013,3.191,3.191,0,0,0,.329-.017l8.591,0c1.608,0,3.211,0,4.789-.009q.153.005.3,0a3.286,3.286,0,0,0,3.143-3.411c.008-1.114.007-2.229.005-3.344,0-1.38,0-2.762.012-4.143C1936.735,1341.7,1936.121,1341.687,1935.755,1341.68Z" transform="translate(-1916.237 -1332.185)" fill="#efb44b"/>
      <path id="Path_7302" data-name="Path 7302" d="M1934.769,1335.2a2.7,2.7,0,0,0-.825-1.971,2.659,2.659,0,0,0-1.927-.76,2.688,2.688,0,0,0-1.9.82q-3.773,3.771-7.547,7.532a1.745,1.745,0,0,0-.487.821c-.245.958-.487,1.914-.712,2.874a1.143,1.143,0,0,0,.2,1.13.928.928,0,0,0,.684.25,1.98,1.98,0,0,0,.462-.06c.941-.226,1.885-.458,2.81-.69a1.754,1.754,0,0,0,.837-.475l7.612-7.622a2.624,2.624,0,0,0,.792-1.813Zm-2.7-.813a.753.753,0,0,1,.758.53,1.064,1.064,0,0,1-.326.938l-1.138-1.135a1.021,1.021,0,0,1,.67-.332Zm-.933,2.806c-.577.576-1.148,1.151-1.721,1.728-1.4,1.411-2.853,2.869-4.314,4.262a2.3,2.3,0,0,1-1.232.424l-.3.049c.113-.468.217-.886.322-1.3a.719.719,0,0,1,.233-.356q2.924-2.9,5.818-5.829a1.26,1.26,0,0,0,.093-.093.794.794,0,0,1,.066.071C1930.422,1336.508,1930.761,1336.852,1931.134,1337.2Z" transform="translate(-1913.457 -1332.471)" fill="#efb44b"/>
    </g>
  </g>
</svg>
