<svg xmlns="http://www.w3.org/2000/svg" width="134.878" height="134.878" viewBox="0 0 134.878 134.878">
  <g id="dashboard" transform="translate(-1 -1)">
    <path id="Path_37852" data-name="Path 37852" d="M122.825,73.943V31.282a15.22,15.22,0,1,0-17.4-15.054H1v87.018H66.374a34.785,34.785,0,1,0,56.451-29.3ZM120.65,5.351a10.877,10.877,0,1,1-10.877,10.877A10.89,10.89,0,0,1,120.65,5.351ZM5.351,20.579H106.063a15.218,15.218,0,0,0,2.408,4.753L95.167,38.637a6.3,6.3,0,0,0-5.593,0L85.19,34.254a6.465,6.465,0,0,0,.653-2.8,6.526,6.526,0,0,0-13.053,0,6.42,6.42,0,0,0,.655,2.8l-10.91,10.91a6.465,6.465,0,0,0-2.8-.653,6.526,6.526,0,1,0,6.526,6.526,6.42,6.42,0,0,0-.655-2.8l10.91-10.91a6.308,6.308,0,0,0,5.593,0L86.5,41.711a6.465,6.465,0,0,0-.653,2.8,6.526,6.526,0,0,0,13.053,0,6.419,6.419,0,0,0-.655-2.8l13.307-13.305a15.135,15.135,0,0,0,6.927,2.876V70.976a34.6,34.6,0,0,0-43.509,7.151V68.439H61.913V94.544H66.9a34.9,34.9,0,0,0-.524,4.351H5.351ZM92.369,42.334a2.175,2.175,0,1,1-2.175,2.175A2.178,2.178,0,0,1,92.369,42.334ZM77.141,31.456a2.175,2.175,0,1,1,2.175,2.175A2.178,2.178,0,0,1,77.141,31.456ZM61.913,51.035a2.175,2.175,0,1,1-2.175-2.175A2.178,2.178,0,0,1,61.913,51.035Zm39.158,67.439a17.4,17.4,0,1,1,17.4-17.4A17.424,17.424,0,0,1,101.071,118.474ZM70.614,84.257a34.545,34.545,0,0,0-2.587,5.937H66.264V72.79h4.351ZM98.9,70.725v8.7A21.71,21.71,0,0,0,81.255,110l-7.547,4.357A30.352,30.352,0,0,1,98.9,70.725Zm2.175,60.8a30.441,30.441,0,0,1-25.209-13.39l7.577-4.375a21.683,21.683,0,0,0,35.264,0l7.577,4.375A30.441,30.441,0,0,1,101.071,131.527Zm27.363-17.171L120.887,110a21.71,21.71,0,0,0-17.641-30.572v-8.7a30.352,30.352,0,0,1,25.187,43.631Z" transform="translate(0 0)" fill="#acacac"/>
    <path id="Path_37853" data-name="Path 37853" d="M54.053,41A13.053,13.053,0,1,0,67.105,54.053,13.066,13.066,0,0,0,54.053,41Zm0,21.755a8.7,8.7,0,1,1,8.7-8.7A8.711,8.711,0,0,1,54.053,62.755Z" transform="translate(47.018 47.018)" fill="#acacac"/>
    <path id="Path_37854" data-name="Path 37854" d="M5,12H9.351v4.351H5Z" transform="translate(4.702 12.93)" fill="#acacac"/>
    <path id="Path_37855" data-name="Path 37855" d="M9,12H39.456v4.351H9Z" transform="translate(9.404 12.93)" fill="#acacac"/>
    <path id="Path_37856" data-name="Path 37856" d="M5,16H9.351v4.351H5Z" transform="translate(4.702 17.632)" fill="#acacac"/>
    <path id="Path_37857" data-name="Path 37857" d="M9,16H39.456v4.351H9Z" transform="translate(9.404 17.632)" fill="#acacac"/>
    <path id="Path_37858" data-name="Path 37858" d="M5,20H9.351v4.351H5Z" transform="translate(4.702 22.334)" fill="#acacac"/>
    <path id="Path_37859" data-name="Path 37859" d="M9,20H39.456v4.351H9Z" transform="translate(9.404 22.334)" fill="#acacac"/>
    <path id="Path_37860" data-name="Path 37860" d="M5,24H9.351v4.351H5Z" transform="translate(4.702 27.035)" fill="#acacac"/>
    <path id="Path_37861" data-name="Path 37861" d="M9,24H39.456v4.351H9Z" transform="translate(9.404 27.035)" fill="#acacac"/>
    <path id="Path_37862" data-name="Path 37862" d="M5,55.755H18.053V34H5Zm4.351-17.4H13.7V51.4H9.351Z" transform="translate(4.702 38.79)" fill="#acacac"/>
    <path id="Path_37863" data-name="Path 37863" d="M13,53.4H26.053V36H13Zm4.351-13.053H21.7v8.7H17.351Z" transform="translate(14.105 41.141)" fill="#acacac"/>
    <path id="Path_37864" data-name="Path 37864" d="M21,62.807H34.053V28H21Zm4.351-30.456H29.7V58.456H25.351Z" transform="translate(23.509 31.737)" fill="#acacac"/>
  </g>
</svg>
