<svg xmlns="http://www.w3.org/2000/svg" width="113.036" height="123.57" viewBox="0 0 113.036 123.57">
  <g id="Group_35816" data-name="Group 35816" transform="translate(0 0)">
    <path id="Path_37806" data-name="Path 37806" d="M520,79.475a69.578,69.578,0,0,0,6.97.428c3.932.287,7.864.545,11.781,1A14.387,14.387,0,0,1,551.4,93.941c.374,4.853.574,9.719.8,14.581.045.982.258,1.283,1.32,1.085a11.4,11.4,0,0,1,9.2,2.263,1.815,1.815,0,1,1-2.1,2.924c-5-3.867-12.2-1.046-13.412,5.47-2.306,12.429-.667,24,6.792,34.461.4.556.85,1.075,1.212,1.652a1.613,1.613,0,0,1-.179,2.014,1.493,1.493,0,0,1-1.827.556c-.975-.467-1.016-.008-1.055.771-.227,4.621-.424,9.245-.755,13.858a14.361,14.361,0,0,1-12.279,12.862,224.584,224.584,0,0,1-28.065,1.468c-.555,0-1.111,0-1.7,0,.019.576.445.809.716,1.118,7.2,8.216,16.425,11.464,27.065,10.207,15.712-1.856,27.224-10.008,34.166-24.3,3.218-6.624,2.756-13.5.7-20.363a51.571,51.571,0,0,0-5.467-12.037,24.433,24.433,0,0,1-3.126-18.542,14.138,14.138,0,0,0,.293-3.953,1.82,1.82,0,0,1,1.636-2.13,1.88,1.88,0,0,1,1.962,1.863,13.782,13.782,0,0,1-.288,4.674,21.375,21.375,0,0,0,2.869,16.647,47.746,47.746,0,0,1,7.182,20.276,28.7,28.7,0,0,1-3.889,17.963c-9.053,15.284-22.44,23.49-40.3,23.71-11.445.141-20.517-4.951-27.454-13.922a3.385,3.385,0,0,0-2.921-1.443,163.86,163.86,0,0,1-16.722-1.217,14.489,14.489,0,0,1-12.626-13.73c-.154-3.175-.353-6.347-.491-9.522a1.063,1.063,0,0,0-.814-1.118c-8.508-3.183-10.315-13.193-3.435-19.052.526-.448.593-.613.014-1.1-6.687-5.651-5.217-15.435,2.832-18.864a1.075,1.075,0,0,0,.778-1.148c.028-2.012.064-4.025.17-6.033a1.361,1.361,0,0,0-1.031-1.564,10.46,10.46,0,0,1-6.9-9.622c-.231-4.639,1.873-8.118,5.969-10.355a1.956,1.956,0,0,1,.655-.3c1.989-.212,2.515-1.547,3.045-3.285,1.8-5.9,6.889-9.5,13.649-10.075,5.332-.451,10.662-.907,16.013-1.049a6.166,6.166,0,0,0,.938-.167Zm25.754,34.846a15.225,15.225,0,0,1,2.569-2.491c.41-.273.4-.651.38-1.06-.294-5.544-.407-11.1-.92-16.629a10.734,10.734,0,0,0-9.34-9.611c-4.792-.6-9.609-.924-14.43-1.159a251.307,251.307,0,0,0-36.406.959c-6.126.59-10.476,4.6-10.8,10.209-.378,6.506-.74,13.016-.948,19.53q-.937,29.338.92,58.638a10.9,10.9,0,0,0,9.243,10.129c4.664.653,9.366.92,14.066,1.159a251.923,251.923,0,0,0,37.246-.948c5.948-.578,10-4.377,10.5-10.351.447-5.41.556-10.847.892-16.268a8.11,8.11,0,0,0-1.206-5.374,22.814,22.814,0,0,1-1.449-2.89c-.318,5.916-.649,11.739-.944,17.565a12.457,12.457,0,0,1-10.837,12.014,205,205,0,0,1-27.354,1.136c-1.93-.047-3.862-.121-5.788-.254a1.806,1.806,0,0,1-1.9-1.9c.049-1.055.828-1.692,2.076-1.693.241,0,.483.017.724.029a201.632,201.632,0,0,0,31.577-.9,8.674,8.674,0,0,0,7.835-8.144c.294-4.818.555-9.641.723-14.465q.869-24.991-.694-49.95a8.744,8.744,0,0,0-7.059-8.242c-1.177-.239-2.4-.245-3.594-.4a1.143,1.143,0,0,0-1.273.613,7.2,7.2,0,0,1-5.317,3.378c-1.354.175-2.718.3-4.081.39a120.985,120.985,0,0,1-18.447-.211c-2.821-.236-5.134-1.231-6.692-3.674-.209-.328-.4-.564-.846-.521a23.637,23.637,0,0,0-4.889.666c-3.835,1.21-5.908,4.275-6.178,9.1-.682,12.217-1.047,24.44-.887,36.678.117,8.974.369,17.943,1.046,26.893a8.543,8.543,0,0,0,7.68,7.881c1,.122,2.006.172,3,.329a1.761,1.761,0,0,1,1.683,1.97,1.735,1.735,0,0,1-2.027,1.592c-1.124-.06-2.247-.171-3.364-.314a12.267,12.267,0,0,1-10.577-11.058c-.63-8.106-.877-16.23-1.019-24.358-.242-13.887.037-27.763,1.025-41.619a12.032,12.032,0,0,1,9.658-10.822c1.966-.383,3.989-.474,5.985-.709a2.011,2.011,0,0,1,2.4,1.511,3.932,3.932,0,0,0,3.717,2.769c.641.06,1.283.106,1.924.161a107.171,107.171,0,0,0,20.125-.194,3.833,3.833,0,0,0,3.485-2.741,2.011,2.011,0,0,1,2.391-1.515c1.48.158,2.959.319,4.442.446a12.349,12.349,0,0,1,10.858,9.079,37.763,37.763,0,0,1,.694,7.312C545.519,108.672,545.609,111.357,545.753,114.321ZM472.4,104.02h.23c.1-1.962.183-3.925.317-5.885.055-.8-.123-1.034-.906-.634a7.086,7.086,0,0,0-4.165,6.288,7.194,7.194,0,0,0,3.639,6.738c.636.4.9.307.893-.5C472.383,108.026,472.4,106.023,472.4,104.02Zm-.4,41.16a7.194,7.194,0,0,0-4.138,7.017A6.862,6.862,0,0,0,472.4,158.3C472.269,153.959,472.139,149.634,472,145.179Zm-.1-18.275a7.055,7.055,0,0,0-4.048,6.738c.105,2.635,1.923,5.35,4.1,6.04,0-4.12,0-8.219,0-12.318C471.947,127.219,471.918,127.073,471.9,126.9Z" transform="translate(-464.192 -79.475)" fill="#acacac"/>
    <path id="Path_37807" data-name="Path 37807" d="M573.4,207.6c2.6-5.235,5.172-10.41,7.741-15.588,1.857-3.744,4.328-4.567,8.074-2.687,1.292.648,2.6,1.269,3.878,1.939a4.9,4.9,0,0,1,2.306,6.75q-6.771,13.787-13.635,27.529a4.807,4.807,0,0,1-4.3,2.85c-2.249.111-4.5.228-6.749.274a4.692,4.692,0,0,1-4.33-2.385c-3.154-5.229-6.308-10.459-9.393-15.729a4.827,4.827,0,0,1,1.713-6.728q2.343-1.48,4.76-2.841a4.917,4.917,0,0,1,6.823,1.75c.988,1.561,1.923,3.155,2.884,4.732C573.2,207.495,573.247,207.507,573.4,207.6Zm.354,17.357c1.084-.051,2.168-.115,3.253-.148a1.7,1.7,0,0,0,1.611-1.04q6.7-13.551,13.415-27.093c.557-1.126.314-1.742-.847-2.331-1.253-.635-2.52-1.244-3.781-1.863-1.688-.828-2.1-.7-2.92.962q-4.529,9.113-9.05,18.232c-.4.817-.811,1.608-1.859,1.668-1.116.064-1.6-.742-2.079-1.559q-2.026-3.422-4.086-6.824c-.721-1.189-1.291-1.334-2.474-.645-1.25.727-2.484,1.48-3.723,2.226-1.508.908-1.617,1.346-.692,2.9,2.429,4.07,4.993,8.067,7.25,12.23C569.14,224.191,570.6,225.95,573.755,224.956Z" transform="translate(-526.573 -153.23)" fill="#acacac"/>
    <path id="Path_37808" data-name="Path 37808" d="M593.4,101.739c2.451,0,4.9-.012,7.352,0,1.34.009,2.135.669,2.166,1.736.033,1.117-.8,1.867-2.18,1.873q-7.412.029-14.824.007c-1.384,0-2.188-.76-2.149-1.894.037-1.094.787-1.714,2.164-1.723C588.413,101.727,590.9,101.739,593.4,101.739Z" transform="translate(-545.188 -94.554)" fill="#acacac"/>
  </g>
</svg>
