<svg xmlns="http://www.w3.org/2000/svg" width="121.649" height="113.939" viewBox="0 0 121.649 113.939">
  <g id="employee" transform="translate(0 -16.224)">
    <g id="Group_35829" data-name="Group 35829" transform="translate(0 16.224)">
      <path id="Path_37851" data-name="Path 37851" d="M119.866,112.61a1.782,1.782,0,0,0-1.782,1.782V126.3a.3.3,0,0,1-.3.3h-6.771V100.564a1.782,1.782,0,1,0-3.564,0V126.6H94.365l3.541-3.9a2.849,2.849,0,0,0,.69-2.286c0-.018-.005-.035-.008-.053L94.607,96.843l.733-1.1.191.135a2.789,2.789,0,0,0,4.111-1.028h0l4.051-8.119,9.253,3.584a8.869,8.869,0,0,1,5.138,8.041v7.723a1.782,1.782,0,0,0,3.564,0V98.353a12.426,12.426,0,0,0-7.353-11.341L114.261,87,98.5,80.9V77.651a13.012,13.012,0,0,0,4.706-8.082,6.219,6.219,0,0,0,3.309-1.457,6.136,6.136,0,0,0,.748-8.531V54.773A17.052,17.052,0,0,0,79.125,41.806,6.126,6.126,0,0,0,77.746,38.1V33.29a17.066,17.066,0,1,0-34.131,0v4.934a5.813,5.813,0,0,0-1.378,3.567,16.989,16.989,0,0,0-6.721-3.52,1.782,1.782,0,1,0-.908,3.447A13.505,13.505,0,0,1,44.661,54.773v2.665c-.077-.016-.324-.058-.334-.06a2.052,2.052,0,0,0-.426-1.2c-.456-.656-1.275-1.472-3.91-4.3a2.817,2.817,0,0,0-3.61-.44A25.464,25.464,0,0,1,21.3,55.581a2.848,2.848,0,0,0-3.134,1.824c-.039.006-.48.1-.5.1V54.773a13.588,13.588,0,0,1,9.6-12.927,1.782,1.782,0,1,0-1.028-3.413,17.2,17.2,0,0,0-8.7,6.07,16.912,16.912,0,0,0-3.437,10.27v4.934a5.807,5.807,0,0,0-1.383,3.756,6.153,6.153,0,0,0,5.45,6.108,13.163,13.163,0,0,0,4.966,8.29V80.9L7.388,87l-.034.013A12.424,12.424,0,0,0,0,98.353V126.3a3.869,3.869,0,0,0,3.864,3.864H58.742a3.84,3.84,0,0,0,2.083-.614,3.838,3.838,0,0,0,2.083.614h54.878a3.868,3.868,0,0,0,3.864-3.864V114.392A1.782,1.782,0,0,0,119.866,112.61ZM17.986,65.889a2.572,2.572,0,0,1-1.712-2.427,2.632,2.632,0,0,1,1.712-2.319Zm82.368,19.546-3.5,7.01-3.94-2.8,4.374-5.4ZM90.34,87.165l-4.609-5.689V79.766a14.371,14.371,0,0,0,4.631.757h0a13.175,13.175,0,0,0,4.577-.831v1.794Zm2.092,6.511-.656.987H88.9l-.656-.987,2.092-1.486ZM60.82,65.681l-4.609-5.689V58.283a14.37,14.37,0,0,0,4.631.757h0a13.172,13.172,0,0,0,4.577-.831V60Zm2.092,6.511-.656.987H59.383l-.656-.987,2.092-1.486ZM46.787,47.917a6.372,6.372,0,0,0,.895.171,13.163,13.163,0,0,0,4.966,8.29v3.037l-3.635,1.409a6.108,6.108,0,0,0-.787-1.242V54.773A17.024,17.024,0,0,0,46.787,47.917Zm23.5-1.887a9.61,9.61,0,0,1-19.217,0V37.683a29.181,29.181,0,0,0,16.252-4.417c1.607,1.723,2.563,2.724,2.966,3.189C70.289,40.891,70.289,42.6,70.289,46.03Zm3.4,2.057a6.412,6.412,0,0,0,.89-.171,16.962,16.962,0,0,0-1.444,6.858v4.934a6.081,6.081,0,0,0-.7,1.041l-3.447-1.335V56.168A13.014,13.014,0,0,0,73.689,48.086ZM53.864,62.768l4.375,5.4-2.983,2.119,0,0-.947.673-3.5-7.01ZM64.921,66.28l2.848-3.515,3.065,1.187-3.5,7.011-.949-.674,0,0L63.4,68.163Zm.9,7.976.191.135a2.789,2.789,0,0,0,4.111-1.028h0l3.007-6.028a6.255,6.255,0,0,0,4.067,2.24,12.954,12.954,0,0,0,4.973,8.285V80.9l-15.15,5.874L65.086,75.36Zm17.566,9.995,4.375,5.4-3.935,2.8-3.5-7.01ZM99.809,67.513a9.61,9.61,0,0,1-19.217,0V59.166a29.2,29.2,0,0,0,16.251-4.417c1.607,1.723,2.563,2.724,2.966,3.189C99.809,62.374,99.809,64.088,99.809,67.513Zm5.277-4.05a2.573,2.573,0,0,1-1.712,2.426V61.042A2.568,2.568,0,0,1,105.086,63.463ZM76.7,54.773a13.5,13.5,0,1,1,27,0v2.665c-.081-.017-.3-.055-.334-.06a2.053,2.053,0,0,0-.426-1.2c-.468-.673-1.278-1.475-3.91-4.3a2.819,2.819,0,0,0-3.61-.44,25.511,25.511,0,0,1-15.217,4.146,2.8,2.8,0,0,0-3,1.831c-.04.006-.48.1-.5.1V54.773Zm.329,6.371v4.743a2.567,2.567,0,0,1-1.712-2.424A2.63,2.63,0,0,1,77.028,61.144ZM75.565,41.979a2.564,2.564,0,0,1-.891,1.947,2.637,2.637,0,0,1-.821.479V39.558A2.569,2.569,0,0,1,75.565,41.979ZM60.68,19.788a13.517,13.517,0,0,1,13.5,13.5v2.665c-.081-.017-.3-.055-.334-.06a2.159,2.159,0,0,0-.5-1.315c-.477-.646-1.357-1.534-3.831-4.194a2.818,2.818,0,0,0-3.61-.44,25.454,25.454,0,0,1-15.36,4.138,2.832,2.832,0,0,0-2.858,1.838c-.04.006-.48.1-.5.1V33.29h0A13.517,13.517,0,0,1,60.68,19.788ZM47.507,39.66v4.745A2.572,2.572,0,0,1,45.8,41.979,2.633,2.633,0,0,1,47.507,39.66ZM44.332,61.042a2.574,2.574,0,0,1,0,4.845Zm-.165,8.534A6.249,6.249,0,0,0,48.4,67.117l3.117,6.246h0a2.789,2.789,0,0,0,4.111,1.028l.191-.135.732,1.1L54.622,86.768,39.463,80.9V77.653h0A13.026,13.026,0,0,0,44.167,69.576ZM31.3,87.165,26.69,81.476V79.766a14.365,14.365,0,0,0,4.631.757h0a13.168,13.168,0,0,0,4.577-.831v1.794Zm2.092,6.511-.656.987H29.862l-.656-.987L31.3,92.19Zm4.857-9.427,3.065,1.187-3.5,7.01-.949-.674,0,0-2.989-2.123ZM21.55,67.513V59.166A29.207,29.207,0,0,0,37.8,54.749c1.592,1.707,2.562,2.724,2.966,3.189v9.576a9.61,9.61,0,0,1-19.217,0Zm2.792,16.738,4.375,5.4L25.734,91.77l0,0-.947.673-3.5-7.01ZM14.2,126.6V100.564a1.782,1.782,0,1,0-3.564,0V126.6H3.864a.3.3,0,0,1-.3-.3V98.353A8.87,8.87,0,0,1,8.7,90.313l9.247-3.585L22,94.847h0a2.789,2.789,0,0,0,4.111,1.028l.191-.135.733,1.1-3.981,23.521c0,.018-.006.035-.008.053a2.852,2.852,0,0,0,.69,2.287l3.541,3.9H14.2Zm12.429-6.01,3.785-22.363h1.772l3.785,22.363L31.3,125.727Zm32.414,5.71a.3.3,0,0,1-.3.3h-6.77V100.564a1.782,1.782,0,1,0-3.564,0V126.6H35.323l3.541-3.9a2.849,2.849,0,0,0,.69-2.286c0-.018-.005-.035-.008-.053L35.565,96.843l.732-1.1.191.135A2.789,2.789,0,0,0,40.6,94.847h0l4.051-8.119L53.9,90.312a8.85,8.85,0,0,1,5.138,8.041V126.3Zm1.782-34.421a12.688,12.688,0,0,0-2.906-3.229l2.015-11.906h1.772l2.016,11.912A12.7,12.7,0,0,0,60.824,91.878ZM73.241,126.6h0V100.564a1.782,1.782,0,1,0-3.564,0V126.6H62.907a.3.3,0,0,1-.3-.3V98.353a8.518,8.518,0,0,1,2.079-5.709,9.592,9.592,0,0,1,3.055-2.331l9.247-3.585,4.051,8.119h0a2.789,2.789,0,0,0,4.111,1.028l.191-.135.732,1.1-3.981,23.521c0,.018-.006.035-.008.053a2.852,2.852,0,0,0,.69,2.287l3.541,3.9H73.241Zm12.429-6.01,3.785-22.363h1.772l3.785,22.363-4.671,5.138Z" transform="translate(0 -16.224)" fill="#acacac"/>
    </g>
  </g>
</svg>
