<svg id="to-do-list" xmlns="http://www.w3.org/2000/svg" width="106.339" height="118.878" viewBox="0 0 106.339 118.878">
  <path id="Path_37865" data-name="Path 37865" d="M92.872,0H13.467A13.482,13.482,0,0,0,0,13.467V99.373a6.973,6.973,0,0,0,6.965,6.965H37.458a2.322,2.322,0,1,0,0-4.644H6.965a2.324,2.324,0,0,1-2.322-2.322V13.467a8.833,8.833,0,0,1,8.823-8.823H82.711a13.408,13.408,0,0,0-3.306,8.823V88.291a3.885,3.885,0,0,1-7.57,1.229l-3.5-10.5a7.247,7.247,0,0,0-14.121,2.291v1.808H42.18a2.322,2.322,0,1,0,0,4.644H54.215V99.315A25.691,25.691,0,0,0,56.2,109.25l3.416,8.2a2.322,2.322,0,1,0,4.286-1.786l-3.416-8.2a21.081,21.081,0,0,1-1.63-8.148v-18a2.6,2.6,0,0,1,5.073-.824l3.5,10.5a8.529,8.529,0,0,0,16.619-2.7V48.484l3.1,3.1a29.047,29.047,0,0,1,8.584,20.7V96.958a43.69,43.69,0,0,1-4.187,18.6,2.322,2.322,0,0,0,4.2,1.99,48.364,48.364,0,0,0,4.635-20.592V72.277a33.662,33.662,0,0,0-9.948-23.984l-6.383-6.371V39.7H99.373a6.973,6.973,0,0,0,6.965-6.965V13.467A13.481,13.481,0,0,0,92.872,0ZM101.7,32.738a2.325,2.325,0,0,1-2.322,2.322H84.049V13.467a8.823,8.823,0,1,1,17.646,0Zm0,0" fill="#acacac"/>
  <path id="Path_37866" data-name="Path 37866" d="M197.322,438a2.323,2.323,0,1,0,1.642.68A2.339,2.339,0,0,0,197.322,438Zm0,0" transform="translate(-149.724 -336.301)" fill="#acacac"/>
  <path id="Path_37867" data-name="Path 37867" d="M73.171,58.644A4.649,4.649,0,0,0,68.528,54H58.312a4.649,4.649,0,0,0-4.644,4.644V68.86A4.649,4.649,0,0,0,58.312,73.5H68.528a4.649,4.649,0,0,0,4.644-4.644ZM68.528,68.86H58.312V58.644H68.528l0,10.216Zm0,0" transform="translate(-41.207 -41.462)" fill="#acacac"/>
  <path id="Path_37868" data-name="Path 37868" d="M73.171,178.644A4.649,4.649,0,0,0,68.528,174H58.312a4.649,4.649,0,0,0-4.644,4.644V188.86a4.649,4.649,0,0,0,4.644,4.644H68.528a4.649,4.649,0,0,0,4.644-4.644ZM68.528,188.86H58.312V178.644H68.528l0,10.216Zm0,0" transform="translate(-41.207 -133.6)" fill="#acacac"/>
  <path id="Path_37869" data-name="Path 37869" d="M68.528,294H58.312a4.648,4.648,0,0,0-4.644,4.644v10.215a4.648,4.648,0,0,0,4.644,4.644H68.528a4.649,4.649,0,0,0,4.644-4.644V298.644A4.649,4.649,0,0,0,68.528,294Zm0,14.859H58.312V298.644H68.528l0,10.215Zm0,0" transform="translate(-41.207 -225.738)" fill="#acacac"/>
  <path id="Path_37870" data-name="Path 37870" d="M235.722,122.644a2.322,2.322,0,1,0,0-4.644H219.716a2.322,2.322,0,1,0,0,4.644Zm0,0" transform="translate(-166.919 -90.602)" fill="#acacac"/>
  <path id="Path_37871" data-name="Path 37871" d="M173.99,122.644a2.322,2.322,0,1,0-1.642-.68A2.339,2.339,0,0,0,173.99,122.644Zm0,0" transform="translate(-131.81 -90.602)" fill="#acacac"/>
  <path id="Path_37872" data-name="Path 37872" d="M173.986,242.644H200.61a2.322,2.322,0,1,0,0-4.644H173.986a2.322,2.322,0,1,0,0,4.644Zm0,0" transform="translate(-131.807 -182.741)" fill="#acacac"/>
</svg>
