<svg id="_631180" data-name="631180" xmlns="http://www.w3.org/2000/svg" width="111.772" height="110.462" viewBox="0 0 111.772 110.462">
  <g id="Group_6105" data-name="Group 6105" transform="translate(65.481 55.275)">
    <g id="Group_6104" data-name="Group 6104">
      <path id="Path_7206" data-name="Path 7206" d="M309.123,271.953c-2.648,0-4.8-1.865-4.8-4.157s2.154-4.157,4.8-4.157,4.8,1.865,4.8,4.157a2.183,2.183,0,0,0,4.366,0,8.686,8.686,0,0,0-6.986-8.277v-1.135a2.183,2.183,0,1,0-4.366,0v1.135a8.686,8.686,0,0,0-6.986,8.277c0,4.7,4.113,8.523,9.169,8.523,2.648,0,4.8,1.865,4.8,4.157s-2.154,4.157-4.8,4.157-4.8-1.865-4.8-4.157a2.183,2.183,0,1,0-4.366,0,8.686,8.686,0,0,0,6.986,8.277v.943a2.183,2.183,0,0,0,4.366,0v-.943a8.686,8.686,0,0,0,6.986-8.277C318.292,275.777,314.178,271.953,309.123,271.953Z" transform="translate(-299.954 -256.201)" fill="#acacac"/>
    </g>
  </g>
  <g id="Group_6107" data-name="Group 6107" transform="translate(83.812 47.543)">
    <g id="Group_6106" data-name="Group 6106">
      <path id="Path_7207" data-name="Path 7207" d="M398.672,231.283A28.445,28.445,0,0,0,387.054,221a2.183,2.183,0,1,0-1.892,3.935,24.034,24.034,0,0,1,10.825,32.919,2.183,2.183,0,1,0,3.854,2.051,28.412,28.412,0,0,0-1.169-28.622Z" transform="translate(-383.924 -220.785)" fill="#acacac"/>
    </g>
  </g>
  <g id="Group_6109" data-name="Group 6109" transform="translate(75.751 44.971)">
    <g id="Group_6108" data-name="Group 6108">
      <path id="Path_7208" data-name="Path 7208" d="M349.33,209h-.147a2.183,2.183,0,1,0,0,4.366h.137a2.183,2.183,0,0,0,.01-4.366Z" transform="translate(-347 -209.001)" fill="#acacac"/>
    </g>
  </g>
  <g id="Group_6111" data-name="Group 6111" transform="translate(46.281 58.879)">
    <g id="Group_6110" data-name="Group 6110">
      <path id="Path_7209" data-name="Path 7209" d="M229.991,308.838a24.034,24.034,0,0,1-10.824-32.919,2.183,2.183,0,1,0-3.854-2.051,28.392,28.392,0,0,0,12.787,38.9,2.183,2.183,0,1,0,1.892-3.935Z" transform="translate(-212.002 -272.711)" fill="#acacac"/>
    </g>
  </g>
  <g id="Group_6113" data-name="Group 6113" transform="translate(69.067 97.363)">
    <g id="Group_6112" data-name="Group 6112">
      <path id="Path_7210" data-name="Path 7210" d="M318.7,449h-.126a2.183,2.183,0,0,0-.02,4.366h.146a2.183,2.183,0,0,0,0-4.366Z" transform="translate(-316.378 -448.999)" fill="#acacac"/>
    </g>
  </g>
  <g id="Group_6115" data-name="Group 6115" transform="translate(0 0)">
    <g id="Group_6114" data-name="Group 6114" transform="translate(0 0)">
      <path id="Path_7211" data-name="Path 7211" d="M84.573,40.585A10.021,10.021,0,0,0,83.6,38.8h5.683a10.042,10.042,0,1,0,0-20.084H71.8A10.035,10.035,0,0,0,63.526,3H10.042a10.042,10.042,0,0,0,0,20.084H27.524a10.014,10.014,0,0,0,0,11.352H21.83a10.036,10.036,0,0,0-6.24,17.9,10.024,10.024,0,0,0,0,15.718,10.024,10.024,0,0,0,0,15.718,10.036,10.036,0,0,0,6.24,17.9H47.558A37.1,37.1,0,1,0,84.573,40.585Zm4.713-17.5a5.676,5.676,0,0,1,0,11.352H35.8a5.676,5.676,0,0,1,0-11.352ZM10.042,18.718a5.676,5.676,0,0,1,0-11.352H63.526a5.676,5.676,0,1,1,0,11.352ZM21.83,38.8H75.315a5.673,5.673,0,0,1,2.477.57c-1.033-.087-2.076-.133-3.131-.133A37,37,0,0,0,48.4,50.154H21.83a5.676,5.676,0,0,1,0-11.352Zm0,15.718H44.668a37.006,37.006,0,0,0-5.611,11.352H21.83a5.676,5.676,0,1,1,0-11.352Zm0,15.718H38.055a37.142,37.142,0,0,0-.135,11.352H21.83a5.676,5.676,0,1,1,0-11.352Zm0,27.07a5.676,5.676,0,1,1,0-11.352H38.811a36.965,36.965,0,0,0,5.238,11.352ZM74.66,109.1A32.746,32.746,0,1,1,107.406,76.35,32.783,32.783,0,0,1,74.66,109.1Z" transform="translate(0 -3)" fill="#acacac"/>
    </g>
  </g>
</svg>
