<svg id="icons_like" data-name="icons/like" xmlns="http://www.w3.org/2000/svg" width="32.584" height="32.584" viewBox="0 0 32.584 32.584">
  <rect id="bg" width="32.584" height="32.584" transform="translate(0)" fill="none"/>
  <path id="path" d="M17.661,6.952A6.217,6.217,0,0,1,22.29,5c4.071,0,7.251,3.291,7.251,7.976,0,2.789-1.394,5.131-3.9,7.641-.558.558-2.231,2.064-2.287,2.119-.223.223-.5.446-.781.725-.335.279-.725.614-1.06.892-.781.669-1.617,1.283-2.454,1.9a9.534,9.534,0,0,0-.781.614,3.3,3.3,0,0,0-.335.223,1.088,1.088,0,0,1-1.283,0,3.3,3.3,0,0,0-.335-.223c-.223-.167-.5-.39-.781-.614-.837-.614-1.673-1.283-2.454-1.9-.39-.335-.725-.614-1.06-.892-.279-.223-.5-.5-.781-.725-.112-.056-1.785-1.562-2.342-2.119C6.339,18.107,5,15.764,5,12.976,5,8.291,8.179,5,12.251,5A6.217,6.217,0,0,1,16.88,6.952a2.577,2.577,0,0,1,.39.39,2.577,2.577,0,0,1,.39-.39Zm.056,17.569c.781-.614,1.617-1.227,2.342-1.841a8.112,8.112,0,0,0,1-.892,8.578,8.578,0,0,0,.725-.669C21.9,21.007,23.573,19.5,24.075,19c2.119-2.119,3.235-3.96,3.235-6.024,0-3.458-2.231-5.745-5.02-5.745a4.394,4.394,0,0,0-3.068,1.283,5.1,5.1,0,0,0-.725.892c-.112.167-.167.335-.223.39a1.13,1.13,0,0,1-2.064,0,4.329,4.329,0,0,0-.223-.39,5.632,5.632,0,0,0-.725-.892,4.164,4.164,0,0,0-3.012-1.283c-2.789,0-5.02,2.287-5.02,5.745,0,2.064,1.115,3.9,3.235,6.079.5.5,2.175,2.008,2.287,2.119a8.578,8.578,0,0,0,.725.669c.335.279.669.558,1,.892.725.614,1.562,1.227,2.342,1.841.167.112.279.223.446.335a1.5,1.5,0,0,1,.446-.39Z" transform="translate(-1.047 0.453)" fill="#b3b3b3"/>
</svg>
