<svg xmlns="http://www.w3.org/2000/svg" width="132.051" height="47.738" viewBox="0 0 132.051 47.738">
  <g id="Group_35760" data-name="Group 35760" transform="translate(-38.752 -413.5)" opacity="0.33">
    <g id="Group_35705" data-name="Group 35705" transform="translate(38.752 425.228)">
      <g id="Group_35704" data-name="Group 35704">
        <path id="Path_37727" data-name="Path 37727" d="M50.94,440.424c.313-.383.623-.77.913-1.17a.744.744,0,0,1,.607-.314c.531,0,1.508,0,1.639.007a1.2,1.2,0,1,0,.01-2.4H52.752c0-.082,0-.161,0-.316,0-.24.034-.352.166-.4H54.7a1.2,1.2,0,0,0,0-2.4c-.375,0-1.771.008-1.815.01a2.561,2.561,0,0,0-2.5,2.426c-.015.681-.017,1.161-.017,1.428a2.366,2.366,0,0,0-.223.3,6.709,6.709,0,0,1-.956,1.2,1.171,1.171,0,0,0,.047,1.835A1.141,1.141,0,0,0,50.94,440.424Z" transform="translate(-36.626 -421.636)" fill="#0e77ff"/>
        <path id="Path_37728" data-name="Path 37728" d="M134,441.034a2.092,2.092,0,0,0-2.091,2.092c0,1.125,0,2.4,0,3,0,.423-.059.617-.292.7h-6.758c.006-.093.029-.184.029-.278,0-2.641.036-4.09-.021-6.73a4.5,4.5,0,0,0-4.389-4.263q-5.635-.036-11.271,0c-.121,0-.242.008-.361.019a2.112,2.112,0,0,0-4.118.525c-.017,1.189-.023,2.378,0,3.566l.047-.006c-.01.1-.016.2-.018.3-.022,1.051-.019,5.117-.007,6.864h-3.291c0-.068.008-.135.01-.2.024-1.188.018-2.377,0-3.565,0-.052-.011-.1-.016-.15,0-.5.011-.993.008-1.489.006-.783,0-.439-.007-1.222v-.227a3.8,3.8,0,0,0-.062-.684,4.6,4.6,0,0,0-4.392-3.8h0c-.109-.006-.219-.011-.331-.011-1.72,0-2.645-.007-4.365-.006h-.537c-1.669,0-1.217,0-2.886.015h-.23a4.5,4.5,0,0,0-4.388,4.264c-.039,1.782-.036,2.438-.029,4.22q-.009,1.175.007,2.348v.228c0,.089.017.177.023.266H81.857c0-.067.008-.135.01-.2.024-1.188.018-2.377,0-3.565a1.972,1.972,0,0,0-2.03-1.988,1.94,1.94,0,0,0-2.139,1.8c-.07,1.072-.029,2.149-.042,3.224,0,.459-.047.655-.272.736-1.587,0-8,.019-12.865.035a5.246,5.246,0,0,0,.05-.623c.01-3.569.011-12.478-.008-16.045a1.124,1.124,0,0,1,.509-1.036c.719-.518,1.411-1.073,2.1-1.634a2.1,2.1,0,1,0-2.632-3.267c-.952.741-1.9,1.487-2.855,2.226a3.288,3.288,0,0,0-1.326,2.742c0,1.888,0,9.117,0,11.005q0,2.917,0,5.833c0,.713-.079.8-.769.8-2.264,0-13.65,0-15.915,0-.629,0-.753-.127-.753-.77,0-3.4,0-.325,0-3.724,0-.686.093-.778.789-.785,1.075-.013,2.153.028,3.224-.042a1.939,1.939,0,0,0,1.8-2.139,1.97,1.97,0,0,0-1.987-2.03c-1.189-.016-2.378-.022-3.566,0A4.588,4.588,0,0,0,38.77,441.8c-.024,3.756-.024,1.042,0,4.8a4.5,4.5,0,0,0,4.263,4.388c2.4.052,12.354.029,16.111.022v0c2.7.017,12.539.022,15.236.013,3.62,0,5.7,0,7.109,0,2.466.018,1.166.017,4.4,0,.989.006,1.979,0,2.969,0,.056,0,.112.006.167.006,1.72,0,1.319.007,3.039.006h.537c.7,0,1.259,0,1.8,0,8.774.007,23.068,0,25.7,0,.038,0,.072-.008.109-.008.084,0,.166.008.251.008,1.72,0,1.319.007,3.039.006h.537c1.669,0,5.735,0,7.4-.015v0h.229a4.5,4.5,0,0,0,4.389-4.263c.024-1.125.032-2.4.033-3.638A2.091,2.091,0,0,0,134,441.034Zm-45.591-.646c0-.424.059-.618.293-.7h2.752c1.944,0,3.093,0,5.039,0a1.22,1.22,0,0,1,.624.095,1.023,1.023,0,0,1,.126.641c.013,1.074-.028,1.025.042,2.1l0,.028v.862c-.032.89-.017,1.783-.028,2.675,0,.458-.048.655-.272.736H89.207a1.226,1.226,0,0,1-.625-.095,1.023,1.023,0,0,1-.126-.641c-.013-1.075.028-2.153-.042-3.224l0-.028C88.41,441.642,88.408,441.578,88.41,440.388Zm31.515,6.434H108.953c.034-1.76.006-5.424.017-6.332.008-.7.1-.789.785-.789q5.1,0,10.2,0c.642,0,.769.124.77.753,0,2.264,0,3.336,0,5.6C120.72,446.742,120.636,446.821,119.925,446.822Z" transform="translate(-38.752 -423.701)" fill="#0e77ff"/>
        <path id="Path_37729" data-name="Path 37729" d="M113.8,447.59a2.095,2.095,0,1,0,2.095,2.095A2.094,2.094,0,0,0,113.8,447.59Z" transform="translate(-23.274 -418.632)" fill="#0e77ff"/>
        <path id="Path_37730" data-name="Path 37730" d="M69.014,438.585a2.1,2.1,0,1,0-2.095-2.095A2.1,2.1,0,0,0,69.014,438.585Z" transform="translate(-32.776 -421.432)" fill="#0e77ff"/>
        <path id="Path_37731" data-name="Path 37731" d="M62.042,436.49a2.095,2.095,0,1,0,2.095-2.1A2.094,2.094,0,0,0,62.042,436.49Z" transform="translate(-33.811 -421.432)" fill="#0e77ff"/>
      </g>
    </g>
    <text id="Basmtak.com" transform="translate(81.965 459.238)" fill="#0e77ff" font-size="7" font-family="SegoeUI, Segoe UI"><tspan x="0" y="0">Basmtak.com</tspan></text>
    <text id="Basmtak" transform="translate(72.364 430.5)" fill="#0e77ff" font-size="16" font-family="SegoeUI, Segoe UI"><tspan x="0" y="0">Basmtak</tspan></text>
    <g id="Group_35710" data-name="Group 35710" transform="translate(140.878 420.045)">
      <g id="Group_35708" data-name="Group 35708" transform="translate(0 12.548)">
        <g id="Group_35707" data-name="Group 35707">
          <g id="Group_35706" data-name="Group 35706">
            <path id="Path_37732" data-name="Path 37732" d="M133.1,456.455c2.485,0,4.977.122,7.454-.023a13.155,13.155,0,0,0,12.37-13.425,13.447,13.447,0,0,0-12.519-13.141c-4.323-.179-8.66-.046-12.988.022A4.192,4.192,0,0,0,123.005,434a4.273,4.273,0,0,0,4.38,4.429c3.686.109,7.377.04,11.066.046a5.7,5.7,0,0,1,3.687.8,4.522,4.522,0,0,1,1.878,5.07,4.265,4.265,0,0,1-3.944,3.378c-4.241.2-8.5.116-12.746.126a1.623,1.623,0,0,1-1.84-1.756c.068-1.217.959-1.778,2.166-1.775q4.931.011,9.863.033c.561,0,1.124.035,1.684,0,.793-.042,1.476-.353,1.446-1.252a1.207,1.207,0,0,0-1.3-1.173c-4.327.016-8.667-.107-12.977.188-2.1.144-3.361,1.739-3.341,4.021.021,2.256,1.213,3.807,3.359,4.018a63.371,63.371,0,0,0,14.386.028,6.974,6.974,0,0,0,6.041-7.5,7.3,7.3,0,0,0-7.144-6.807c-3.443-.136-6.895,0-10.343,0-.72,0-1.445.013-2.161-.051a1.64,1.64,0,0,1-1.687-1.687,1.676,1.676,0,0,1,1.779-1.856c4.8.108,9.645-.566,14.387.423,5.464,1.141,9.232,6.261,8.658,11.365a10.936,10.936,0,0,1-10.867,9.877c-4.73.08-9.462.061-14.192.1-.943.007-2.156-.165-2.119,1.255.033,1.266,1.2,1.075,2.036,1.086,2.646.035,5.292.013,7.938.013Z" transform="translate(-123.003 -429.776)" fill="#0e77ff"/>
          </g>
        </g>
      </g>
      <g id="Group_35709" data-name="Group 35709" transform="translate(0)">
        <path id="Path_37733" data-name="Path 37733" d="M131.532,422.243c-2.293,0-4.586-.021-6.878.012-.954.015-1.611-.355-1.642-1.306-.034-1.016.672-1.513,1.636-1.516,4.679-.017,9.358,0,14.037-.007.962,0,1.336.606,1.388,1.427.059.925-.49,1.378-1.383,1.383C136.3,422.249,133.917,422.241,131.532,422.243Z" transform="translate(-123.002 -419.424)" fill="#0e77ff"/>
        <path id="Path_37734" data-name="Path 37734" d="M131.541,424.615c2.3,0,4.6.021,6.892-.013.969-.015,1.582.385,1.624,1.332.047,1.057-.659,1.487-1.64,1.489q-6.893.011-13.786,0c-.977,0-1.684-.441-1.626-1.5.052-.95.679-1.331,1.641-1.315C126.945,424.642,129.243,424.617,131.541,424.615Z" transform="translate(-123.003 -418.326)" fill="#0e77ff"/>
      </g>
    </g>
  </g>
</svg>
