<svg xmlns="http://www.w3.org/2000/svg" width="25" height="28.97" viewBox="0 0 27.993 28.97">
  <path id="Path_6646" data-name="Path 6646" d="M26.994,14.013A14.048,14.048,0,0,0,15.166.073C14.977.042,14.786.016,14.6,0a.744.744,0,0,0-.768.466.741.741,0,0,0,.157.885,12.565,12.565,0,0,1,.983,1.13A10.785,10.785,0,0,1,1.287,18.464C.656,18.139.075,18.39,0,19.008a1.09,1.09,0,0,0,.14.59,13.7,13.7,0,0,0,9.432,7.909A13.988,13.988,0,0,0,26.764,16.431a15.463,15.463,0,0,0,.23-2.418" transform="translate(0.499 0.5)" fill="none" stroke="#707070" stroke-width="1"/>
</svg>
