<svg xmlns="http://www.w3.org/2000/svg" width="23.76" height="31.518" viewBox="0 0 23.76 31.518">
  <g id="Group_2250" data-name="Group 2250" transform="translate(0 0)">
    <path id="Path_5928" data-name="Path 5928" d="M-6452.186,2212.58a11.924,11.924,0,0,1-11.946,11.812,11.882,11.882,0,0,1-11.813-11.938,11.932,11.932,0,0,1,11.939-11.818A11.952,11.952,0,0,1-6452.186,2212.58Zm-11.835-10.395A10.32,10.32,0,0,0-6474.4,2212.4a10.318,10.318,0,0,0,10.285,10.448,10.322,10.322,0,0,0,10.383-10.286A10.318,10.318,0,0,0-6464.021,2202.185Z" transform="translate(6475.946 -2200.636)" fill="#5e5e5e"/>
    <path id="Path_5929" data-name="Path 5929" d="M-6441.419,2404.127h-7.354a2.508,2.508,0,0,1-.515-.013.737.737,0,0,1-.651-.759.731.731,0,0,1,.646-.763,2.9,2.9,0,0,1,.579-.015h14.581c.129,0,.258,0,.387,0,.507.009.836.257.839.771a.736.736,0,0,1-.833.776c-.752.007-1.5,0-2.258,0Z" transform="translate(6453.299 -2376.487)" fill="#5e5e5e"/>
    <path id="Path_5930" data-name="Path 5930" d="M-6425.976,2434.161c-1.01,0-2.02.005-3.029,0-.622,0-.984-.3-.946-.794.043-.553.4-.758.924-.756,2.04.006,4.082,0,6.122,0,.622,0,.985.3.946.793-.043.552-.4.761-.923.757C-6423.913,2434.156-6424.944,2434.161-6425.976,2434.161Z" transform="translate(6435.895 -2402.645)" fill="#5e5e5e"/>
    <path id="Path_5931" data-name="Path 5931" d="M-6349.079,2432.542c.438.069.746.288.729.79a.725.725,0,0,1-.782.76.7.7,0,0,1-.756-.777A.774.774,0,0,1-6349.079,2432.542Z" transform="translate(6366.172 -2402.587)" fill="#5e5e5e"/>
    <path id="Path_5932" data-name="Path 5932" d="M-6411.467,2245.6a4.853,4.853,0,0,1-4.827,4.78,4.82,4.82,0,0,1-4.743-4.854,4.847,4.847,0,0,1,4.795-4.81A4.805,4.805,0,0,1-6411.467,2245.6Zm-8.021-.031a3.289,3.289,0,0,0,3.245,3.26,3.261,3.261,0,0,0,3.226-3.27,3.286,3.286,0,0,0-3.214-3.291A3.239,3.239,0,0,0-6419.487,2245.571Z" transform="translate(6428.13 -2235.542)" fill="#5e5e5e"/>
    <path id="Path_5933" data-name="Path 5933" d="M-6422.8,2324.454a9.01,9.01,0,0,1,5.386,1.771c.563.423.707.851.436,1.244-.3.435-.754.444-1.348.028a6.838,6.838,0,0,0-8.023-.338c-.217.137-.409.313-.62.461a.727.727,0,0,1-1.13-.125.737.737,0,0,1,.181-1.081,8.229,8.229,0,0,1,3.872-1.8A5.583,5.583,0,0,1-6422.8,2324.454Z" transform="translate(6434.421 -2308.455)" fill="#5e5e5e"/>
  </g>
</svg>
