<svg xmlns="http://www.w3.org/2000/svg" width="42.4" height="46.993" viewBox="0 0 42.4 46.993">
  <path id="play-store" d="M50.793,19.012,18.724.681A5.166,5.166,0,0,0,11,5.166V41.827a5.166,5.166,0,0,0,7.729,4.485L50.792,27.981a5.166,5.166,0,0,0,0-8.97ZM36.9,14.677l-4.4,6.133L21.961,6.14ZM15.959,43.842a2.015,2.015,0,0,1-.818-.257,2.039,2.039,0,0,1-1.013-1.758V5.166a2.024,2.024,0,0,1,1.828-2.019L30.565,23.5Zm6-2.989,10.532-14.67,4.4,6.133ZM49.238,25.261l-9.607,5.491L34.422,23.5l5.209-7.256,9.607,5.491a2.033,2.033,0,0,1,0,3.529Z" transform="translate(-10.995)" fill="#0e77ff"/>
</svg>
