<svg xmlns="http://www.w3.org/2000/svg" width="78.234" height="72.948" viewBox="0 0 78.234 72.948">
  <g id="Group_35768" data-name="Group 35768" transform="translate(-93.798 -231.175)">
    <path id="Path_37767" data-name="Path 37767" d="M93.8,293.8V273.937c.161-.161.13-.376.159-.574a11.7,11.7,0,0,1,9.788-9.678,54.252,54.252,0,0,1,6.1-.139c1.093-.025,1.094,0,1.094-1.089q0-13.828,0-27.655a3.457,3.457,0,0,1,1.191-2.925,3.79,3.79,0,0,1,2.518-.7q21.085.007,42.171,0c3.922,0,7.843-.008,11.765,0a3.132,3.132,0,0,1,3.446,3.327q.009,27.846,0,55.693a13.066,13.066,0,0,1-1.873,6.914,13.6,13.6,0,0,1-12.292,6.922q-25.058.025-50.116.008c-.458,0-.918,0-1.374.039a11.634,11.634,0,0,1-12.047-8.157C94.111,295.23,93.972,294.51,93.8,293.8Zm72.02-29.3c0-8.733-.01-17.467.017-26.2,0-.736-.18-.92-.919-.919q-23.412.035-46.823,0c-.779,0-.95.2-.949.958q.035,26.773.018,53.545a11.863,11.863,0,0,1-1.024,5.271c-.3.629-.075.7.5.7q20.624-.016,41.248-.007a7.473,7.473,0,0,0,3.539-.785,7.675,7.675,0,0,0,4.395-7.28Q165.813,277.143,165.818,264.5Zm-54.877,17.183q0-5.612,0-11.224c0-.4.04-.742-.561-.726-1.806.048-3.616-.018-5.418.079a5.253,5.253,0,0,0-4.891,4.892c-.1,2.337-.06,4.681-.06,7.022,0,3.69-.025,7.381.043,11.07a5.445,5.445,0,0,0,10.878-.5C110.957,288.76,110.94,285.222,110.941,281.685Z" fill="#0e77ff"/>
    <path id="Path_37768" data-name="Path 37768" d="M272.925,417.259c-4.455,0-8.91.016-13.366-.007a3.073,3.073,0,0,1-2.97-4.213,2.912,2.912,0,0,1,2.454-1.92,7.626,7.626,0,0,1,.989-.06q12.869,0,25.739,0c1.868,0,3.023.717,3.488,2.14a3.063,3.063,0,0,1-2.893,4.049c-2.52.042-5.041.012-7.561.013Z" transform="translate(-131.452 -145.456)" fill="#0e77ff"/>
    <path id="Path_37769" data-name="Path 37769" d="M269.2,490.7c-3.233,0-6.467.016-9.7-.007a3.031,3.031,0,0,1-2.95-2.227,3.1,3.1,0,0,1,1.239-3.424,3.364,3.364,0,0,1,1.957-.536c6.314,0,12.628.007,18.942-.007a3.113,3.113,0,0,1,2.963,4.578,3.072,3.072,0,0,1-2.9,1.627q-4.774-.005-9.548,0Z" transform="translate(-131.505 -204.842)" fill="#0e77ff"/>
    <path id="Path_37770" data-name="Path 37770" d="M269.095,338.923c-3.183,0-6.365.009-9.548-.005a3.1,3.1,0,0,1-2.363-5.188,3.145,3.145,0,0,1,2.466-1.013c6.34-.006,12.679-.02,19.019.007a3.066,3.066,0,0,1,3.286,3.151,3.1,3.1,0,0,1-3.388,3.047C275.409,338.93,272.252,338.924,269.095,338.923Z" transform="translate(-131.444 -82.103)" fill="#0e77ff"/>
  </g>
</svg>
