<svg xmlns="http://www.w3.org/2000/svg" width="30.298" height="30.173" viewBox="0 0 30.298 30.173">
  <g id="Group_2713" data-name="Group 2713" transform="translate(0 0)">
    <g id="Path_7067" data-name="Path 7067" transform="translate(11.571 19.942)">
      <path id="Path_7345" data-name="Path 7345" d="M1469.341,467.865l-3.131,0q-.548-.061-1.1-.118c-.822-.087-1.672-.177-2.507-.29a10.014,10.014,0,0,1-3.138-.884,1.939,1.939,0,0,1-1.217-1.958c.029-.641.023-1.3.017-1.935,0-.431-.008-.861,0-1.292a3.328,3.328,0,0,1,3.255-3.527c.274-.027.548-.05.822-.073.462-.039.94-.08,1.4-.137a.822.822,0,0,1,.649.139.859.859,0,0,1,.249.659,21.972,21.972,0,0,0,.644,5.076,4.757,4.757,0,0,0,1.112,2.177c0-.594,0-1.188,0-1.782,0-.672,0-1.345,0-2.017,0-.212-.016-.22-.09-.254l-.024-.012a1.059,1.059,0,0,1-.544-.975,1.323,1.323,0,0,1,1.624-1.725h.2c.13,0,.259,0,.389,0l.091,0a1.27,1.27,0,0,1,1.384.664l.013.033a1.9,1.9,0,0,1-.53,2.022l-.022.018a.1.1,0,0,0-.027.026.538.538,0,0,0-.005.125v.083c-.005,1.259,0,2.533,0,3.792a3.841,3.841,0,0,0,.889-1.5,18.365,18.365,0,0,0,.856-5.623,1,1,0,0,1,.285-.78.955.955,0,0,1,.769-.133c.513.079,1.048.117,1.566.154.237.017.474.034.711.055a3.211,3.211,0,0,1,3.007,3.118c.025.771.022,1.554.019,2.311,0,.553,0,1.107,0,1.66a1.776,1.776,0,0,1-1.161,1.62,12.108,12.108,0,0,1-3.728.987l-.259.039a9.59,9.59,0,0,1-1.058.084,6.074,6.074,0,0,0-1.382.162Zm-3.071-.727,2.973,0a6.87,6.87,0,0,1,1.5-.174,8.937,8.937,0,0,0,.979-.076l.26-.04a11.381,11.381,0,0,0,3.51-.917c.57-.288.769-.54.763-.962-.008-.558-.006-1.116,0-1.674,0-.75.006-1.526-.018-2.284a2.491,2.491,0,0,0-2.337-2.417c-.241-.021-.475-.038-.708-.055-.532-.038-1.082-.078-1.624-.161a.89.89,0,0,0-.192-.014,1.216,1.216,0,0,0-.028.243,19.514,19.514,0,0,1-.894,5.824,4.545,4.545,0,0,1-1.2,1.909c-.024.021-.039.036-.054.05a.672.672,0,0,1-.711.223.563.563,0,0,1-.345-.691.5.5,0,0,0,.007-.057c-.006-1.314-.007-2.649,0-3.966v-.063a.812.812,0,0,1,.3-.735,1.171,1.171,0,0,0,.324-1.223c-.1-.208-.247-.234-.7-.222l-.1,0c-.136,0-.271,0-.405,0h-.2c-.3,0-.709.014-.82.133s-.1.538-.078.842v.025l0,.025a.332.332,0,0,0,.162.309.889.889,0,0,1,.5.91q-.005,1.006,0,2.013c0,.651,0,1.3,0,1.952a.546.546,0,0,0,.006.057.564.564,0,0,1-.344.689.666.666,0,0,1-.709-.224l-.045-.043a5.2,5.2,0,0,1-1.443-2.631,22.583,22.583,0,0,1-.671-5.243.993.993,0,0,0-.009-.114c-.018,0-.043,0-.073.007-.479.059-.964.1-1.433.14-.271.023-.542.046-.812.072a2.63,2.63,0,0,0-2.6,2.815c-.006.425,0,.85,0,1.275.006.646.012,1.314-.018,1.974a1.217,1.217,0,0,0,.807,1.272,9.3,9.3,0,0,0,2.912.818c.833.112,1.678.2,2.495.289C1465.55,467.059,1465.91,467.1,1466.27,467.138Z" transform="translate(-1458.249 -457.634)" fill="#748a9d"/>
    </g>
    <g id="Path_7068" data-name="Path 7068" transform="translate(0 0)">
      <path id="Path_7346" data-name="Path 7346" d="M1419.869,397.9a1.447,1.447,0,0,1-.277-.033,11.448,11.448,0,0,1-9.177-11.377h0a11.865,11.865,0,0,1,.415-2.981,10.822,10.822,0,0,1,.761-1.97,11.365,11.365,0,0,1,2.463-3.29,11.52,11.52,0,0,1,6.143-2.927,11.331,11.331,0,0,1,10.34,3.769.9.9,0,0,1,.333.768c-.069.328-.4.472-.663.588a2.951,2.951,0,0,1-3.42-.424,8.271,8.271,0,1,0-6.374,14.758l.1.016c.127.019.258.036.395.053.217.027.462.058.741.106l.563.1-.766,1.1c-.352.505-.687.987-1.026,1.467A.635.635,0,0,1,1419.869,397.9Zm-8.729-11.4a10.758,10.758,0,0,0,8.574,10.654c.046.009.1.018.131.022.332-.47.661-.943,1-1.437l.1-.151-.138-.017c-.143-.018-.279-.035-.414-.055l-.109-.018a9,9,0,1,1,6.935-16.049,2.249,2.249,0,0,0,2.689.335c.083-.036.142-.065.185-.086-.023-.029-.054-.066-.1-.112a10.512,10.512,0,0,0-9.708-3.543,10.786,10.786,0,0,0-5.75,2.741,10.652,10.652,0,0,0-2.306,3.081,10.1,10.1,0,0,0-.71,1.838,11.138,11.138,0,0,0-.39,2.8Z" transform="translate(-1410.414 -375.191)" fill="#748a9d"/>
    </g>
    <g id="Path_7069" data-name="Path 7069" transform="translate(15.129 6.99)">
      <path id="Path_7347" data-name="Path 7347" d="M1478.763,417.866a4.08,4.08,0,0,1-2.25-.72,7.354,7.354,0,0,1-3.554-6.009v-.026a7.818,7.818,0,0,1,1.506-4.722,5.493,5.493,0,0,1,4.328-2.3h.029a5.5,5.5,0,0,1,4.339,2.359,7.417,7.417,0,0,1-1.6,10.367c-.184.135-.377.263-.575.382A4.326,4.326,0,0,1,1478.763,417.866Zm-5.078-6.747a6.656,6.656,0,0,0,3.225,5.419,3.235,3.235,0,0,0,3.708.036c.177-.106.352-.222.518-.344a6.69,6.69,0,0,0,1.443-9.351,4.72,4.72,0,0,0-3.76-2.065h-.027a4.714,4.714,0,0,0-3.75,2.014A7.125,7.125,0,0,0,1473.684,411.119Zm5.1,4.939a2.463,2.463,0,0,1-1.325-.409,5.376,5.376,0,0,1-2.647-4.5h0a3.128,3.128,0,0,1,.916-2.387.959.959,0,0,1,.716-.346.774.774,0,0,1,.585.3c1.133,1.371,2.72,1.54,4.4,1.719l.452.049a1.026,1.026,0,0,1,.731.33.982.982,0,0,1,.132.767,5.491,5.491,0,0,1-2.553,4.018A2.559,2.559,0,0,1,1478.783,416.058Zm-3.248-4.929a4.661,4.661,0,0,0,2.3,3.9,1.67,1.67,0,0,0,1.964-.037,4.777,4.777,0,0,0,2.224-3.5.658.658,0,0,0,.01-.235,1.279,1.279,0,0,0-.235-.047l-.447-.049c-1.751-.187-3.562-.379-4.884-1.978a.135.135,0,0,0-.047-.042.377.377,0,0,0-.172.124,2.411,2.411,0,0,0-.714,1.852l-.354.021Z" transform="translate(-1472.958 -404.088)" fill="#748a9d"/>
    </g>
    <g id="Path_7070" data-name="Path 7070" transform="translate(6.44 5.013)">
      <path id="Path_7348" data-name="Path 7348" d="M1438.858,407.948a1.043,1.043,0,0,1-.584-.221l-.021-.014c-.78-.543-1.172-.815-1.211-1.253s.3-.782.981-1.463c.2-.2.4-.4.595-.6.554-.559,1.127-1.136,1.705-1.691a.87.87,0,0,0,.3-.7c-.01-.854-.009-1.691-.008-2.529s0-1.716-.008-2.573a1.007,1.007,0,0,1,.24-.76.968.968,0,0,1,.728-.227c.307.008.559.007.765.006.568,0,.877,0,1.1.222s.215.516.206,1.048c0,.205-.008.458,0,.768.009.445.006.895,0,1.33q0,.3,0,.593h-.726q0-.3,0-.6c0-.431.005-.876,0-1.31-.007-.322,0-.583,0-.8a4.316,4.316,0,0,0-.008-.516,4.528,4.528,0,0,0-.569-.017c-.213,0-.472,0-.788-.006a.441.441,0,0,0-.2.022.817.817,0,0,0-.02.231c.01.862.01,1.736.008,2.582s0,1.669.008,2.5a1.577,1.577,0,0,1-.527,1.259c-.563.541-1.133,1.115-1.684,1.67l-.595.6a3.914,3.914,0,0,0-.774.889,3.99,3.99,0,0,0,.9.72l.02.014c.127.088.169.09.171.09a.4.4,0,0,0,.135-.107c1.255-1.286,2.541-2.557,3.649-3.647a.839.839,0,0,0,.279-.66c-.013-.7-.01-1.4-.008-2.084q0-.419,0-.839h.726q0,.421,0,.841c0,.675-.005,1.374.007,2.059a1.548,1.548,0,0,1-.505,1.209c-1.1,1.078-2.379,2.346-3.629,3.627A.915.915,0,0,1,1438.858,407.948Z" transform="translate(-1437.039 -395.916)" fill="#748a9d"/>
    </g>
  </g>
</svg>
