<svg xmlns="http://www.w3.org/2000/svg" width="31.897" height="31.324" viewBox="0 0 31.897 31.324">
  <g id="Group_5852" data-name="Group 5852" transform="translate(0)">
    <path id="Path_7322" data-name="Path 7322" d="M1758.681,42.98a7.609,7.609,0,0,1,7.567,7.9.3.3,0,0,0,0,.039c.023.268-.2.6,0,.781s.525,0,.795-.014c.963-.061,1.924-.151,2.887-.215.269-.018.354-.041.164-.317a3.474,3.474,0,1,1,6.245-2.719,3.5,3.5,0,0,1-2.229,4.011c-.43.146-.427.144-.185.518a3.493,3.493,0,0,1,.615,2.259.392.392,0,0,0,.239.429c.453.259.9.525,1.341.805a.531.531,0,0,0,.543.042q1.67-.668,3.353-1.306a2.048,2.048,0,0,1,2.883,1.564,1.945,1.945,0,0,1-1.132,2.085c-1.665.681-3.348,1.315-5.032,1.948a1.8,1.8,0,0,1-1.581-.186c-.618-.361-1.233-.728-1.837-1.112-.235-.15-.332-.067-.381.153a6.472,6.472,0,0,1-.409,1.1.446.446,0,0,0,.124.577c1.077,1.044,2.144,2.1,3.209,3.156a2.2,2.2,0,0,1,.407,2.821q-1.288,2.305-2.6,4.6a2.174,2.174,0,0,1-2.994.892,2.209,2.209,0,0,1-.781-3.006c.557-1,1.141-1.991,1.73-2.976.138-.231.154-.372-.081-.549-.332-.251-.636-.54-.943-.823-.144-.132-.228-.16-.354.036-1.7,2.645-3.584,5.164-5.364,7.755a2.378,2.378,0,0,1-3.438.606,2.329,2.329,0,0,1-.6-3.311q2.4-3.666,4.824-7.318a3.121,3.121,0,0,0,.442-1.154c.4-1.992.8-3.984,1.218-5.973.066-.318.036-.436-.333-.429-.947.018-.949,0-1.163.912-.264,1.128-.522,2.258-.787,3.386a1.981,1.981,0,0,1-2.208,1.452,1.889,1.889,0,0,1-1.59-2.118c.058-.438.178-.868.268-1.3.02-.1.106-.217,0-.285-.052-.034-.17.026-.255.053a8.271,8.271,0,0,1-2.954.447,7.606,7.606,0,0,1,.369-15.2Zm8.16,11.6v.008h.509c.183,0,.365,0,.548,0,.556.011.752.25.643.793-.43,2.134-.851,4.27-1.3,6.4a4.442,4.442,0,0,1-.453,1.645q-2.522,3.821-5.036,7.648a1.285,1.285,0,0,0,.279,1.865,1.335,1.335,0,0,0,1.983-.325c.37-.521.741-1.042,1.1-1.572,1.539-2.28,3.262-4.434,4.636-6.827a.531.531,0,0,1,.911-.141c.645.551,1.28,1.113,1.916,1.674.548.483.556.577.178,1.222q-.94,1.6-1.867,3.213a1.17,1.17,0,0,0,.328,1.677,1.119,1.119,0,0,0,1.57-.558c.848-1.483,1.684-2.973,2.527-4.46a1.184,1.184,0,0,0-.228-1.65c-1.177-1.166-2.353-2.334-3.541-3.49a.7.7,0,0,1-.181-.877c.247-.574.472-1.157.715-1.733.084-.2.086-.345-.142-.438a11.442,11.442,0,0,1-1.338-.8.442.442,0,0,1-.2-.6.485.485,0,0,1,.6-.319,1.212,1.212,0,0,1,.35.166c1.3.768,2.605,1.52,3.884,2.318a1.562,1.562,0,0,0,1.711.18,6.175,6.175,0,0,1,.681-.276q1.793-.678,3.575-1.383a.957.957,0,0,0-.252-1.868,1.515,1.515,0,0,0-.681.15c-1.2.467-2.406.932-3.606,1.407a.677.677,0,0,1-.661-.041c-1.542-.926-3.093-1.837-4.639-2.758-.36-.215-.461-.494-.3-.773.167-.3.486-.351.848-.136.449.266.894.537,1.341.806.129.077.256.14.227-.108-.132-1.132-1.423-2.4-2.374-2.187a7.379,7.379,0,0,1-1.052.087c-1.808.137-3.616.27-5.424.413a.907.907,0,0,0-.958.761q-.685,2.809-1.347,5.624a.836.836,0,0,0,.512.975.854.854,0,0,0,1.031-.321,2.815,2.815,0,0,0,.371-1.177c.326-1.245.59-2.506.882-3.76a.546.546,0,0,1,.594-.458C1766.084,54.581,1766.462,54.579,1766.841,54.579Zm-8.971-10.538a6.2,6.2,0,0,0-3.956,2.017,6.548,6.548,0,0,0,7.761,10.333.639.639,0,0,0,.36-.467c.122-.547.263-1.089.392-1.634.16-.674.159-.674-.446-1.049a1.935,1.935,0,0,1-.23-.149.49.49,0,0,1-.135-.693.5.5,0,0,1,.714-.178c.174.089.339.2.505.3.095.059.18.1.275,0a2.177,2.177,0,0,1,1.662-.654c.258-.005.317-.121.353-.351C1765.733,47.638,1762.633,44.043,1757.87,44.041Zm17.49,5.133a2.427,2.427,0,1,0-2.414,2.42A2.448,2.448,0,0,0,1775.359,49.174Z" transform="translate(-1751.029 -42.98)" fill="#8f9fae"/>
    <path id="Path_7323" data-name="Path 7323" d="M1788.25,76.558a.668.668,0,0,1-.131.386c-.445.643-.884,1.29-1.334,1.93a.55.55,0,0,1-.839.2c-.635-.36-1.263-.732-1.889-1.108a.531.531,0,0,1-.253-.755.537.537,0,0,1,.782-.151c.444.246.885.5,1.317.767.172.106.263.09.376-.08.322-.49.66-.969,1-1.45a.521.521,0,0,1,.654-.205A.483.483,0,0,1,1788.25,76.558Z" transform="translate(-1778.78 -71.044)" fill="#8f9fae"/>
    <path id="Path_7324" data-name="Path 7324" d="M1825.41,90.7c-.182,0-.365.01-.546,0a.481.481,0,0,1-.5-.49.487.487,0,0,1,.481-.553,7.427,7.427,0,0,1,1.13,0,.524.524,0,0,1-.019,1.048c-.181.011-.364,0-.546,0Z" transform="translate(-1813.264 -82.569)" fill="#8f9fae"/>
    <path id="Path_7325" data-name="Path 7325" d="M1765.335,90.713c-.169,0-.339.007-.508,0a.491.491,0,0,1-.527-.467.48.48,0,0,1,.453-.574,6.8,6.8,0,0,1,1.208,0,.467.467,0,0,1,.451.536.483.483,0,0,1-.492.5C1765.726,90.726,1765.53,90.712,1765.335,90.713Z" transform="translate(-1762.288 -82.583)" fill="#8f9fae"/>
    <path id="Path_7326" data-name="Path 7326" d="M1769.91,102.279a.513.513,0,0,1-.3.469c-.307.167-.616.333-.936.473a.525.525,0,1,1-.481-.933,9.821,9.821,0,0,1,.974-.486A.518.518,0,0,1,1769.91,102.279Z" transform="translate(-1765.341 -92.859)" fill="#8f9fae"/>
    <path id="Path_7327" data-name="Path 7327" d="M1811.344,114.719a.561.561,0,0,1-.362.555.476.476,0,0,1-.609-.208,8.936,8.936,0,0,1-.528-1.041.482.482,0,0,1,.2-.643.445.445,0,0,1,.607.045A5.221,5.221,0,0,1,1811.344,114.719Z" transform="translate(-1800.901 -102.645)" fill="#8f9fae"/>
    <path id="Path_7328" data-name="Path 7328" d="M1812.141,63.008a.5.5,0,0,1-.492-.718,7.566,7.566,0,0,1,.647-1.06.514.514,0,0,1,.887.467,4.373,4.373,0,0,1-.724,1.186A.4.4,0,0,1,1812.141,63.008Z" transform="translate(-1802.429 -58.303)" fill="#8f9fae"/>
    <path id="Path_7329" data-name="Path 7329" d="M1784.159,61.141c0,.348-.13.514-.365.584a.467.467,0,0,1-.58-.2,12.349,12.349,0,0,1-.553-1.112.449.449,0,0,1,.2-.573.442.442,0,0,1,.609.022A4.54,4.54,0,0,1,1784.159,61.141Z" transform="translate(-1777.84 -57.196)" fill="#8f9fae"/>
    <path id="Path_7330" data-name="Path 7330" d="M1821.961,76.118a.577.577,0,0,1-.534-.351.426.426,0,0,1,.114-.532,4.028,4.028,0,0,1,1.271-.65.438.438,0,0,1,.5.226.446.446,0,0,1-.01.578A4.092,4.092,0,0,1,1821.961,76.118Z" transform="translate(-1810.735 -69.787)" fill="#8f9fae"/>
    <path id="Path_7331" data-name="Path 7331" d="M1771.113,73.373a.528.528,0,0,1-.763.474,7.967,7.967,0,0,1-1-.607.516.516,0,0,1,.467-.907,4.739,4.739,0,0,1,1.155.706A.445.445,0,0,1,1771.113,73.373Z" transform="translate(-1766.389 -67.857)" fill="#8f9fae"/>
    <path id="Path_7332" data-name="Path 7332" d="M1781.432,112.372a.507.507,0,0,1,.491.67,4.826,4.826,0,0,1-.681,1.129.473.473,0,0,1-.638.09.456.456,0,0,1-.232-.6,5.639,5.639,0,0,1,.679-1.129A.449.449,0,0,1,1781.432,112.372Z" transform="translate(-1775.897 -101.87)" fill="#8f9fae"/>
    <path id="Path_7333" data-name="Path 7333" d="M1797.885,57.246c0-.182-.007-.364,0-.546a.478.478,0,0,1,.5-.5.461.461,0,0,1,.528.455,10.008,10.008,0,0,1,0,1.207.47.47,0,0,1-.529.459.477.477,0,0,1-.5-.5C1797.876,57.637,1797.885,57.441,1797.885,57.246Z" transform="translate(-1790.791 -54.203)" fill="#8f9fae"/>
    <path id="Path_7334" data-name="Path 7334" d="M1797.885,117.324c0-.182-.009-.364,0-.545a.475.475,0,0,1,.5-.489.461.461,0,0,1,.525.457,10.931,10.931,0,0,1,0,1.207.458.458,0,0,1-.491.454.475.475,0,0,1-.527-.461c-.02-.206,0-.415,0-.623Z" transform="translate(-1790.79 -105.194)" fill="#8f9fae"/>
  </g>
</svg>
