<?xml version="1.0" encoding="utf-8"?>
<!-- Generator: Adobe Illustrator 23.0.3, SVG Export Plug-In . SVG Version: 6.00 Build 0)  -->
<svg version="1.1" id="Layer_1" xmlns="http://www.w3.org/2000/svg" xmlns:xlink="http://www.w3.org/1999/xlink" x="0px" y="0px"
	 viewBox="0 0 47.6 54.1" style="enable-background:new 0 0 47.6 54.1;" xml:space="preserve">
<style type="text/css">
	.st0{fill:#F9C838;}
</style>
<g>
	<path class="st0" d="M23.7,50.6c-6.7,0-13.3,0-20,0c-0.7,0-1.3,0-2,0c-0.8,0-1.5-0.4-1.5-1.4c0-0.9,0.5-1.5,1.4-1.4
		c1.9,0.2,1.9-1,1.9-2.3c0-5.4,0-10.8,0-16.2c0-3.3,0.1-3.5,3.3-3.4c2,0.1,3-0.4,3.8-2.4c1.6-4.4,5.1-6.9,9.6-7.9
		c1.6-0.3,2.3-0.9,2.1-2.6c-0.2-1.7,0.7-2.4,2.4-2.3c2.7,0.1,5.5,0,8.2,0c1.1,0,2-0.1,2-1.5c0.1-2.3,2.7-3.2,3.3-5.4
		c0.1-0.6,1.5-0.5,1.7,0c0.8,2.5,3.9,3.9,3.4,7.2c-0.3,1.7-0.7,2.5-2.5,2.5c-4.3-0.1-8.7-0.1-13,0c-0.9,0-2.3-0.6-2.4,0.8
		c-0.1,1.3,1.3,0.9,2.1,1.1c4.6,1.2,8,3.8,9.7,8.2c0.7,1.8,1.6,2.2,3.3,2.1c3.6-0.1,3.6,0,3.6,3.6c0,5.4,0,10.8,0,16.2
		c0,1.1,0,2.2,1.6,2.1c1-0.1,1.7,0.4,1.7,1.4c0,1.3-1,1.4-2,1.4c-3.7,0-7.5,0-11.2,0C30.7,50.6,27.2,50.6,23.7,50.6z M23.7,28.7
		c-5.1,0-10.1,0-15.2,0c-1.6,0-2.2,0.4-2.1,2.1c0.1,5,0.1,10,0,15c0,1.6,0.4,2.2,2.1,2.2c10.2-0.1,20.4-0.1,30.7,0
		c1.9,0,2.2-0.7,2.2-2.3c-0.1-4.8-0.1-9.6,0-14.5c0-1.8-0.4-2.5-2.3-2.4C33.8,28.7,28.8,28.7,23.7,28.7z M23.6,25.9
		C23.6,25.9,23.6,25.9,23.6,25.9c3.1,0,6.1,0,9.2,0c1.7,0,2.1-0.5,1.3-2c-2.3-4.1-5.9-5.9-10.5-5.8c-4.5,0.1-7.9,2-10.2,6
		c-0.7,1.2-0.6,1.8,1,1.8C17.5,25.8,20.6,25.9,23.6,25.9z M40.3,9.6c-0.1-0.6-0.5-1.1-1.3-1c-0.7,0.1-1,0.6-1.1,1.2
		c-0.1,1,0.6,1,1.3,1C39.9,10.7,40.4,10.5,40.3,9.6z"/>
	<path class="st0" d="M23.8,44.6c-3.8,0-7.7-0.1-11.5,0c-1.8,0-2.6-0.5-2.6-2.4c0.1-2.7,0.1-5.3,0-8c0-1.6,0.5-2.4,2.3-2.4
		c7.8,0,15.6,0,23.5,0c1.5,0,2.3,0.6,2.3,2.2c0,2.8,0,5.7,0,8.5c0,1.6-0.7,2.2-2.3,2.2C31.6,44.6,27.7,44.6,23.8,44.6
		C23.8,44.6,23.8,44.6,23.8,44.6z M23.8,34.7C23.8,34.7,23.8,34.7,23.8,34.7c-2.2,0-4.3,0-6.5,0c-5.3,0.1-4.6-1-4.7,4.8
		c-0.1,1.9,0.7,2.4,2.5,2.4c5-0.1,10,0,15,0c5.3,0,5.3-0.1,5-5.3c-0.1-1.4-0.6-1.9-2-1.8C30,34.7,26.9,34.7,23.8,34.7z"/>
	<path class="st0" d="M25.9,38.2c-0.2,1.5-1,2.2-2.3,2.2c-1.2-0.1-2-0.9-1.9-2.2c0.1-1.4,0.9-2.1,2.3-2
		C25.3,36.3,25.9,37.1,25.9,38.2z"/>
</g>
</svg>
