<svg xmlns="http://www.w3.org/2000/svg" width="48" height="49" viewBox="0 0 48 49">
  <g id="Group_35843" data-name="Group 35843" transform="translate(-0.307 0.359)">
    <ellipse id="Ellipse_202" data-name="Ellipse 202" cx="24" cy="24.5" rx="24" ry="24.5" transform="translate(0.307 -0.359)" fill="#ff3d27" opacity="0.15"/>
    <g id="Group_6184" data-name="Group 6184" transform="translate(12.337 11.89)">
      <path id="Path_7286" data-name="Path 7286" d="M2062.495,1177.353a12.251,12.251,0,1,1-12.249,12.234A12.253,12.253,0,0,1,2062.495,1177.353Zm.01,1.824a10.427,10.427,0,1,0,10.418,10.407A10.435,10.435,0,0,0,2062.505,1179.177Z" transform="translate(-2050.246 -1177.353)" fill="#ff3d27"/>
      <path id="Path_7287" data-name="Path 7287" d="M2092.423,1217.881a1.517,1.517,0,0,1,1.006.48c.981.983,1.966,1.963,2.941,2.952.139.141.211.135.347,0q1.456-1.475,2.927-2.936a1.48,1.48,0,0,1,1.617-.411,1.454,1.454,0,0,1,1.019,1.256,1.491,1.491,0,0,1-.473,1.3l-2.936,2.93c-.177.177-.176.177,0,.354q1.468,1.466,2.935,2.931a1.525,1.525,0,1,1-2.15,2.161q-1.474-1.473-2.941-2.952c-.138-.14-.212-.136-.347,0q-1.464,1.483-2.941,2.952a1.523,1.523,0,0,1-2.562-1.5,1.672,1.672,0,0,1,.444-.685c.974-.971,1.944-1.947,2.922-2.915.13-.129.132-.2,0-.332-.988-.976-1.969-1.96-2.951-2.941a1.533,1.533,0,0,1-.382-1.675A1.554,1.554,0,0,1,2092.423,1217.881Z" transform="translate(-2084.292 -1211.38)" fill="#ff3d27"/>
    </g>
  </g>
</svg>
