<svg xmlns="http://www.w3.org/2000/svg" width="173" height="174" viewBox="0 0 173 174">
  <g id="Group_35792" data-name="Group 35792" transform="translate(-0.419 -0.191)">
    <ellipse id="Ellipse_235" data-name="Ellipse 235" cx="86.5" cy="87" rx="86.5" ry="87" transform="translate(0.419 0.191)" fill="#0e77ff"/>
    <g id="Group_35797" data-name="Group 35797" transform="translate(-5065.07 -4402.059)">
      <path id="Path_37768" data-name="Path 37768" d="M5104.812,4472.077c.174-.864.334-1.732.526-2.593a21.064,21.064,0,0,1,20.319-16.535c15.909-.088,31.818-.035,47.728-.024a50,50,0,0,1,8.362.337,21.3,21.3,0,0,1,17.262,18.344,34.394,34.394,0,0,1,.156,3.586q0,9.4,0,18.8a21.189,21.189,0,0,1-17.716,21.309,20.35,20.35,0,0,1-3.76.282q-14.143-.008-28.286-.013a1.955,1.955,0,0,0-1.526.631q-9.787,9.825-19.6,19.623a2.976,2.976,0,0,1-2.792,1.057,2.782,2.782,0,0,1-2.242-2.955q-.012-7.371,0-14.742c0-.952-.062-1.909.02-2.854.064-.757-.229-.966-.923-1.09a20.77,20.77,0,0,1-13.582-8.562,20.347,20.347,0,0,1-3.771-9.668c-.025-.209,0-.434-.172-.6Zm23.957,55.373c.4-.38.641-.6.874-.836q7.623-7.622,15.232-15.257a4.164,4.164,0,0,1,3.185-1.326q14.833.042,29.667.014a15.641,15.641,0,0,0,15.907-15.849c.015-6.634,0-13.268.006-19.9a15.409,15.409,0,0,0-.3-3.11,15.623,15.623,0,0,0-15.454-12.729c-6.572-.035-13.144-.009-19.716-.008-10.811,0-21.621-.051-32.431.024a15.561,15.561,0,0,0-15.373,15.066q-.151,10.731,0,21.466a15.65,15.65,0,0,0,14.938,15.034c2.557.069,3.459,1,3.459,3.558Z" fill="#fff"/>
      <path id="Path_37769" data-name="Path 37769" d="M5347.229,4541.844c0-1.872-.042-3.745.008-5.616.124-4.529,2.9-7.452,7.411-7.834a14.635,14.635,0,0,1,4.489.207c3.664.829,5.77,3.1,6.049,7.221a79.227,79.227,0,0,1-.055,12.6c-.351,3.8-2.513,6.041-6.289,6.781-.777.152-.95.455-.88,1.14a7.512,7.512,0,0,1-.01,1.288,1.661,1.661,0,0,1-1.657,1.637,1.734,1.734,0,0,1-1.837-1.568.266.266,0,0,1-.006-.091c.383-1.766-.433-2.351-2.118-2.781-3.123-.8-4.959-3.517-5.084-7-.072-1.992-.013-3.989-.013-5.984Zm10.805,8.2a3.734,3.734,0,0,0,1.507-3.388c.024-3.192.011-6.386,0-9.578a6.582,6.582,0,0,0-.1-1.006c-.3-1.912-1.453-2.807-3.49-2.73a2.873,2.873,0,0,0-2.968,3c-.074,3.713-.05,7.429,0,11.143a2.79,2.79,0,0,0,1.4,2.516c.147-1.391-.34-3.144,1.746-3.213C5358.389,4546.708,5357.858,4548.581,5358.034,4550.043Z" transform="translate(-182.724 -56.849)" fill="#fff"/>
      <path id="Path_37770" data-name="Path 37770" d="M5256.075,4548.882c-1.013,0-2.029.051-3.038-.018-.671-.046-.9.224-1.046.824-.273,1.162-.653,2.3-.919,3.464a1.7,1.7,0,0,1-1.784,1.405,4.706,4.706,0,0,1-2.226-.477c-1.519-.7-1.847-1.407-1.365-2.989,2.16-7.093,4.334-14.182,6.471-21.283a2.971,2.971,0,0,1,2.167-2.15,6.163,6.163,0,0,1,3.715.053,2.779,2.779,0,0,1,1.919,1.934q3.318,10.905,6.679,21.8a1.735,1.735,0,0,1-.825,2.278,4.663,4.663,0,0,1-1.953.763c-1.4.225-2.471.061-2.84-1.759-.2-.989-.568-1.944-.768-2.933-.14-.689-.413-.971-1.149-.92-1.008.07-2.025.018-3.038.018Zm2.713-4.424c-.889-3.253-1.754-6.421-2.69-9.844-.9,3.3-1.721,6.345-2.565,9.381-.115.414.04.467.382.465C5255.509,4544.454,5257.1,4544.458,5258.789,4544.458Z" transform="translate(-106.046 -56.158)" fill="#fff"/>
      <path id="Path_37771" data-name="Path 37771" d="M5179.439,4541.725q0-5.481,0-10.962c0-1.717.619-2.39,2.377-2.415,2.732-.039,5.466-.011,8.2-.011,1.5,0,3.009.021,4.514-.007a1.655,1.655,0,0,1,1.722,1.239,3.6,3.6,0,0,1,.061,2.262,1.785,1.785,0,0,1-1.993,1.517c-2.764,0-5.528.024-8.291-.021-.706-.012-.877.2-.856.876.05,1.564.034,3.132.006,4.7-.01.521.153.692.681.682,1.535-.028,3.07-.018,4.606,0,1.3.014,1.991.8,1.995,2.211a1.916,1.916,0,0,1-2.02,2.2c-1.351.02-2.7,0-4.053.007-1.4.012-1.189-.158-1.2,1.243-.012,2.579,0,5.159,0,7.738a1.856,1.856,0,0,1-1.618,2.105,4.365,4.365,0,0,1-2.005.113c-1.883-.384-2.16-1.027-2.136-2.515.056-3.653.018-7.308.018-10.962Z" transform="translate(-56.245 -56.858)" fill="#fff"/>
    </g>
  </g>
</svg>
