<svg xmlns="http://www.w3.org/2000/svg" width="128.418" height="130.81" viewBox="0 0 128.418 130.81">
  <g id="Group_35815" data-name="Group 35815" transform="translate(0 0)">
    <path id="Path_37797" data-name="Path 37797" d="M434.732,160.887a14.13,14.13,0,0,1,1.544-7.579,13.675,13.675,0,0,1,16.139-6.634c.745.236,1.093.261,1.435-.6a13.1,13.1,0,0,1,9.4-8.239,1.127,1.127,0,0,0,1.009-1.337c-.041-3.86-.023-7.721-.026-11.581,0-.351-.017-.7.01-1.052a2.039,2.039,0,0,1,2.055-2.113,1.983,1.983,0,0,1,2.051,2.1c.059,1.709.019,3.421.02,5.132,0,2.544.008,5.089-.005,7.633,0,.567.044.93.758,1.1,5.919,1.415,9.518,5.12,10.729,11.1.12.59.362.79.953.777,6.547-.153,12.217,6.118,11.475,13.1-.087.82.22.774.8.553,4.545-1.724,9.091-3.446,13.649-5.134.691-.256.769-.7.766-1.318-.016-3.29-.008-6.58-.006-9.871,0-.395-.014-.792.024-1.183a2.03,2.03,0,1,1,4.057.094c.04,2.28.01,4.562.009,6.843,0,2.018-.034,4.037.012,6.054a2.41,2.41,0,0,1-1.781,2.572c-4.393,1.63-8.769,3.3-13.151,4.963-.529.2-1.054.406-1.6.615.27.505.767.646,1.152.915a11.761,11.761,0,0,1,4.587,13,11.523,11.523,0,0,1-10.9,8.392c-15.53.071-31.059.055-46.589.032-3.329,0-6.686.343-9.984-.218a13.365,13.365,0,0,1-11-10.813,13.525,13.525,0,0,1,6.61-14.315c.26-.153.516-.313.973-.589-1.436-.622-2.722-1.182-4.009-1.738-2.413-1.042-4.808-2.125-7.245-3.105a2.58,2.58,0,0,1-1.824-2.7c.035-4.123,0-8.247.017-12.371,0-1.574.8-2.545,2.038-2.558s2.08.963,2.087,2.515c.016,3.553,0,7.107,0,10.66,0,.527-.039.991.626,1.271C425.9,157.076,430.2,158.938,434.732,160.887Zm27.755,24.3h4.342c7.5,0,15,.042,22.5-.018a7.684,7.684,0,1,0-1.02-15.274,2.091,2.091,0,0,1-2.256-.983,2.024,2.024,0,0,1,.333-2.538,7.114,7.114,0,0,0,1.776-3.745,7.694,7.694,0,0,0-9.1-8.785c-2.311.393-3.292-.385-3.192-2.485a8.842,8.842,0,0,0-4.657-8.521,9.423,9.423,0,0,0-14.148,7.052c-.272,2.227-1.686,2.916-3.6,1.774a10.623,10.623,0,0,0-1.024-.59,9.483,9.483,0,0,0-13.21,11.148c1.124,3.7.717,4.23-3.1,4.024a9.477,9.477,0,1,0-.084,18.935C444.857,185.207,453.672,185.189,462.487,185.19Z" transform="translate(-399.719 -58.514)" fill="#acacac"/>
    <path id="Path_37798" data-name="Path 37798" d="M542.446-29.848q0,10.592,0,21.183c-.007,4.4-2.339,6.722-6.754,6.726q-11.052.011-22.1,0c-4.26-.005-6.642-2.343-6.646-6.559-.012-14.254.063-28.509-.048-42.761a6.346,6.346,0,0,1,6.861-6.8c7.364.172,14.735.042,22.1.051,4.277.005,6.578,2.3,6.587,6.581C542.456-44.233,542.445-37.04,542.446-29.848Zm-4.075-.828c0-4.782-.032-9.565.025-14.346.012-1.05-.194-1.413-1.338-1.406q-12.372.08-24.744.009c-.979,0-1.342.179-1.337,1.27q.071,14.411.008,28.824c0,.931.16,1.284,1.2,1.278q12.5-.069,25.007,0c1.053.006,1.2-.362,1.2-1.284C538.348-21.111,538.37-25.893,538.37-30.675ZM524.8-11.015H513.36c-2.365,0-2.365,0-2.356,2.329.008,2.048.539,2.607,2.524,2.608q11.175.006,22.35,0c1.926,0,2.473-.566,2.485-2.511a8.721,8.721,0,0,1,.009-1.182c.139-.971-.211-1.28-1.216-1.267C533.037-10.982,528.918-11.014,524.8-11.015Zm-.159-39.51c4.03,0,8.059.011,12.089-.012.534,0,1.351.315,1.551-.269a2.545,2.545,0,0,0-.294-2.39,2.39,2.39,0,0,0-2.133-.763q-11.169.009-22.338,0a3.271,3.271,0,0,0-1.417.205,2.308,2.308,0,0,0-1.07,2.716c.239.882,1.006.485,1.525.49C516.58-50.509,520.61-50.525,524.639-50.525Z" transform="translate(-458.107 58.06)" fill="#acacac"/>
    <path id="Path_37799" data-name="Path 37799" d="M387.907,60.545q8.352,0,16.7,0c2.216,0,2.844.609,2.845,2.779q.008,11.443,0,22.887c0,2.1-.647,2.74-2.749,2.741-4.516,0-9.032.031-13.547-.031-1.06-.015-1.318.318-1.3,1.326.04,2.657,0,2.657,2.7,2.658,1.008,0,2.018-.024,3.025.008a2.046,2.046,0,0,1,2.178,1.984,2,2,0,0,1-2.078,2.083c-1.531.073-3.068.022-4.6.023q-5,0-10,0a10.005,10.005,0,0,1-1.312-.051,2.015,2.015,0,0,1,.123-4.024c1.665-.056,3.332-.044,5-.008.665.015.892-.164.917-.873.108-3.111.135-3.1-3.024-3.1q-5.984.012-11.969,0c-1.91,0-2.631-.71-2.633-2.614q-.013-11.575,0-23.15c0-1.908.724-2.629,2.623-2.632Q379.358,60.536,387.907,60.545Zm-.138,24.313c4.779,0,9.56-.028,14.339.022,1.036.011,1.328-.293,1.319-1.329q-.076-8.814-.011-17.628c.006-.944-.2-1.294-1.221-1.29q-14.4.052-28.81,0c-.879,0-1.1.293-1.1,1.129.03,5.963.041,11.928-.008,17.891-.008,1.026.337,1.234,1.281,1.225C378.3,84.835,383.033,84.858,387.769,84.858Z" transform="translate(-368.18 -18.832)" fill="#acacac"/>
    <path id="Path_37800" data-name="Path 37800" d="M641.336,58.963q8.423,0,16.846,0c2.074,0,2.734.671,2.736,2.775q.008,11.385,0,22.769c0,2.17-.674,2.856-2.813,2.86-4.562.007-9.125.02-13.688-.014-.817-.006-1.134.164-1.133,1.07,0,2.9-.039,2.894,2.856,2.9,1.009,0,2.02-.029,3.027.019a2,2,0,0,1,2.034,1.982,1.951,1.951,0,0,1-1.985,2.018q-7.962.054-15.924.006a1.905,1.905,0,0,1-1.946-2.042,1.963,1.963,0,0,1,2.041-1.965c1.534-.053,3.074-.089,4.6,0,1.027.056,1.246-.33,1.238-1.279-.024-2.681.015-2.683-2.7-2.684-4.036,0-8.072,0-12.109,0-2.106,0-2.767-.64-2.77-2.739q-.015-11.582.006-23.164c0-1.841.691-2.5,2.57-2.5Q632.781,58.957,641.336,58.963Zm-.125,24.276c4.826,0,9.651-.017,14.476.016.832.006,1.134-.2,1.129-1.088q-.054-9.014,0-18.029c0-.875-.275-1.118-1.123-1.116q-14.41.035-28.82,0c-.9,0-1.2.235-1.2,1.174q.06,8.948,0,17.9c-.006.935.285,1.176,1.189,1.168C631.648,83.219,636.43,83.24,641.211,83.24Z" transform="translate(-532.504 -17.807)" fill="#acacac"/>
    <path id="Path_37801" data-name="Path 37801" d="M516.859,214.641a19.474,19.474,0,0,1,14.1,6.107c1.06,1.086,1.141,2.235.273,3.13s-2.115.788-3.226-.3c-6.653-6.494-15.388-6.488-22.124.016-1.118,1.08-2.354,1.184-3.228.274-.851-.887-.758-2.036.3-3.125A19.313,19.313,0,0,1,516.859,214.641Z" transform="translate(-454.988 -118.735)" fill="#acacac"/>
    <path id="Path_37802" data-name="Path 37802" d="M525.752,235.047a13.041,13.041,0,0,1,9.218,4.053,2.107,2.107,0,0,1,.2,3.135,2,2,0,0,1-3.035-.209,8.936,8.936,0,0,0-13.123.031,1.966,1.966,0,0,1-3.028.136,2.1,2.1,0,0,1,.2-3.042A13.336,13.336,0,0,1,525.752,235.047Z" transform="translate(-463.639 -131.965)" fill="#acacac"/>
    <path id="Path_37803" data-name="Path 37803" d="M533.984,255.746a6.658,6.658,0,0,1,4.976,1.947,2.068,2.068,0,0,1,.173,2.948,2,2,0,0,1-2.839.142c-1.888-1.378-2.389-1.377-4.288.011a2.014,2.014,0,0,1-2.841-.159,1.992,1.992,0,0,1,.1-2.841A6.361,6.361,0,0,1,533.984,255.746Z" transform="translate(-472.195 -145.384)" fill="#acacac"/>
    <path id="Path_37804" data-name="Path 37804" d="M540.125,279.356a2.311,2.311,0,0,1,2.3,2.354,2.295,2.295,0,0,1-4.589.016A2.305,2.305,0,0,1,540.125,279.356Z" transform="translate(-478.172 -160.691)" fill="#acacac"/>
    <path id="Path_37805" data-name="Path 37805" d="M556.14,79.65a1.514,1.514,0,0,1-1.606,1.4,1.557,1.557,0,0,1-1.6-1.69,1.53,1.53,0,0,1,1.605-1.564A1.628,1.628,0,0,1,556.14,79.65Z" transform="translate(-487.953 -30.016)" fill="#acacac"/>
  </g>
</svg>
