
<svg version="1.0" xmlns="http://www.w3.org/2000/svg"
 width="27" height="27" viewBox="0 0 130.000000 131.000000"
 preserveAspectRatio="xMidYMid meet">

<g transform="translate(0.000000,131.000000) scale(0.100000,-0.100000)"
fill="#0083dd" stroke="none">
<path d="M533 1285 c-133 -29 -280 -134 -346 -248 -38 -64 -65 -144 -73 -216
-5 -49 -11 -63 -34 -79 -55 -41 -70 -93 -70 -242 0 -162 15 -205 88 -251 42
-27 53 -29 142 -29 61 0 100 4 108 12 9 9 12 83 12 269 0 255 0 258 -22 273
-14 10 -44 16 -75 16 -63 0 -65 6 -33 101 48 143 153 244 297 289 205 63 435
-39 528 -236 28 -60 42 -70 80 -60 93 23 -75 276 -235 354 -117 58 -244 74
-367 47z m-273 -786 l0 -192 -46 6 c-32 3 -54 13 -75 33 l-29 28 0 125 c1 84
5 131 13 141 24 31 62 50 99 50 l38 0 0 -191z"/>
<path d="M968 780 c-16 -10 -18 -35 -18 -293 0 -345 6 -327 -115 -327 -73 0
-89 3 -121 25 -47 32 -85 32 -122 0 -39 -33 -48 -74 -27 -118 28 -60 102 -75
153 -32 27 23 39 25 118 25 127 0 185 35 203 121 7 34 7 34 74 40 54 5 74 11
105 35 65 52 77 90 77 239 0 72 -3 142 -8 157 -10 36 -62 95 -101 115 -37 19
-193 29 -218 13z m201 -124 c24 -25 26 -33 29 -139 2 -63 -1 -124 -7 -139 -14
-38 -67 -69 -111 -66 l-35 3 -3 175 c-1 96 0 181 3 188 9 24 92 9 124 -22z"/>
</g>
</svg>
