<svg xmlns="http://www.w3.org/2000/svg" width="173" height="174" viewBox="0 0 173 174">
  <g id="Group_35792" data-name="Group 35792" transform="translate(-0.419 -0.191)">
    <ellipse id="Ellipse_235" data-name="Ellipse 235" cx="86.5" cy="87" rx="86.5" ry="87" transform="translate(0.419 0.191)" fill="#0e77ff"/>
    <g id="Group_35791" data-name="Group 35791" transform="translate(46.768 40.592)">
      <path id="Path_37764" data-name="Path 37764" d="M5541.132,4148.11a10.767,10.767,0,0,1-3.692-1.566,8.134,8.134,0,0,1,4.044-14.654,8,8,0,0,1,7.979,4.6,1.167,1.167,0,0,0,1.262.8c4.233-.036,8.466-.014,12.7-.02a8.272,8.272,0,0,0,8.512-8.458c.017-2.407-.014-4.813.015-7.22.008-.574-.133-.783-.74-.762-1.319.046-2.642.049-3.961,0-.629-.024-.741.22-.727.776.034,1.323-.019,2.648.024,3.97.018.574-.175.711-.715.7-1.26-.036-2.524-.058-3.781.007-.75.039-.943-.177-.94-.934.03-7.851.019-15.7.019-23.553,0-4.181.014-8.363-.014-12.544,0-.67.112-.954.865-.914,1.287.069,2.582.049,3.872.005.576-.02.707.179.693.718-.035,1.353.009,2.708-.022,4.06-.012.51.141.674.656.662,1.38-.032,2.762-.016,4.143-.008.356,0,.6,0,.627-.5A30.167,30.167,0,0,0,5549.4,4062a29.771,29.771,0,0,0-36.176,22.461,37.133,37.133,0,0,0-.742,8.695c.007.453.106.636.6.627q2.115-.045,4.232,0c.5.011.6-.186.591-.633-.022-1.383.015-2.768-.019-4.151-.013-.522.16-.665.664-.653,1.32.031,2.643.043,3.962,0,.623-.022.812.147.8.791-.035,2.978-.016,5.956-.016,8.934,0,9.024-.017,18.049.025,27.073,0,.978-.287,1.2-1.189,1.143-1.2-.077-2.4-.043-3.6-.008-.522.016-.662-.164-.65-.667.031-1.323-.023-2.648.024-3.97.022-.626-.148-.816-.79-.805-2.342.039-4.684.021-7.026.014a8.115,8.115,0,0,1-8.411-8.41c-.01-3.429-.017-6.858,0-10.287a7.9,7.9,0,0,1,4.883-7.641c.516-.24.528-.557.518-.984a36.879,36.879,0,0,1,1.067-11c4.1-14.338,13.409-23.152,28-26.287,1.224-.263,2.481-.372,3.725-.553h4.684c1.182.173,2.376.29,3.546.528,14.035,2.852,23.225,11.2,27.75,24.738a35.92,35.92,0,0,1,1.486,12.562.919.919,0,0,0,.6,1.022,7.933,7.933,0,0,1,4.807,7.6c.02,3.488.035,6.977,0,10.465a7.881,7.881,0,0,1-4.75,7.458.99.99,0,0,0-.658,1.078c.026,2.556.019,5.112.011,7.668a13.681,13.681,0,0,1-13.87,13.883c-4.292.005-8.584.011-12.876-.011a.978.978,0,0,0-1.067.671,7.948,7.948,0,0,1-5.575,4.564c-.17.042-.365.014-.48.192Z" transform="translate(-5501.669 -4055.687)" fill="#fff"/>
    </g>
  </g>
</svg>
