<svg id="Group_2477" data-name="Group 2477" xmlns="http://www.w3.org/2000/svg" xmlns:xlink="http://www.w3.org/1999/xlink" width="549.712" height="715.355" viewBox="0 0 549.712 715.355">
  <defs>
    <clipPath id="clip-path">
      <rect id="Rectangle_2223" data-name="Rectangle 2223" width="549.712" height="715.355" fill="#fff"/>
    </clipPath>
  </defs>
  <g id="Group_2476" data-name="Group 2476" clip-path="url(#clip-path)">
    <path id="Path_6471" data-name="Path 6471" d="M167.622,221.408a59.374,59.374,0,0,0-3.334-19.362,55.636,55.636,0,0,0,1.976-13.447q0-13.82-10.183-22.085t-27.212-8.268q-17.165,0-38.453,7.65a153.274,153.274,0,0,0-38.327,19.993,133.69,133.69,0,0,0-38.018,40.579Q-.006,250.037,0,272.726q0,24.786,14.132,40.221,14.136,15.417,36.844,15.417,17.293,0,37.963-8.941a154.135,154.135,0,0,0,38.685-24.244,122.744,122.744,0,0,0,29.383-35.345q10.613-19.537,10.614-38.425m-48.63,68.833Q84.057,325.773,49.5,325.773q-17.032,0-27.839-11.471-10.8-11.448-10.8-29.7,0-28.709,18.644-58.06a149.911,149.911,0,0,1,45.549-46.47q29-18.858,57.393-18.858,14.315,0,23.079,7.586t8.767,20.045a34.067,34.067,0,0,1-1.48,9.874q-3.827-10.241-14.438-16.6a46.059,46.059,0,0,0-24.073-6.353q-31.48,0-62.884,29.922Q29.992,235.589,30,265.7q0,13.072,7.09,21.77,7.1,8.713,17.723,8.7a19.574,19.574,0,0,0,13.141-4.809q5.607-4.8,5.613-11.345,0-8.759-7.895-8.761a9.26,9.26,0,0,0-6.791,2.839,9.525,9.525,0,0,0-2.842,7.026q0,6.8,5.8,6.791,3.336,0,4.818-1.487l1.11-.489c.251,0,.416.245.492.743q0,2.345-4.38,4.815a17.537,17.537,0,0,1-8.58,2.456,17.057,17.057,0,0,1-14.318-7.213q-5.433-7.213-5.429-18.815,0-29.108,30.179-59.641t58.816-30.536q15.43,0,24.443,9.076,9.011,9.057,9.005,24.474-8.883,18.266-28.879,29.368-1.978,1.106-1.979,1.728a.872.872,0,0,0,.979.991q3.845,0,14.637-10.054,10.8-10.071,15-17.46-3.831,38.867-38.756,74.382" transform="translate(0 325.805)" fill="#fff"/>
    <path id="Path_6472" data-name="Path 6472" d="M154.1,197.21a10.947,10.947,0,0,0,7.962-3.759,11.5,11.5,0,0,0,3.643-8.081q0-5.3-5.31-5.3c-2.793,0-5.475,1.257-8.017,3.762q-3.836,3.772-3.839,7.837,0,5.547,5.561,5.546" transform="translate(305.815 370.727)" fill="#fff"/>
    <path id="Path_6473" data-name="Path 6473" d="M416.953,206.292q6.428-10.608,9.507-15.915,6.419-10.232,9.629-15.414c1.4-2.221,2.423-3.915,3.086-5.062a49.459,49.459,0,0,1-7.9.991,43.124,43.124,0,0,1-7.537-.991l-45.292,75.746q-3.914,6.841-6.629,11.559a4.848,4.848,0,0,0-.355.59q-27.681,39.165-38.685,39.172-5.8,0-5.806-5.555,0-5.428,6.044-15.417l28.016-46.014a71.582,71.582,0,0,1-9.375.863,29.43,29.43,0,0,1-6.047-.863L329.72,256.971a4.863,4.863,0,0,0-.713.826q-26.7,39.165-37.948,39.172-5.813,0-5.806-5.555,0-5.065,5.062-13.566l27.527-47h16.169l.985-1.854H318.825l14.193-23.932a27.529,27.529,0,0,1-7.161.994,27.09,27.09,0,0,1-7.032-.994l-14.447,23.932H292.038l-1.236,1.854h12.59L286.1,259.853q-25.791,37.073-36.52,37.116-5.061,0-5.068-5.069,0-4.8,11.608-22.2,11.356-17.032,11.358-25.288a16.642,16.642,0,0,0-3.7-10.99,11.482,11.482,0,0,0-9.137-4.435q-6.671,0-14.508,7.406t-22.4,27.514q9.259-14.072,9.25-21.966a14.511,14.511,0,0,0-2.964-9.131,8.856,8.856,0,0,0-7.17-3.824q-6.547,0-25.471,25.349l-1.695,2.236-.034-.012c-.413,0-.866.416-1.361,1.233a211.858,211.858,0,0,1-22.128,27.866q-10.874,11.306-15.826,11.306-4.818,0-4.815-5.8,0-6.056,11.361-25.052l21.846-36.137a56.681,56.681,0,0,1-8.641.863,29.515,29.515,0,0,1-6.546-.863l-6.292,11.963a21.411,21.411,0,0,0,.985-5.549q0-7.415-7.65-7.406-9.007,0-23.7,8.149-22.193,12.1-29.622,26.606-23.446,33.192-33.819,33.222-5.809,0-5.806-5.555,0-5.065,5.059-13.566l27.527-47H106.4l.991-1.854H91.219L105.4,205.059a27.485,27.485,0,0,1-7.155.994,27.033,27.033,0,0,1-7.029-.994l-14.45,23.932H64.429l-1.242,1.854h12.6L55.045,265.637q-6.552,11.1-6.54,18.5a14.827,14.827,0,0,0,3.888,10.486,12.686,12.686,0,0,0,9.706,4.2q11.177,0,32.779-29.261a32.6,32.6,0,0,0-1.441,9.522q0,8.511,4.438,14.129a13.533,13.533,0,0,0,10.984,5.61q6.176,0,12.716-6.041,6.543-6.061,18.888-23.318-3.951,7.773-3.949,14.429a16.026,16.026,0,0,0,3.582,10.678,11.556,11.556,0,0,0,9.268,4.252q8.4,0,22.987-17.546,14.8-17.541,17.448-22.424a6.848,6.848,0,0,0,1.214-1.419q18.555-26.594,24.859-26.584c2.059,0,3.1,1.236,3.1,3.7q0,6.557-16.417,32.7L183.3,297.709a62.876,62.876,0,0,1,8.143-.5c.823,0,3.258.168,7.286.5q37.523-66.869,55.543-66.863c3.542,0,5.3,1.685,5.3,5.056q0,4.065-9.993,18.867-9.631,14.081-11.911,18.824a23.453,23.453,0,0,0-2.279,10.3,15.583,15.583,0,0,0,3.769,10.614,11.907,11.907,0,0,0,9.329,4.316q8.4,0,23.1-17.546,4.483-5.336,7.84-9.5c-2.19,4.735-3.31,8.868-3.31,12.367a14.791,14.791,0,0,0,3.894,10.486,12.664,12.664,0,0,0,9.7,4.2q11.255,0,33.124-29.723-4.992,9.805-4.992,15.291a14.421,14.421,0,0,0,3.888,10.293,12.738,12.738,0,0,0,9.7,4.139q11.659,0,33.308-29.295l-10.241,17.818q-3.446,6.052-6.292,10.859a63.57,63.57,0,0,1,8.02-.74,30.151,30.151,0,0,1,6.546.74l1.606-2.472q5.061-8.511,13.327-24.055,7.405-13.935,18.026-31.087ZM139.224,268.72q-20.982,28.236-29.5,28.248-7.167,0-7.155-8.017,0-13.705,18.448-35.9,18.454-22.184,29.809-22.2,5.556,0,5.555,6.044,0,8.631-17.16,31.83" transform="translate(99.865 349.801)" fill="#fff"/>
    <path id="Path_6474" data-name="Path 6474" d="M220.662,216.8c-.492,0-1.025.416-1.6,1.23q-26.291,39.165-37.893,39.172-4.074,0-4.074-3.218,0-1.968,2.591-7.164,6.052-12.361,6.053-16.677,0-7.791-12.838-13.716,6.419-2.822,16.662-14.523,8.025-9.342,13.334-9.351c2.551,0,3.824.994,3.824,2.961a6.617,6.617,0,0,1-3.331,5.919q-8.029,5.075-8.026,9.5,0,4.818,5.313,4.818,4.676,0,9.44-5.867,4.749-5.85,4.75-11.789,0-8.865-9.381-8.877-7.649,0-14.936,8.375-13.577,15.637-19.751,18.338a20.854,20.854,0,0,0-7.28-1.23c-2.71,0-4.081.7-4.081,2.1,0,1.646,1.45,2.472,4.331,2.472a21,21,0,0,0,7.773-1.976c2.719,1.569,4.084,3.252,4.084,5.062q0,2.23-2.355,6.8l-.122.492q-6.91,13.714-6.91,17.665,0,4.575,4.077,8.158a13.8,13.8,0,0,0,9.391,3.579q11.861,0,35.22-32.246l5.313-7.28a13.2,13.2,0,0,0,1.233-1.985c0-.492-.269-.737-.8-.737" transform="translate(328.249 389.571)" fill="#fff"/>
    <path id="Path_6475" data-name="Path 6475" d="M133.5,224.168c-4.218,0-7.769,1.6-9.5,4.215-1.716-2.615-5.206-4.209-9.348-4.209a12.312,12.312,0,0,0-8.424,2.933V224.3h-2.251v29.212h2.251v-21.6c.184-3.6,4.386-5.481,8.445-5.481,3.946,0,8.182,1.811,8.182,5.781v21.3h2.264v-21.3c0-3.989,4.307-5.806,8.308-5.806,4.019,0,8.326,1.817,8.326,5.806v21.3H144v-21.3c0-5.521-5.451-8.039-10.5-8.039" transform="translate(214.069 461.528)" fill="#fff"/>
    <path id="Path_6476" data-name="Path 6476" d="M156.318,241.493a13.228,13.228,0,0,0,6.91-1.563,7.937,7.937,0,0,0,3.83-7.207,8.24,8.24,0,0,0-4.549-7.146,14.16,14.16,0,0,0-6.4-1.419,17.326,17.326,0,0,0-4.331.52c-4.233,1.187-6.656,3.82-6.656,7.213v13.783a7,7,0,0,0,1.211,4.068c2.025,2.79,5.723,3.652,7.225,3.888a15.965,15.965,0,0,0,2.664.214c2.282,0,6.552-.477,9.32-3.716l.541-.624-1.979-1.123-.367.395a10.513,10.513,0,0,1-7.7,2.793,13.8,13.8,0,0,1-2.539-.232c-1.379-.248-3.9-.961-5.267-2.888a4.447,4.447,0,0,1-.85-2.713v-4.243Zm-8.938-9.424c0-2.429,1.863-4.368,4.977-5.176a14.3,14.3,0,0,1,3.75-.483,12.289,12.289,0,0,1,5.439,1.168,6.037,6.037,0,0,1,3.23,5.225,5.706,5.706,0,0,1-2.722,5.13,10.773,10.773,0,0,1-5.735,1.245H147.38Z" transform="translate(298.78 461.51)" fill="#fff"/>
    <path id="Path_6477" data-name="Path 6477" d="M79.722,224.176c-5.295,0-10.981,2.435-10.981,7.788v14.019c0,5.258,5.6,7.727,10.8,7.791l.2.006c5.267,0,10.938-2.441,10.938-7.8V231.964c0-5.353-5.686-7.788-10.96-7.788m8.693,21.807a4.8,4.8,0,0,1-2.6,4.145,11.962,11.962,0,0,1-6.075,1.465c-4.215,0-8.748-1.753-8.748-5.61V231.964c0-3.8,4.533-5.521,8.748-5.521,4.166,0,8.672,1.722,8.672,5.521Z" transform="translate(141.527 461.545)" fill="#fff"/>
    <path id="Path_6478" data-name="Path 6478" d="M51.146,242.155l-.055-.138a1.975,1.975,0,0,0-.141-.272l-.93-1.266a11.562,11.562,0,0,0-8.669-3.356,12.287,12.287,0,0,0-8.415,2.933v-22.18H30.682v48.587h2.254V244.856c.184-3.6,4.38-5.482,8.442-5.482,3.946,0,8.192,1.811,8.192,5.781v21.308h2.251l-.028-21.458a8.432,8.432,0,0,0-.648-2.851" transform="translate(63.17 448.576)" fill="#fff"/>
    <path id="Path_6479" data-name="Path 6479" d="M137.294,84.184c11.468,131.555,3.619,253.937,3.619,253.937s14.9-13.707,17.341-30.283c4.077-13.245,4.246-190.169-5.038-227.159C147.395,55.416,118.981,29.724,111,26.653a.376.376,0,0,0-.425.578c7.2,8.531,24.963,36.77,26.716,56.953" transform="translate(227.495 54.825)" fill="#fff"/>
    <path id="Path_6480" data-name="Path 6480" d="M113.17,77.951c-1.064.147-2.156.306-3.239.508a61.985,61.985,0,0,1-11.648,1.217c-.743-.009-1.465-.037-2.181-.083l-1.585,41.9a183.225,183.225,0,0,0,17.5-12.988Z" transform="translate(194.596 160.489)" fill="#fff"/>
    <path id="Path_6481" data-name="Path 6481" d="M96.4,31.5a8.249,8.249,0,0,1,1.239,4.27L97.7,94.64l.511,73.336c3.668-2.664,7.84-4.524,12.367-4.5.18,0,.349,0,.526.006a23.392,23.392,0,0,1,4.013.529c.444-12.55-.762-45.1-1.695-67.117-.538-12.547-.762-40.958-.762-40.958,2.6-1.517,7.834,11.266,11.024,11.042,5.154-2.505-11.835-59.369-14.043-66.723A.348.348,0,0,0,109,.183L94.461,25.9a2.492,2.492,0,0,0,.04,2.539Z" transform="translate(193.805 0.001)" fill="#fff"/>
    <path id="Path_6482" data-name="Path 6482" d="M77.357,245.327a73.33,73.33,0,0,0,8.033.492c1.419.006,2.833-.021,4.24-.092v-.477C89.62,234.129,77.146,82.395,123.1,32.1c0,0,5-4.42,4.065-5.472s-5.316,3.27-7.479,5.347c-2.169,2.092-41.377,33.2-45.026,104.741-2.848,55.408-2.521,93.228-2.23,107.476,1.545.428,3.2.8,4.925,1.132" transform="translate(148.747 54.501)" fill="#fff"/>
    <path id="Path_6483" data-name="Path 6483" d="M72.284,181.62a138.52,138.52,0,0,0,16.888-4.2c.055-15,.174-42.894.266-66.325-2.288.22-4.558.327-6.785.318a58.455,58.455,0,0,1-10.214-.948Z" transform="translate(148.822 227.425)" fill="#fff"/>
    <path id="Path_6484" data-name="Path 6484" d="M58.709,167.887q17.38-.711,21.146-3.178t8.687-9.421q5.942-8.263,5.94-13.756,0-5.657-8.9-5.653t-8.913-2.031q0-1.294,3.7-4.133a19.56,19.56,0,0,1,5.286-3.248q.725-.147,2.823-5.439t2.1-7.023c0-.572-.333-.863-1.009-.863q-4.634,0-12.9,11-8.4,11.443-8.4,19.265,0,7.525,16.8,7.818-1.744,3.482-11.728,7.965-7.4,3.051-14.927,6.081c-1.643.688-2.465,1.266-2.465,1.747q0,1.014,2.759.866" transform="translate(115.193 232.944)" fill="#fff"/>
    <path id="Path_6485" data-name="Path 6485" d="M154.211,91.422c-1.688-5.53-12.1-5.714-14.291-11.455.055-.792,0-1.786-1.1-1.49-5.524,3.505-10.088,15.083-8.513,21.384,5.1,15.254,28.12,9.6,23.9-8.439m-7.145,12.242c-3.34-4.7-11.293-6-10.314-13.893,7.956,1.276,11.4,5.925,10.314,13.893" transform="translate(267.644 161.462)" fill="#fff"/>
    <path id="Path_6486" data-name="Path 6486" d="M90.123,72.077l-.147-.119c-.254.168-1.1,1.9-2.389,5.316-4.98,13.878-6.638,26.493-5.179,38.285,1.438,9.516,4.851,13.765,10.532,12.991,5.423-.725,8.378-7.742,9-21.03a1.22,1.22,0,0,0-.18-1.331c-.031-.251-.168-.226-.416-.064a4.823,4.823,0,0,0-.639,1.288c-2.187,5.7-4.448,8.831-6.833,9.161-4.1.551-6.589-2.884-7.549-10.027-.74-5.42.245-14.988,3.08-28.854a30.887,30.887,0,0,0,.722-5.616" transform="translate(168.619 148.151)" fill="#fff"/>
    <path id="Path_6487" data-name="Path 6487" d="M115.452,117.185c-4.906-3.193-23.6-2.077-27.8,1.915-2.771,2.628-3.4,6.723-5.726,10.333,6.72-4.172,18.965-6.736,27.046-3.261-7.093,8.173-17.867,9.81-27.958,12.67,15.7.257,28.248-5.081,34.443-21.657" transform="translate(166.785 237.446)" fill="#fff"/>
    <path id="Path_6488" data-name="Path 6488" d="M149.236,161.992l-.826,4.307s-1.5-6.017-3.349-8.008c-1.456-1.294-2.392-2.117-2.392-2.117a4.485,4.485,0,0,0-2.089-.954,1.921,1.921,0,0,0-1.979,1.071l-6.243,8.176c-1.557,2.025-4.068-.248-4.068-.248-6.714-5.065-15.9-15.068-15.9-15.068s-2.215-2.982-5.408.4a146.4,146.4,0,0,0-11.3,13.74c-2.065,2.982.373,4.9,3.557,7.357,3.325,2.554,11.936,10.33,16.053,14.386,3.1,3.065,5.524.239,5.524.239l4.876-5.986s2.438-3.184,5.142-.48c3.356,3.362,12.817,11.93,15.414,14.441s4.344.159,4.753-.364,10.354-12.092,11.208-13.285c.832-1.187,2.854-2.569.56-5.163-1.358-1.523-8.21-7.7-13.529-12.446" transform="translate(195.417 304.581)" fill="#fff"/>
    <path id="Path_6489" data-name="Path 6489" d="M107.788,158.842s-2.175,3.016,2.007,5.035a146.33,146.33,0,0,0,16.515,6.638c3.463,1.068,4.558-1.832,5.934-5.613,1.432-3.934,6.255-14.484,8.886-19.635,1.979-3.876-1.435-5.341-1.435-5.341l-7.173-2.854s-3.772-1.358-2.013-4.753c2.2-4.209,7.513-15.808,9.128-19.044s-1.156-4.191-1.786-4.429c-.618-.22-14.646-6.222-16.041-6.681-1.38-.44-3.31-1.948-5.081,1.025-1.049,1.75-4.876,10.152-7.8,16.649l4.356-.511s-5.28,3.245-6.632,5.61c-.8,1.777-1.294,2.915-1.294,2.915a4.589,4.589,0,0,0-.288,2.285A1.933,1.933,0,0,0,106.7,131.7l9.675,3.49c2.4.875.988,3.952.988,3.952-2.8,7.929-9.574,19.705-9.574,19.705" transform="translate(216.26 208.749)" fill="#fff"/>
    <path id="Path_6490" data-name="Path 6490" d="M131.213,126.194l15.909,7.032-6.87-.422c4.561,3.343,9.177,6.748,10.678,7.874,2.823,2.12,4.224-.376,4.564-.942s8.528-12.979,9.2-14.242,2.45-2.842-.08-5.062c-2.548-2.215-21.727-15.212-21.727-15.212a4.434,4.434,0,0,0-2.141-.67,1.893,1.893,0,0,0-1.78,1.288l-7.69,13.309c-1.266,2.153-2.722,5.133-.743,6.549.2.147.428.309.682.5" transform="translate(266.744 215.244)" fill="#fff"/>
    <path id="Path_6491" data-name="Path 6491" d="M275.554,142.469a34.48,34.48,0,0,1-2.933,2.6c-1.511,6.641-5.533,25.107-5.533,25.107s8.568,7.91,9.391,19.959c0,0-43.806,31.093-137.535,26.165-39.8-2.1-49.119-33.862-50.009-69.179a130.873,130.873,0,0,1-16.319,5.038c-.743,13.312-1.224,32.516,3.762,49.985,1.294,3.986,12.242,33.739,49.376,33.739a52.851,52.851,0,0,1-25.658.08c7.721,4.778,17.487,7.907,29.888,8.562,72.684,3.811,147.752-16.839,153.028-40.875,5.139-23.354,5.79-50.144-7.458-61.18" transform="translate(148.549 293.322)" fill="#fff"/>
    <path id="Path_6492" data-name="Path 6492" d="M199.6,197.563s-2.621,12.728,1.422,25.425c1.759,4.781,6.993,13.838,21.617,14.569a35.911,35.911,0,0,1-14.01-1.233,35,35,0,0,0,15.771,9.519c37.908,11.134,56.833-32.546,56.833-32.546,8.458,27.582,33.907,30.809,48.076,15.872a28.013,28.013,0,0,1-14.224,1.664c14.646-.214,20.329-10.614,22.342-16.135,7.308-23.492-3.665-42.946-5.209-45.5a.244.244,0,0,0-.395-.034c-4.573,5.365-8.158,24.012-8.858,27.9a1.321,1.321,0,0,0,.327,1.15,29.321,29.321,0,0,1,3.891,6.417.356.356,0,0,1-.174.48c-19.032,9.565-31.989-3.38-33.341-8.357s-1.025-16.454-2.8-16.891c-4.7.508-17.549,47.654-59.446,37.134-16.123-4.05-14.964-32.751-14.964-32.751l-.786-85.639a198.79,198.79,0,0,1-16.86,14.019c.089,5.035.563,28.551,1.575,62.2a2.191,2.191,0,0,1-.719,1.695C169.2,203,116.51,222.2,76.451,206.283c-33.491-13.309-16.606-59.317-9.831-74.7a.368.368,0,0,0-.652-.343c-8.5,13.817-31.261,56.157-15.8,85.241,2.676,4.426,10.938,14.218,32.311,15.927a52.061,52.061,0,0,1-15.218.973C134.826,263.417,199.6,197.563,199.6,197.563" transform="translate(92.471 203.027)" fill="#fff"/>
    <path id="Path_6493" data-name="Path 6493" d="M78.52,212.834c1.477.9,9.063,5.02,24.2,5.02,0,0-3.811,1.627-12.636,1.068,27.138,9.632,70.36-3.059,118.381-62.719a21.009,21.009,0,0,0,2.845-4.732c17.139-38.847,9.326-65.181-3.45-80.439a23.984,23.984,0,0,1-.667,14.894c-4.307-18.375-10.314-24.587-13.19-26.6A21.427,21.427,0,0,0,180.5,54.8a15.675,15.675,0,0,0-7.234,1.817l-.021.006c-14.661,7.577-27.875,36.871-24.26,49.74,4.191,14.964,11.982,19.139,30.546,15.67,18.589-3.453,39.165,2.817,32.653,10.929-3,3.75-14.291,16-30.032,28.7v-.006c-2.352,1.893-4.809,3.8-7.375,5.668l.049-.028c-19.815,14.456-45.635,27.156-73.581,23.8-66.863-12.434-6.3-97.684-10.1-104.444a.218.218,0,0,0-.379-.009c-2.652,4.1-37.621,59.094-29.077,99.7A43.809,43.809,0,0,0,78.52,212.834m82.9-122.195c12.431-19.925,29.466,2.352,29.466,2.352s-25.434,4.319-29.466-2.352" transform="translate(124.245 112.829)" fill="#fff"/>
  </g>
</svg>
