<?xml version="1.0" encoding="iso-8859-1"?>
<!-- Generator: Adobe Illustrator 19.0.0, SVG Export Plug-In . SVG Version: 6.00 Build 0)  -->
<svg version="1.1" id="Capa_1" xmlns="http://www.w3.org/2000/svg" xmlns:xlink="http://www.w3.org/1999/xlink" x="0px" y="0px"
	 viewBox="0 0 512.005 512.005" style="enable-background:new 0 0 512.005 512.005;" xml:space="preserve">
<g>
	<g>
		<path d="M479.569,50.496l-18.105-18.097c-20.87-20.87-48.719-32.363-78.428-32.363s-57.567,11.493-78.428,32.363l-50.929,50.929
			c-35.434,35.434-42.328,90.561-17.662,133.631l-19.112,19.112c-43.053-24.658-98.189-17.764-133.623,17.653l-50.92,50.929
			C11.493,325.523,0,353.381,0,383.081c0,29.701,11.493,57.558,32.363,78.419l18.105,18.105
			c20.861,20.87,48.719,32.363,78.419,32.363c29.701,0,57.558-11.493,78.428-32.363l50.92-50.929
			c35.434-35.434,42.328-90.561,17.662-133.631l19.078-19.078c17.133,9.821,36.159,14.667,55.118,14.667
			c28.702,0,57.2-11.024,78.539-32.363l50.929-50.929C522.819,164.111,522.819,93.737,479.569,50.496z M209.986,380.419
			l-50.929,50.929c-7.986,7.978-18.694,12.363-30.178,12.363c-11.484,0-22.192-4.394-30.17-12.363l-18.097-18.097
			c-7.978-7.986-12.372-18.694-12.372-30.17s4.394-22.192,12.372-30.17l50.92-50.929c8.31-8.302,19.974-12.551,31.646-12.201
			L147.53,305.43c-7.875,7.875-12.218,18.353-12.218,29.496c0,11.143,4.343,21.621,12.218,29.496
			c8.131,8.131,18.813,12.201,29.496,12.201s21.365-4.07,29.496-12.201l15.767-15.768
			C222.75,360.326,218.51,371.896,209.986,380.419z M431.311,159.094l-50.92,50.929c-8.31,8.293-19.948,12.551-31.637,12.193
			l15.64-15.64c7.884-7.875,12.218-18.353,12.218-29.496c0-11.143-4.334-21.621-12.218-29.496
			c-16.262-16.262-42.729-16.262-58.992,0l-15.674,15.682c-0.034-0.512-0.154-0.998-0.154-1.51c0-11.476,4.394-22.192,12.372-30.17
			l50.92-50.929c7.986-7.978,18.694-12.363,30.17-12.363s22.192,4.394,30.17,12.363l18.105,18.105
			C447.94,115.392,447.94,142.456,431.311,159.094z"/>
	</g>
</g>
<g>
</g>
<g>
</g>
<g>
</g>
<g>
</g>
<g>
</g>
<g>
</g>
<g>
</g>
<g>
</g>
<g>
</g>
<g>
</g>
<g>
</g>
<g>
</g>
<g>
</g>
<g>
</g>
<g>
</g>
</svg>
