<svg xmlns="http://www.w3.org/2000/svg" width="22.486" height="25.278" viewBox="0 0 22.486 25.278">
  <g id="Group_6085" data-name="Group 6085" transform="translate(0 0)">
    <path id="Path_7265" data-name="Path 7265" d="M227.337,381.1c-.286-.064-.574-.121-.858-.193a6.028,6.028,0,0,1,.677-11.813,5.871,5.871,0,0,1,3.206.437c.162.07.16.128.074.257-.169.253-.334.509-.481.775-.082.148-.163.158-.311.1a4.61,4.61,0,0,0-4.224.444,4.712,4.712,0,1,0,6.874,5.849,4.394,4.394,0,0,0,.3-2.773.634.634,0,0,1,.1-.529c.247-.367.472-.749.726-1.158a5.486,5.486,0,0,1,.534,1.751,6.022,6.022,0,0,1-4.119,6.559c-.4.137-.815.169-1.213.29Z" transform="translate(-211.705 -355.818)" fill="#5e5e5e"/>
    <path id="Path_7266" data-name="Path 7266" d="M202.1,338.942v-.332q0-3.728,0-7.456c0-.479-.137-.616-.617-.616H190.892c-.459,0-.6.145-.6.608q0,7.715,0,15.43c0,.466.134.6.608.6,2.37,0,4.74,0,7.11,0a.283.283,0,0,1,.328.236,6.522,6.522,0,0,0,.674,1.456h-8.278a2.106,2.106,0,0,1-2.126-1.978c-.008-.107-.012-.214-.012-.321q0-7.7,0-15.4a2.2,2.2,0,0,1,.856-1.874,2.072,2.072,0,0,1,1.211-.429c.252-.01.578.107.735-.054s.033-.47.043-.716a2.151,2.151,0,0,1,1.606-2.012,1.782,1.782,0,0,1,.437-.065c3.711,0,7.422-.012,11.134,0a2.094,2.094,0,0,1,1.951,1.549,2.336,2.336,0,0,1,.081.634q0,5.086,0,10.171c0,.209-.048.241-.247.189a4.265,4.265,0,0,0-1.169-.167c-.225,0-.288-.071-.288-.3q.011-4.863.005-9.727c0-.555-.108-.662-.666-.662H193.791c-.55,0-.663.115-.664.667,0,.485,0,.485.5.485q3.962,0,7.924,0a2.127,2.127,0,0,1,2.2,1.7,2.837,2.837,0,0,1,.042.565c0,2.353,0,4.707.006,7.06,0,.216-.058.294-.276.328A6,6,0,0,0,202.1,338.942Z" transform="translate(-188.591 -326)" fill="#5e5e5e"/>
    <path id="Path_7267" data-name="Path 7267" d="M233.1,373.814c.108-.171.2-.323.3-.475q2-3.213,4-6.427a1.188,1.188,0,0,1,.815-.618,1.094,1.094,0,0,1,1.129,1.655c-.4.667-.823,1.327-1.235,1.99q-1.973,3.171-3.946,6.343a1.117,1.117,0,0,1-1.445.541,1.2,1.2,0,0,1-.515-.444q-1.168-1.665-2.334-3.333a1.1,1.1,0,1,1,1.8-1.263c.422.588.832,1.183,1.248,1.775C232.971,373.637,233.03,373.713,233.1,373.814Z" transform="translate(-217.035 -353.909)" fill="#5e5e5e"/>
    <path id="Path_7268" data-name="Path 7268" d="M204.939,362.406q-1.394,0-2.788,0a.832.832,0,0,1-.922-.813.85.85,0,0,1,.9-.871q2.825-.008,5.651,0a.856.856,0,0,1,.9.85.841.841,0,0,1-.928.835Z" transform="translate(-197.348 -350.058)" fill="#5e5e5e"/>
    <path id="Path_7269" data-name="Path 7269" d="M204.944,371.791c.954,0,1.907,0,2.861,0a.839.839,0,0,1,.714.365.158.158,0,0,1-.011.235,6.073,6.073,0,0,0-.722.965.248.248,0,0,1-.243.126c-1.816,0-3.633,0-5.45,0a.842.842,0,1,1,.016-1.683C203.054,371.788,204,371.791,204.944,371.791Z" transform="translate(-197.347 -357.731)" fill="#5e5e5e"/>
    <path id="Path_7270" data-name="Path 7270" d="M204.277,351.363c-.7,0-1.4,0-2.1,0a.861.861,0,0,1-.909-.61.828.828,0,0,1,.641-1.064,2.013,2.013,0,0,1,.367-.034q2,0,4,0a1.892,1.892,0,0,1,.416.044.828.828,0,0,1,.63.837.819.819,0,0,1-.655.791,1.932,1.932,0,0,1-.367.036C205.627,351.364,204.952,351.363,204.277,351.363Z" transform="translate(-197.351 -342.389)" fill="#5e5e5e"/>
    <path id="Path_7271" data-name="Path 7271" d="M204.448,382.778c.765,0,1.531,0,2.3,0,.173,0,.234.03.182.222a4.942,4.942,0,0,0-.177,1.267c0,.159-.039.231-.222.23-1.456-.007-2.912,0-4.368-.006a.856.856,0,0,1-.884-1.152.9.9,0,0,1,.929-.556C202.951,382.775,203.7,382.778,204.448,382.778Z" transform="translate(-197.339 -365.343)" fill="#5e5e5e"/>
  </g>
</svg>
