<svg xmlns="http://www.w3.org/2000/svg" width="40" height="40" viewBox="0 0 51 51">
  <g id="Group_35965" data-name="Group 35965" transform="translate(-0.116 0.052)">
    <circle id="Ellipse_1146" data-name="Ellipse 1146" cx="25.5" cy="25.5" r="25.5" transform="translate(0.116 -0.052)" fill="#dc4f4f" opacity="0.2"/>
    <g id="increase" transform="translate(14.125 15.089) rotate(13)">
      <path id="increase-2" data-name="increase" d="M25.431,14.959H20.943a1.5,1.5,0,1,1,0-2.992h.678L14.857,5.686,9.872,9.424a1.5,1.5,0,0,1-1.9-.085L.495,2.607A1.5,1.5,0,0,1,2.5.384L9.062,6.292l5-3.749a1.5,1.5,0,0,1,1.915.1l7.958,7.389V8.975a1.5,1.5,0,0,1,2.992,0v4.488A1.5,1.5,0,0,1,25.431,14.959Z" fill="#dc4f4f"/>
    </g>
  </g>
</svg>
