<svg id="Group_2764" data-name="Group 2764" xmlns="http://www.w3.org/2000/svg" xmlns:xlink="http://www.w3.org/1999/xlink" width="25.298" height="27.786" viewBox="0 0 25.298 27.786">
  <defs>
    <clipPath id="clip-path">
      <rect id="Rectangle_2287" data-name="Rectangle 2287" width="25.298" height="27.786" fill="#5e5e5e"/>
    </clipPath>
  </defs>
  <g id="Group_2691" data-name="Group 2691" clip-path="url(#clip-path)">
    <path id="Path_6599" data-name="Path 6599" d="M259.89,249.39c-.006.248-.1.394-.306.441a.4.4,0,0,1-.5-.242c-.145-.336-.28-.676-.418-1.015-.12-.294-.246-.587-.355-.885a.271.271,0,0,0-.3-.2q-1.505.01-3.01,0a.272.272,0,0,0-.294.208c-.243.619-.5,1.233-.749,1.848a.424.424,0,0,1-.474.3.4.4,0,0,1-.355-.332.561.561,0,0,1,.076-.361l1.968-4.846c.294-.723.589-1.445.88-2.169.086-.216.182-.409.458-.408.261,0,.363.181.446.386q1.434,3.535,2.868,7.069a2.01,2.01,0,0,1,.064.21m-3.4-6.067c-.433,1.062-.861,2.109-1.284,3.158-.084.209.089.163.19.164.741,0,1.482-.006,2.223.006.237,0,.248-.066.168-.26-.365-.878-.718-1.762-1.08-2.641a1.04,1.04,0,0,0-.216-.426" transform="translate(-238.464 -227.727)" fill="#5e5e5e"/>
    <path id="Path_6600" data-name="Path 6600" d="M25.292,13.073a2.281,2.281,0,0,0-1.832-2.2,6.43,6.43,0,0,0-1.212-.049c-.481-.01-.48,0-.48-.5,0-2.683.006-5.366,0-8.049A2.265,2.265,0,0,0,19.743.037,13.627,13.627,0,0,0,18.153.009Q13.94,0,9.727.009A2.3,2.3,0,0,0,7.291,2.437c-.006.811-.01,1.622,0,2.432,0,.236-.074.287-.3.286q-2.3-.013-4.6,0A2.312,2.312,0,0,0,0,7.543c0,1.611,0,3.224,0,4.835H0q0,2.432,0,4.864a2.551,2.551,0,0,0,.1.742A2.307,2.307,0,0,0,2.47,19.644q4.009,0,8.019-.022c.25,0,.334.054.33.317-.012,1.052-.016,2.1,0,3.156a2.253,2.253,0,0,0,1.892,2.172,5.338,5.338,0,0,0,.953.03c.2,0,.273.056.269.262-.012.55,0,1.1-.005,1.65,0,.219.013.435.249.539s.4-.013.572-.162c.788-.7,1.583-1.385,2.366-2.087a.747.747,0,0,1,.544-.2c1.8.005,3.61.018,5.414-.006a2.245,2.245,0,0,0,2.213-2.228q.018-4.994,0-9.989m-16.376.383h-2.7q-1.274,0-1.275,1.125a1.168,1.168,0,0,0,.318.856,1.155,1.155,0,0,0,.862.324A4.027,4.027,0,0,0,7.53,15.5l.25.759a3.985,3.985,0,0,1-1.668.382,2.228,2.228,0,0,1-1.6-.568,1.955,1.955,0,0,1-.6-1.482,1.822,1.822,0,0,1,1.507-1.9,2.546,2.546,0,0,1-.964-2.156,2.6,2.6,0,0,1,.751-2.009,2.761,2.761,0,0,1,1.953-.7,3.509,3.509,0,0,1,1.574.332l-.3.848A3.435,3.435,0,0,0,7.1,8.724q-1.607,0-1.607,1.873a2.409,2.409,0,0,0,.39,1.419A1.193,1.193,0,0,0,6.9,12.57H8.916Zm-.457-8.3c-.243,0-.336-.047-.329-.314.018-.81,0-1.621.007-2.431A1.468,1.468,0,0,1,9.7.856q2.417,0,4.834,0v0q2.4,0,4.806,0a1.463,1.463,0,0,1,1.577,1.566c0,2.7,0,5.4.005,8.106,0,.217-.044.3-.283.3-.742-.016-1.486-.014-2.229,0-.23,0-.292-.064-.291-.292.009-1.862-.026-3.725.017-5.587a1.9,1.9,0,0,0-2.01-2c-1.524.028-3.049.006-4.574.007-.1,0-.193,0-.29,0a.417.417,0,0,0-.441.434.406.406,0,0,0,.456.412c.975,0,1.949,0,2.924,0,.666,0,1.332,0,2,0A.972.972,0,0,1,17.277,4.88c0,1.891,0,3.782.006,5.674,0,.222-.071.274-.281.27-.743-.012-1.486-.013-2.229,0-.225,0-.3-.057-.3-.289.012-.984.009-1.969,0-2.953a2.3,2.3,0,0,0-2.434-2.431c-1.2,0-2.393-.007-3.59,0M24.444,22.874a1.468,1.468,0,0,1-1.588,1.587c-1.785,0-3.571.009-5.356-.005a1.161,1.161,0,0,0-.854.328c-.589.54-1.2,1.059-1.8,1.585l-.072-.03c0-.431,0-.862,0-1.292,0-.467-.122-.583-.584-.585-.318,0-.637,0-.955,0a1.476,1.476,0,0,1-1.58-1.6q-.005-3.576,0-7.151c0-.811,0-1.621,0-2.432a1.464,1.464,0,0,1,1.6-1.6q4.821,0,9.641,0a1.449,1.449,0,0,1,1.548,1.56q0,4.821,0,9.641" transform="translate(-0.001 0)" fill="#5e5e5e"/>
  </g>
</svg>
