<svg xmlns="http://www.w3.org/2000/svg" width="25.469" height="33.909" viewBox="0 0 25.469 33.909">
  <g id="Group_5846" data-name="Group 5846" transform="translate(0 0)">
    <path id="Path_7296" data-name="Path 7296" d="M1108.755,129.845q0,3.4,0,6.805a4.813,4.813,0,0,1-.463,1.8c-.2.481-.358.978-.586,1.443a4.118,4.118,0,0,0-.359,1.908c.02,2.556,0,5.112.016,7.668,0,.282-.074.377-.355.353a7.734,7.734,0,0,0-.827-.005c-.149,0-.213-.054-.2-.2s0-.276,0-.413q0-4.152,0-8.3a1.907,1.907,0,0,1,.142-.74c.36-.883.711-1.77,1.069-2.654a3.131,3.131,0,0,0,.233-1.24c-.068-3.849-.011-7.7-.03-11.548,0-.477-.014-.955.006-1.432.012-.272-.087-.342-.345-.332-.5.018-1,.018-1.495,0-.251-.009-.323.073-.322.324.009,2.121,0,4.242.01,6.363,0,.3-.064.425-.381.391a5.049,5.049,0,0,0-.763,0c-.182.008-.243-.062-.237-.239.009-.286,0-.572,0-.859,0-2.344,0-4.688.006-7.032,0-.276-.066-.374-.354-.359-.465.024-.933.006-1.4.007-.42,0-.42,0-.42.408V128c0,.573-.008,1.146,0,1.718,0,.224-.045.332-.3.313a5.761,5.761,0,0,0-.826,0c-.22.014-.268-.078-.263-.276.011-.466,0-.933,0-1.4,0-2.62,0-5.239.007-7.859,0-.284-.066-.394-.367-.379-.487.024-.976.023-1.463,0-.277-.012-.332.093-.331.346q.011,4.391,0,8.782c0,.783,0,.783-.775.782-.6,0-.6,0-.6-.607,0-2.5-.006-5.006.006-7.509,0-.3-.093-.382-.38-.37-.5.02-1,.017-1.495,0-.243-.008-.305.081-.3.313.01.965,0,1.93.008,2.9,0,.238-.046.356-.312.326-.344-.038-.79.146-1.008-.077-.2-.207-.054-.647-.058-.983-.008-.774,0-1.548,0-2.323a1.4,1.4,0,0,1,1.527-1.519c.562,0,1.124-.007,1.686,0,.211,0,.318-.035.358-.279a1.306,1.306,0,0,1,1.271-1.129q1.16-.037,2.322,0a1.323,1.323,0,0,1,1.257,1.149c.036.213.119.257.307.255.594-.007,1.188,0,1.781,0a1.352,1.352,0,0,1,1.443,1.161c.042.2.122.255.314.252.594-.01,1.188,0,1.782,0a1.38,1.38,0,0,1,1.462,1.453q.007,3.4,0,6.809Z" transform="translate(-1087.588 -118.751)" fill="#748a9d"/>
    <path id="Path_7297" data-name="Path 7297" d="M1081.651,168.245c0-1.845,0-3.69,0-5.535a.9.9,0,0,0-.2-.581c-1.043-1.377-2.071-2.766-3.116-4.142a4.432,4.432,0,0,1-.932-2.81c.014-1.442,0-2.884.006-4.326a2.768,2.768,0,0,1,2-2.686,2.8,2.8,0,0,1,3.113,1.1,2.69,2.69,0,0,1,.5,1.551c.005.689.011,1.379,0,2.068a.424.424,0,0,0,.28.46,6.415,6.415,0,0,1,3.107,3.395c.059.135.022.184-.093.239q-.429.206-.849.429c-.213.113-.284-.03-.357-.181a6.684,6.684,0,0,0-.882-1.465,4.644,4.644,0,0,0-2.26-1.47.379.379,0,0,1-.322-.443c.017-.975.01-1.951.005-2.927a1.434,1.434,0,1,0-2.866-.02c-.009,1.463,0,2.927-.006,4.39a3.7,3.7,0,0,0,.972,2.29c1.065,1.386,2.1,2.794,3.155,4.189a.637.637,0,0,1,.126.412q0,5.821,0,11.643c0,.294-.1.37-.363.35a5.074,5.074,0,0,0-.7,0c-.247.016-.327-.07-.325-.325.011-1.569.006-3.139.006-4.708Q1081.651,168.69,1081.651,168.245Z" transform="translate(-1075.988 -140.266)" fill="#748a9d"/>
    <path id="Path_7298" data-name="Path 7298" d="M1163.879,197.447c0,1.293-.007,2.586.006,3.879,0,.27-.054.4-.346.361-.333-.04-.767.145-.978-.08-.192-.2-.054-.628-.055-.954,0-2.353,0-4.705-.008-7.058,0-.274.063-.393.35-.359.333.04.766-.145.975.079.191.2.052.627.054.953C1163.882,195.327,1163.879,196.387,1163.879,197.447Z" transform="translate(-1138.454 -173.434)" fill="#748a9d"/>
    <path id="Path_7299" data-name="Path 7299" d="M1072.056,204.44c0-.954.006-1.908,0-2.861,0-.222.063-.3.287-.287a5.788,5.788,0,0,0,.794,0c.24-.018.307.067.3.3-.011,1.123-.005,2.246-.005,3.37,0,.784-.009,1.568.005,2.352,0,.238-.073.323-.307.311a7.014,7.014,0,0,0-.794,0c-.229.014-.286-.078-.284-.295C1072.061,206.368,1072.056,205.4,1072.056,204.44Z" transform="translate(-1072.051 -179.375)" fill="#748a9d"/>
    <path id="Path_7300" data-name="Path 7300" d="M1073.444,231.287c0,.683,0,.683-.678.683-.7,0-.7,0-.7-.693s0-.682.679-.683C1073.444,230.595,1073.444,230.595,1073.444,231.287Z" transform="translate(-1072.064 -200.9)" fill="#748a9d"/>
    <path id="Path_7301" data-name="Path 7301" d="M1163.291,231.97c-.663,0-.663,0-.663-.669,0-.707,0-.707.713-.707.662,0,.662,0,.662.667C1164,231.97,1164,231.97,1163.291,231.97Z" transform="translate(-1138.579 -200.9)" fill="#748a9d"/>
    <path id="Path_7302" data-name="Path 7302" d="M1073.444,241.983c0,.661,0,.661-.674.661-.7,0-.7,0-.7-.7,0-.672,0-.672.657-.672C1073.444,241.274,1073.444,241.274,1073.444,241.983Z" transform="translate(-1072.064 -208.744)" fill="#748a9d"/>
    <path id="Path_7303" data-name="Path 7303" d="M1142.69,241.983c0,.661,0,.661-.674.661-.7,0-.7,0-.7-.7,0-.671,0-.671.659-.671C1142.69,241.275,1142.69,241.275,1142.69,241.983Z" transform="translate(-1122.925 -208.744)" fill="#748a9d"/>
    <path id="Path_7304" data-name="Path 7304" d="M1164,241.983c0,.661,0,.661-.674.661-.7,0-.7,0-.7-.7,0-.671,0-.671.661-.671C1164,241.275,1164,241.275,1164,241.983Z" transform="translate(-1138.579 -208.744)" fill="#748a9d"/>
  </g>
</svg>
