<svg xmlns="http://www.w3.org/2000/svg" width="30.567" height="30.57" viewBox="0 0 30.567 30.57">
  <g id="Group_5855" data-name="Group 5855" transform="translate(0 0)">
    <path id="Path_7335" data-name="Path 7335" d="M2139.359-88.233a15.26,15.26,0,0,1-15.286-15.267,15.266,15.266,0,0,1,15.3-15.3,15.262,15.262,0,0,1,15.262,15.3A15.259,15.259,0,0,1,2139.359-88.233Zm.017-.887a14.4,14.4,0,0,0,14.377-14.447,14.4,14.4,0,0,0-14.439-14.348,14.4,14.4,0,0,0-14.352,14.481A14.4,14.4,0,0,0,2139.376-89.121Z" transform="translate(-2124.073 118.803)" fill="#8f9fae"/>
    <path id="Path_7336" data-name="Path 7336" d="M2155.823-73.564a13.466,13.466,0,0,1-13.51-13.508,13.476,13.476,0,0,1,13.512-13.515,13.476,13.476,0,0,1,13.508,13.519A13.463,13.463,0,0,1,2155.823-73.564Zm12.632-13.515a12.64,12.64,0,0,0-12.631-12.631,12.638,12.638,0,0,0-12.634,12.627A12.629,12.629,0,0,0,2155.8-74.442,12.628,12.628,0,0,0,2168.455-87.08Z" transform="translate(-2140.539 102.36)" fill="#8f9fae"/>
    <path id="Path_7337" data-name="Path 7337" d="M2334.946,17.667a2.5,2.5,0,1,1,2.517-2.444A2.533,2.533,0,0,1,2334.946,17.667Zm-1.581-2.517a1.6,1.6,0,0,0,1.579,1.626,1.631,1.631,0,0,0,1.627-1.589,1.605,1.605,0,0,0-1.59-1.616A1.586,1.586,0,0,0,2333.365,15.15Z" transform="translate(-2312.191 0.119)" fill="#8f9fae"/>
    <path id="Path_7338" data-name="Path 7338" d="M2179.1,15.135a2.489,2.489,0,1,1,2.476,2.522A2.5,2.5,0,0,1,2179.1,15.135Zm2.5-1.569a1.583,1.583,0,0,0-1.615,1.58,1.618,1.618,0,0,0,1.635,1.626,1.642,1.642,0,0,0,1.574-1.6A1.6,1.6,0,0,0,2181.6,13.566Z" transform="translate(-2173.747 0.127)" fill="#8f9fae"/>
    <path id="Path_7339" data-name="Path 7339" d="M2260.5,15.148a2.5,2.5,0,1,1-2.505-2.51A2.526,2.526,0,0,1,2260.5,15.148Zm-2.521-1.607a1.605,1.605,0,0,0-1.589,1.62,1.609,1.609,0,0,0,3.218-.041A1.6,1.6,0,0,0,2257.975,13.541Z" transform="translate(-2242.712 0.146)" fill="#8f9fae"/>
  </g>
</svg>
