<svg xmlns="http://www.w3.org/2000/svg" width="27.757" height="30.297" viewBox="0 0 27.757 30.297">
  <g id="Group_5849" data-name="Group 5849" transform="translate(0)">
    <path id="Path_7305" data-name="Path 7305" d="M1306.042-77.724a1.053,1.053,0,0,1,.363.883c-.024,1.1-.006,2.208-.01,3.312,0,.656-.166.852-.826.866-.354.007-.454.141-.418.456a.6.6,0,0,1,0,.177c-.126.666.164.892.815,1.1a11.865,11.865,0,0,1,8.441,9.236c.1.46.014.872-.5.967-.482.089-.67-.251-.772-.691a10.533,10.533,0,0,0-8.637-8.548,10.731,10.731,0,0,0-12.422,8.587,10.677,10.677,0,0,0,8.472,12.454,9.479,9.479,0,0,0,3.406.11c.765-.111,1.134.029,1.219.476s-.225.691-1,.8a11.967,11.967,0,0,1-13.4-10.014,11.979,11.979,0,0,1,7.456-13.036c.455-.178.686-.372.606-.87a2.353,2.353,0,0,1,0-.59c.038-.408-.02-.658-.546-.617-.5.039-.743-.289-.743-.786,0-1.163.012-2.327-.008-3.489a1.306,1.306,0,0,1,.346-.781Zm-4.083,1.286c-.374,0-.748,0-1.122,0-.646.01-1.535-.224-1.876.106-.423.409-.083,1.3-.141,1.979-.03.35.115.426.438.422,1.3-.016,2.6.01,3.9-.013.641-.011,1.537.3,1.853-.127s.078-1.283.11-1.948c.017-.348-.121-.432-.443-.425C1303.769-76.427,1302.864-76.438,1301.959-76.438Zm.032,3.786h-.885c-1.036,0-1.021,0-1,1.043.007.354.111.44.448.37a10.02,10.02,0,0,1,2.7-.187c.355.023.677.092.612-.457-.046-.386.132-.865-.575-.779A10.758,10.758,0,0,1,1301.99-72.652Z" transform="translate(-1290.625 77.724)" fill="#748a9d"/>
    <path id="Path_7306" data-name="Path 7306" d="M1325.751,19.687A8.847,8.847,0,1,1,1334.409,9.1c.1.458.037.812-.436.932-.527.134-.72-.2-.829-.672a7.389,7.389,0,0,0-5.652-5.873,7.558,7.558,0,1,0-3.017,14.8,8.188,8.188,0,0,0,2.415.017c.412-.048.772.012.847.5.078.511-.254.716-.688.773S1326.184,19.654,1325.751,19.687Z" transform="translate(-1313.749 7.472)" fill="#748a9d"/>
    <path id="Path_7307" data-name="Path 7307" d="M1380.657,26.358c0-.788,0-1.577,0-2.365,0-.457.174-.81.653-.81s.644.348.638.812c-.015,1.1,0,2.208-.007,3.311a.7.7,0,0,0,.283.706.531.531,0,0,1,.118.746,1.812,1.812,0,0,1-.839.721c-.416.177-.833-.168-.844-.7-.016-.808,0-1.616,0-2.424Z" transform="translate(-1369.957 -11.196)" fill="#748a9d"/>
    <path id="Path_7308" data-name="Path 7308" d="M1419.345,103.9c-.2,0-.392.006-.588,0a.633.633,0,0,1-.093-1.256,6.945,6.945,0,0,1,1.466,0,.632.632,0,0,1-.078,1.254C1419.817,103.906,1419.58,103.895,1419.345,103.9Z" transform="translate(-1402.995 -81.18)" fill="#748a9d"/>
    <path id="Path_7309" data-name="Path 7309" d="M1461.755,103.894c-.2,0-.394,0-.591,0a.6.6,0,0,1-.65-.619.592.592,0,0,1,.565-.645,7.766,7.766,0,0,1,1.414,0,.591.591,0,0,1,.563.646.6.6,0,0,1-.652.617C1462.188,103.9,1461.971,103.894,1461.755,103.894Z" transform="translate(-1440.333 -81.179)" fill="#748a9d"/>
    <path id="Path_7310" data-name="Path 7310" d="M1504.372,103.892c-.216,0-.432.01-.647,0a.582.582,0,0,1-.608-.585.576.576,0,0,1,.523-.669,6.932,6.932,0,0,1,1.466,0,.633.633,0,0,1-.087,1.256C1504.8,103.9,1504.588,103.892,1504.372,103.892Z" transform="translate(-1477.874 -81.178)" fill="#748a9d"/>
    <path id="Path_7311" data-name="Path 7311" d="M1461.775,145.41c.216,0,.433,0,.649,0a.6.6,0,0,1,.622.585.583.583,0,0,1-.534.668,7.134,7.134,0,0,1-1.471,0,.584.584,0,0,1-.536-.666.6.6,0,0,1,.62-.587C1461.342,145.406,1461.559,145.41,1461.775,145.41Z" transform="translate(-1440.324 -118.905)" fill="#748a9d"/>
    <path id="Path_7312" data-name="Path 7312" d="M1440.64,167.625c-.2,0-.392,0-.588,0a.586.586,0,0,1-.657-.6.61.61,0,0,1,.645-.681,8.8,8.8,0,0,1,1.235,0,.607.607,0,0,1,.628.7.587.587,0,0,1-.673.581C1441.032,167.624,1440.836,167.625,1440.64,167.625Z" transform="translate(-1421.722 -137.337)" fill="#748a9d"/>
    <path id="Path_7313" data-name="Path 7313" d="M1483.131,167.676c-.216,0-.432.007-.647,0a.63.63,0,0,1-.118-1.241,6.7,6.7,0,0,1,1.523-.011.572.572,0,0,1,.51.678.585.585,0,0,1-.621.573C1483.563,167.684,1483.347,167.677,1483.131,167.676Z" transform="translate(-1459.166 -137.389)" fill="#748a9d"/>
    <path id="Path_7314" data-name="Path 7314" d="M1440.639,82.922a4.081,4.081,0,0,1-.7-.007.606.606,0,0,1-.565-.7.575.575,0,0,1,.621-.57c.412-.009.824,0,1.236,0a.582.582,0,0,1,.653.6.61.61,0,0,1-.594.673,4.867,4.867,0,0,1-.646.005Z" transform="translate(-1421.699 -62.714)" fill="#748a9d"/>
    <path id="Path_7315" data-name="Path 7315" d="M1483.132,82.921a3.778,3.778,0,0,1-.7-.008.6.6,0,0,1-.531-.669.57.57,0,0,1,.6-.591c.392-.01.784,0,1.176,0,.44-.007.732.169.732.639,0,.437-.289.615-.687.645-.195.015-.392,0-.588,0Z" transform="translate(-1459.176 -62.717)" fill="#748a9d"/>
    <path id="Path_7316" data-name="Path 7316" d="M1419.437,145.4c.2,0,.392,0,.588,0a.633.633,0,0,1,.077,1.261,6.675,6.675,0,0,1-1.408,0,.588.588,0,0,1-.544-.709.577.577,0,0,1,.639-.553Z" transform="translate(-1402.998 -118.9)" fill="#748a9d"/>
    <path id="Path_7317" data-name="Path 7317" d="M1504.368,145.39c.216,0,.431,0,.647,0a.632.632,0,0,1,.1,1.253,6.9,6.9,0,0,1-1.466,0,.631.631,0,0,1,.076-1.253C1503.936,145.379,1504.152,145.39,1504.368,145.39Z" transform="translate(-1477.875 -118.885)" fill="#748a9d"/>
    <path id="Path_7318" data-name="Path 7318" d="M1440.661,125.286a6.887,6.887,0,0,1-.7,0,.582.582,0,0,1-.582-.612.564.564,0,0,1,.553-.635,9.555,9.555,0,0,1,1.406,0,.567.567,0,0,1,.554.636.583.583,0,0,1-.583.614C1441.093,125.3,1440.876,125.286,1440.661,125.286Z" transform="translate(-1421.706 -100.046)" fill="#748a9d"/>
    <path id="Path_7319" data-name="Path 7319" d="M1483.135,125.29c-.215,0-.432.016-.645,0a.585.585,0,0,1-.589-.608.566.566,0,0,1,.548-.641,9.615,9.615,0,0,1,1.406,0,.564.564,0,0,1,.559.63.579.579,0,0,1-.576.617,6.707,6.707,0,0,1-.7,0Z" transform="translate(-1459.181 -100.049)" fill="#748a9d"/>
    <path id="Path_7320" data-name="Path 7320" d="M1397.12,48.926a.59.59,0,0,1-.578-.333.568.568,0,0,1,.087-.708,8.242,8.242,0,0,1,.85-.724.539.539,0,0,1,.662.016.63.63,0,0,1,.3.6A2.167,2.167,0,0,1,1397.12,48.926Z" transform="translate(-1383.887 -32.234)" fill="#748a9d"/>
    <path id="Path_7321" data-name="Path 7321" d="M1414.564,35.528c-.3-.013-.5-.256-.516-.637s.689-1.016,1.092-1.019a.59.59,0,0,1,.651.611C1415.821,34.888,1415.113,35.535,1414.564,35.528Z" transform="translate(-1399.387 -20.615)" fill="#748a9d"/>
  </g>
</svg>
