<svg xmlns="http://www.w3.org/2000/svg" width="30.78" height="29.827" viewBox="0 0 30.78 29.827">
  <g id="Group_5843" data-name="Group 5843" transform="translate(0 0)">
    <path id="Path_7280" data-name="Path 7280" d="M1214.861,381.024c0-1.167.006-2.335-.005-3.5,0-.26.065-.355.342-.354,1.886.011,3.771-.01,5.657.013a3.563,3.563,0,0,1,2.662,1.191c.539.584,1.079,1.168,1.6,1.765a.524.524,0,0,0,.534.188c3.371-.507,6.745-1,10.115-1.512a3.13,3.13,0,0,1,2.13.218,1.818,1.818,0,0,1,.4,2.961,3.056,3.056,0,0,1-.848.59c-3.047,1.44-6.079,2.911-9.146,4.305a9.561,9.561,0,0,1-7.239.307,31.768,31.768,0,0,1-3.358-1.615,4.852,4.852,0,0,1-.48-.242,2.946,2.946,0,0,0-2.005-.483c-.293.04-.368-.08-.364-.365.016-1.154.006-2.309.006-3.464Zm11.069.205c.21.212.368.36.514.518a1.845,1.845,0,0,1,.015,2.516,2.467,2.467,0,0,1-3.2.358c-1.028-.744-1.909-1.671-2.867-2.5a.318.318,0,0,1-.05-.453.416.416,0,0,1,.511-.158,1.081,1.081,0,0,1,.311.219q1.152,1.02,2.3,2.047a1.862,1.862,0,0,0,.794.45,1.507,1.507,0,0,0,1.652-.616c.3-.5.2-.991-.309-1.552q-1.364-1.49-2.722-2.986a2.669,2.669,0,0,0-1.992-.944c-1.6-.025-3.207-.01-4.81-.019-.218,0-.286.076-.285.292q.01,2.617,0,5.234c0,.217.071.317.286.287a1.417,1.417,0,0,1,.875.228c.305.162.617.314.927.467,1.1.546,2.172,1.178,3.316,1.616a8.554,8.554,0,0,0,6.845-.253c2.979-1.373,5.934-2.8,8.9-4.2a2.507,2.507,0,0,0,.7-.465.869.869,0,0,0-.162-1.434,1.471,1.471,0,0,0-1.032-.209l-7.761,1.147Z" transform="translate(-1208.109 -357.931)" fill="#748a9d"/>
    <path id="Path_7281" data-name="Path 7281" d="M1261.1,361.843a4.314,4.314,0,1,1,4.356-4.175A4.29,4.29,0,0,1,1261.1,361.843Zm.009-.934a3.38,3.38,0,1,0-3.343-3.251A3.347,3.347,0,0,0,1261.109,360.909Z" transform="translate(-1236.603 -341.67)" fill="#748a9d"/>
    <path id="Path_7282" data-name="Path 7282" d="M1226.48,351.521a4.315,4.315,0,1,1-4.345-4.306A4.29,4.29,0,0,1,1226.48,351.521Zm-.934.006a3.378,3.378,0,1,0-3.428,3.384A3.383,3.383,0,0,0,1225.545,351.528Z" transform="translate(-1210.142 -337.597)" fill="#748a9d"/>
    <path id="Path_7283" data-name="Path 7283" d="M1246.156,331.883a4.315,4.315,0,1,1,4.306-4.3A4.3,4.3,0,0,1,1246.156,331.883Zm3.368-4.308a3.377,3.377,0,1,0-3.378,3.371A3.375,3.375,0,0,0,1249.524,327.575Z" transform="translate(-1226.423 -321.329)" fill="#748a9d"/>
    <path id="Path_7284" data-name="Path 7284" d="M1197.687,379.023c0,1.462-.01,2.925.008,4.387,0,.329-.1.409-.413.4-1.013-.018-2.027-.016-3.04,0-.294,0-.4-.07-.39-.383.023-.56,0-.561.583-.562.654,0,1.309-.009,1.963,0,.252.005.363-.051.361-.336q-.016-3.521,0-7.042c0-.271-.081-.353-.348-.347-.731.015-1.463-.007-2.193.013-.285.007-.405-.069-.36-.362a1.552,1.552,0,0,0,0-.346c-.013-.162.047-.234.215-.233,1.129,0,2.258.006,3.387,0,.275,0,.225.184.225.342Q1197.688,376.791,1197.687,379.023Z" transform="translate(-1193.848 -355.928)" fill="#748a9d"/>
    <path id="Path_7285" data-name="Path 7285" d="M1209.812,379.008q0,2.093,0,4.187c0,.412-.162.618-.463.616s-.468-.2-.469-.614q0-4.168,0-8.336c0-.437.161-.643.486-.632.3.01.446.2.447.63C1209.814,376.242,1209.812,377.625,1209.812,379.008Z" transform="translate(-1204.051 -355.936)" fill="#748a9d"/>
    <path id="Path_7286" data-name="Path 7286" d="M1266.617,324.891s0,.075,0,.151c0,.312-.121.537-.458.541s-.476-.208-.478-.524a5.12,5.12,0,0,0-.28-1.618,5.283,5.283,0,0,0-2.179-2.79c-.064-.042-.133-.077-.2-.122a.469.469,0,1,1,.507-.789,5.912,5.912,0,0,1,1.583,1.325A6.269,6.269,0,0,1,1266.617,324.891Z" transform="translate(-1240.654 -318.885)" fill="#748a9d"/>
    <path id="Path_7287" data-name="Path 7287" d="M1220.61,341.686c-.012.342-.216.474-.526.483a5.487,5.487,0,0,0-1.839.355,5.309,5.309,0,0,0-2.4,1.854c-.107.145-.2.3-.387.356a.433.433,0,0,1-.48-.161.5.5,0,0,1,.023-.639,6.256,6.256,0,0,1,5.056-2.7A.473.473,0,0,1,1220.61,341.686Z" transform="translate(-1208.121 -333.534)" fill="#748a9d"/>
    <path id="Path_7288" data-name="Path 7288" d="M1269.565,347.223a6.327,6.327,0,0,1,2.222.526c.33.15.462.411.324.666a.474.474,0,0,1-.688.2,5.636,5.636,0,0,0-2.005-.451c-.419-.021-.6-.178-.595-.485s.222-.456.627-.451Z" transform="translate(-1244.747 -337.602)" fill="#748a9d"/>
    <path id="Path_7289" data-name="Path 7289" d="M1281.161,351.749a.449.449,0,0,1,.336.146,6.119,6.119,0,0,1,1.212,1.48.446.446,0,0,1-.14.668.438.438,0,0,1-.658-.174,5.914,5.914,0,0,0-1.07-1.3.441.441,0,0,1-.119-.557A.436.436,0,0,1,1281.161,351.749Z" transform="translate(-1252.79 -340.674)" fill="#748a9d"/>
    <path id="Path_7290" data-name="Path 7290" d="M1287.32,362.391a1.515,1.515,0,0,1,0,.345.432.432,0,0,1-.478.356.4.4,0,0,1-.424-.368c-.047-.5-.095-.992-.191-1.485a.414.414,0,0,1,.372-.5.431.431,0,0,1,.529.326A5.476,5.476,0,0,1,1287.32,362.391Z" transform="translate(-1256.553 -346.772)" fill="#748a9d"/>
    <path id="Path_7291" data-name="Path 7291" d="M1211.878,356.3a6.323,6.323,0,0,1,.168-1.129c.076-.287.222-.5.563-.441.3.052.429.3.349.651a7.055,7.055,0,0,0-.144,1.066c-.032.456-.18.651-.485.642C1212,357.085,1211.858,356.865,1211.878,356.3Z" transform="translate(-1206.087 -342.695)" fill="#748a9d"/>
    <path id="Path_7292" data-name="Path 7292" d="M1254.629,317.262c.161.019.4.041.642.079.289.046.483.208.448.515-.038.327-.269.436-.581.406-.266-.026-.534-.052-.8-.067-.319-.018-.52-.171-.5-.5.015-.306.23-.434.524-.437Z" transform="translate(-1234.57 -317.262)" fill="#748a9d"/>
    <path id="Path_7293" data-name="Path 7293" d="M1262.814,363.083a1.155,1.155,0,0,1,.117-.634.468.468,0,0,1,.614-.249.407.407,0,0,1,.26.528,1.956,1.956,0,0,0-.061.3.447.447,0,0,0,.275.463.457.457,0,0,0,.533-.082.435.435,0,0,0,.134-.521c-.034-.083-.082-.159-.121-.239a1.444,1.444,0,0,1,.25-1.673,1.412,1.412,0,0,1,1.633-.277.543.543,0,0,0,.467.042.407.407,0,0,1,.5.184.394.394,0,0,1-.018.531.519.519,0,0,0-.139.485,1.223,1.223,0,0,1-.129.633.439.439,0,0,1-.6.267.447.447,0,0,1-.277-.592c.131-.471-.1-.806-.5-.752a.534.534,0,0,0-.3.845,1.41,1.41,0,0,1-.967,2.114,1.286,1.286,0,0,1-.572-.014c-.3-.071-.556-.287-.906-.131-.127.057-.32-.074-.4-.244a.388.388,0,0,1,.034-.468A.52.52,0,0,0,1262.814,363.083Z" transform="translate(-1240.493 -346.653)" fill="#748a9d"/>
    <path id="Path_7294" data-name="Path 7294" d="M1227.97,354.2a1.424,1.424,0,0,1,1.433.893,1.4,1.4,0,0,1-.43,1.627.447.447,0,0,0-.194.345.408.408,0,0,1-.36.432.433.433,0,0,1-.521-.292.364.364,0,0,0-.31-.245,1.158,1.158,0,0,1-.547-.341.465.465,0,0,1-.037-.688.436.436,0,0,1,.652-.022,1.806,1.806,0,0,0,.149.12.443.443,0,0,0,.569-.025.454.454,0,0,0,.167-.514.478.478,0,0,0-.456-.353c-.152-.006-.309.042-.459.025a1.392,1.392,0,0,1-1.229-.912,1.368,1.368,0,0,1,.32-1.526c.15-.156.312-.275.315-.529,0-.2.179-.3.366-.341a.38.38,0,0,1,.453.21.643.643,0,0,0,.448.365,1.169,1.169,0,0,1,.522.381.448.448,0,0,1-.031.629.435.435,0,0,1-.6.048c-.054-.034-.1-.083-.148-.122a.47.47,0,0,0-.6-.023.45.45,0,0,0-.173.545.458.458,0,0,0,.506.326C1227.842,354.208,1227.906,354.2,1227.97,354.2Z" transform="translate(-1215.874 -340.737)" fill="#748a9d"/>
    <path id="Path_7295" data-name="Path 7295" d="M1249.252,330.566a1.131,1.131,0,0,1,.118-.559.729.729,0,0,0,.1-.644.354.354,0,0,1,.2-.418.414.414,0,0,1,.533.039.546.546,0,0,0,.483.156,1.188,1.188,0,0,1,.663.167.427.427,0,0,1,.2.589.437.437,0,0,1-.564.267c-.062-.016-.12-.046-.181-.063a.457.457,0,0,0-.537.2.484.484,0,0,0,.606.709,1.593,1.593,0,0,1,1.07-.2,1.424,1.424,0,0,1,1.03,2.015c-.079.174-.176.315-.082.534a.394.394,0,0,1-.219.484.383.383,0,0,1-.5-.031.638.638,0,0,0-.547-.177,1.14,1.14,0,0,1-.625-.164.451.451,0,0,1-.2-.6.44.44,0,0,1,.539-.261c.087.015.169.064.256.077a.483.483,0,1,0-.065-.933c-.122.035-.232.109-.351.154A1.424,1.424,0,0,1,1249.252,330.566Z" transform="translate(-1231.46 -325.14)" fill="#748a9d"/>
  </g>
</svg>
