<svg xmlns="http://www.w3.org/2000/svg" viewBox="0 0 492.14 491.5"><defs><style>.cls-1{fill:#3c92ca;}.cls-2{fill:#2c2f33;}</style></defs><title>Asset 3</title><g id="Layer_2" data-name="Layer 2"><g id="Layer_1-2" data-name="Layer 1"><g id="Layer_1-2-2" data-name="Layer 1-2"><path class="cls-1" d="M140.13,442.2h12.26c2.46,0,3.67.42,3.67,3.3V488c0,3.93-2.25,3.41-4.61,3.41h-131c-2.94,0-3.72-.95-3.72-3.78V445.66c0-2.67.73-3.72,3.45-3.46s4.77,0,7.81,0c-2.88-11.69-5.71-22.95-8.54-34.17C13.62,385.08,7.65,362.23,2,339.28a75.25,75.25,0,0,1,1.89-41.4q15.72-48,31.44-95.9A24.2,24.2,0,0,1,54.5,185.37a133.89,133.89,0,0,1,15-2.88c4-.37,4.5-2.31,4.45-5.66V24.33A23.58,23.58,0,0,1,96.76,0c.54,0,1.07,0,1.6,0H394.13A23.69,23.69,0,0,1,418,23.54c0,.21,0,.42,0,.63v152c0,4.19.84,6.13,5.24,6.55a114.66,114.66,0,0,1,14,2.62A22.94,22.94,0,0,1,455.6,200c11.58,34.11,23,68.12,33.75,102.71,5.24,15.72,2.25,32-2,47.85-7.65,28.77-14.73,57.64-22.22,86.46-1.05,4.14-.58,6,4.09,5.24s6.39.84,6.23,5.93c-.47,12.78-.31,25.57,0,38.35,0,3.67-.63,5.25-4.66,4.93h-130c-3.31,0-4.77-.47-4.67-4.35V446.18c0-3.19.94-4.24,4-3.93a27.4,27.4,0,0,0,6.65,0c1.78,0,5.24,1.58,5.24-1.52s-.31-6.81-5.87-6.76H148.88C141.49,434,141.49,434,140.13,442.2Zm105.8-393H129.28c-4.82,0-6.18,1-6.18,6.08V285.83a47.91,47.91,0,0,0,8,26.2,121.39,121.39,0,0,1,16.25,35.58c.94,3.62,2.51,4.46,6,4.4H339.05c2.47,0,4.51,0,5.24-3.14a130.16,130.16,0,0,1,18-39.2,38.28,38.28,0,0,0,6.39-20.17V54.2c0-4.4-1.25-5.24-5.24-5.24-39.14.21-78.34.16-117.54.16ZM74.1,198.52c-5.24,1.1-9.38,2.31-13.89,3a11.42,11.42,0,0,0-9.85,8.91c-9.85,30.23-20,60.37-30.13,90.5a64.71,64.71,0,0,0-1.78,36.26c8.33,33.86,16.92,67.6,25.31,101.41.68,2.88,1.88,3.66,4.77,3.66h69.59c3.46,0,4.56-1.25,5.24-4.45,2.57-10.48,5.61-20.65,8.23-31a99,99,0,0,0-10.49-78.3A187.54,187.54,0,0,1,104,288.92c-4-12.32-8.12-24.53-12-36.68-1.21-3.78-3-6.92-7.34-6.24s-4.72,4.61-4.46,8.38q3.31,45.39,6.56,90.77c0,1.68.31,3.3.41,5.24a44.73,44.73,0,0,1-5.71-9.75,108.83,108.83,0,0,1-12.63-41.92c-.94-14.1-2.51-28.14-4.4-41.92a22,22,0,0,1,7.5-21c1.15-1,2.3-1.78,2.3-3.61C74.1,221,74.1,210,74.1,198.52ZM404.93,349.81c.47-7,.94-13.94,1.36-21q2.46-38,4.82-76c0-3.4-.58-6.34-4.3-7s-5.24,2-6.34,5.24c-4,12.42-8.17,24.84-12.26,37.26a187.41,187.41,0,0,1-17.5,40.51,96.31,96.31,0,0,0-12.27,68.49c2.31,13.78,6.87,27,10.17,40.51.84,3.61,2.31,4.51,5.82,4.45h67c4.56,0,6.34-1.15,7.44-5.71,7.81-31.44,16-63.25,24-95a64.84,64.84,0,0,0,0-36.32c-10.48-32.39-21.27-64.62-31.91-96.9a8.79,8.79,0,0,0-6.71-6.28L418,198.47v33.07a5.24,5.24,0,0,0,2.36,4.19,21.49,21.49,0,0,1,7.5,20.54c-1.79,15.09-3.31,30.13-4.67,45.28A111.69,111.69,0,0,1,404.93,349.81ZM106.85,241.6V38.17c0-4.67,1.31-5.24,5.66-5.24H379.77c4.51,0,5.92.94,5.87,5.76V237.83a6.84,6.84,0,0,0,.73,4.71,19.71,19.71,0,0,1,11.69-10.48c3.25-1,4-2.51,4-5.76v-198c0-9.11-2.36-11.47-11.48-11.47H101.14c-7.7,0-10.48,2.67-10.48,9.8V227.13c0,2.31.31,3.83,2.83,4.56A25.83,25.83,0,0,1,106.85,241.6Zm39.88,176H341.1c1.83,0,4.71,1.31,3.46-3a122,122,0,0,1-4.2-41.92c0-3.56-1-4.24-4.24-4.14H156.63c-4,0-5.24,1.05-4.92,5.24A124.37,124.37,0,0,1,146.73,417.62ZM86.57,475H128c11.69,0,11.43,0,11.69-11.58,0-4.35-1.47-4.87-5.24-4.87H45c-12,0-11.74,0-12,11.84,0,4.14,1.42,4.67,5.24,4.61C54.18,474.85,70.38,475,86.57,475Zm319.35,0h41.92c11.17,0,10.85,0,11.27-11.11,0-4.92-1.62-5.24-5.76-5.24H364.26c-12.05,0-11.9,0-12,11.85,0,4.08,1.41,4.71,5.24,4.66C373.54,474.85,389.73,475,405.92,475Z"/><path class="cls-2" d="M246.3,196.48a65.63,65.63,0,1,1,1.65,0Q247.13,196.48,246.3,196.48Zm46.38-51.36c6.81-16.51-.79-41.92-15.31-52-1.62-1.16-2.51-1.21-3.45.68l-15.73,31.44c-.94,1.78-.68,2.73,1.05,3.56ZM247.87,177c0,1.57-.63,3.25,2,2.93a49.9,49.9,0,0,0,34.27-18.18c1.31-1.58.69-2.36-.78-3.1l-28.3-14.3c-1.42-.74-2.52-.79-2.83,1.31C250.81,156.13,249.34,166.61,247.87,177Zm-50.94-47.59c0,6.61,0,6.61,5.51,5.24,8.85-2.46,17.66-5.24,26.51-7.39,3.15-.78,3.46-1.78,1.68-4.34-5.24-8-10.9-16-16.14-24.22-1.73-2.77-2.78-2.56-4.77-.36A50.6,50.6,0,0,0,196.93,129.45Zm38.36,17.82c1-4.14-.36-4.24-2.72-3.56-9,2.67-17.92,5.24-26.94,7.75-2.88.79-3.46,1.73-1.78,4.41a50.9,50.9,0,0,0,23.48,20.43c2.93,1.26,3.93.47,4.35-2.46C232.88,164.62,234.19,155.34,235.29,147.27Zm9.75-32.7c5.24-10,9.59-19,14.2-28.09,1-1.88.47-2.57-1.47-3.09a48,48,0,0,0-29.08,1.83c-1.89.69-2.2,1.58-1.05,3.36C233.3,96.86,238.86,105.24,245,114.57Z"/><path class="cls-1" d="M270.61,262v45c0,3.35-.89,4.25-4.24,4.19H226c-3.46,0-4.67-.68-4.67-4.4V217.39c0-3.62,1-4.61,4.56-4.56h40.35c3.88,0,4.41,1.47,4.35,4.77C270.51,232.32,270.61,247.15,270.61,262Zm-32.75,0h0v20.43c0,12.21,0,12.06,12.11,12.21,3.77,0,4.4-1.31,4.35-4.71V241.39c0-12.89,0-12.79-12.9-12.42-3.09,0-3.61,1.2-3.56,3.88C237.91,242.8,237.86,252.5,237.86,262Z"/><path class="cls-1" d="M336.12,266.07V307c0,3.35-1,4.35-4.35,4.29H290.89c-3,0-4.08-.68-4.08-3.93V225c0-3.2.89-4,4-4h40.87c3.83,0,4.41,1.36,4.41,4.71C336,239.19,336.12,252.6,336.12,266.07Zm-32.75,0V283c0,11.95,0,11.79,11.89,11.89,3.51,0,4.67-.78,4.61-4.5V249.51c0-12.58,0-12.42-12.63-12.16-3.45,0-3.87,1.42-3.82,4.25,0,8.17-.05,16.35-.05,24.52Z"/><path class="cls-2" d="M245.83,335.72H152.76c-3.93,0-5.24-1-5.24-5.24.31-11.32,0-11.38,11.42-11.38H339.42c3.83,0,4.87.89,4.82,4.77,0,11.64,0,11.69-11.63,11.69Z"/><path class="cls-1" d="M205.11,274.46v32.7c0,3-.68,4.08-3.93,4h-41.4c-3.25,0-3.93-1.05-3.88-4.09V241.23c0-2.83.73-3.88,3.72-3.82h41.93c3,0,3.66,1,3.66,3.82C205,252.29,205.11,263.35,205.11,274.46Zm-32.75,0v15.72c0,3.93,1.25,5.81,4.76,4.56s11,4.71,11.59-4.3c.52-8.12,0-16.35,0-24.53,0-12.47,0-12.36-12.69-12.1-2.77,0-3.93.68-3.82,3.67.31,5.55.16,11.21.16,16.82Z"/><path class="cls-2" d="M245.88,409.4a16.41,16.41,0,1,1,16.51-16.35,16.15,16.15,0,0,1-15.93,16.35Z"/></g></g></g></svg>