<svg xmlns="http://www.w3.org/2000/svg" width="76.667" height="46" viewBox="0 0 76.667 46">
  <g id="iconfinder__Mastercard_1156750" transform="translate(-0.5 -13.1)">
    <g id="Group_15" data-name="Group 15" transform="translate(31.167 13.1)">
      <g id="Group_14" data-name="Group 14">
        <path id="Path_13" data-name="Path 13" d="M71.7,36.1a23,23,0,0,1-46,0h0a23,23,0,1,1,46,0Z" transform="translate(-25.7 -13.1)" fill="#ffb600"/>
      </g>
    </g>
    <g id="Group_17" data-name="Group 17" transform="translate(31.167 13.1)">
      <g id="Group_16" data-name="Group 16">
        <path id="Path_14" data-name="Path 14" d="M48.7,13.1a23.06,23.06,0,0,1,23,23h0a23,23,0,0,1-46,0" transform="translate(-25.7 -13.1)" fill="#f7981d"/>
      </g>
    </g>
    <g id="Group_19" data-name="Group 19" transform="translate(54.167 13.1)">
      <g id="Group_18" data-name="Group 18">
        <path id="Path_15" data-name="Path 15" d="M44.6,13.1a23.06,23.06,0,0,1,23,23h0a22.982,22.982,0,0,1-23,23" transform="translate(-44.6 -13.1)" fill="#ff8500"/>
      </g>
    </g>
    <g id="Group_21" data-name="Group 21" transform="translate(0.5 13.1)">
      <g id="Group_20" data-name="Group 20">
        <path id="Path_16" data-name="Path 16" d="M23.257,13.1a23,23,0,0,0,.243,46,23.268,23.268,0,0,0,15.455-5.963h0A21.867,21.867,0,0,0,41.267,50.7H36.521a28.074,28.074,0,0,1-1.7-2.312h8.153a15.589,15.589,0,0,0,1.339-2.434H33.479a14.5,14.5,0,0,1-.974-2.434H45.161a24.164,24.164,0,0,0,1.217-7.3,31.411,31.411,0,0,0-.487-4.868H31.775a17.791,17.791,0,0,1,.608-2.434H45.04a14.5,14.5,0,0,0-.974-2.434H33.357A24.134,24.134,0,0,1,34.7,24.052h8.153a11.573,11.573,0,0,0-1.825-2.434h-4.5a20.742,20.742,0,0,1,2.312-2.312,22.456,22.456,0,0,0-15.455-5.963C23.378,13.1,23.378,13.1,23.257,13.1Z" transform="translate(-0.5 -13.1)" fill="#ff5050"/>
      </g>
    </g>
    <g id="Group_23" data-name="Group 23" transform="translate(0.5 13.343)">
      <g id="Group_22" data-name="Group 22">
        <path id="Path_17" data-name="Path 17" d="M.5,36.057a22.982,22.982,0,0,0,23,23,23.268,23.268,0,0,0,15.455-5.963h0a21.868,21.868,0,0,0,2.312-2.434H36.521a28.074,28.074,0,0,1-1.7-2.312h8.153a15.589,15.589,0,0,0,1.339-2.434H33.479a14.5,14.5,0,0,1-.974-2.434H45.161a24.164,24.164,0,0,0,1.217-7.3,31.411,31.411,0,0,0-.487-4.868H31.775a17.791,17.791,0,0,1,.608-2.434H45.04a14.5,14.5,0,0,0-.974-2.434H33.357A24.134,24.134,0,0,1,34.7,24.009h8.153a11.573,11.573,0,0,0-1.825-2.434h-4.5a20.742,20.742,0,0,1,2.312-2.312A22.456,22.456,0,0,0,23.378,13.3h-.122" transform="translate(-0.5 -13.3)" fill="#e52836"/>
      </g>
    </g>
    <g id="Group_25" data-name="Group 25" transform="translate(23.257 13.343)">
      <g id="Group_24" data-name="Group 24">
        <path id="Path_18" data-name="Path 18" d="M19.443,59.057A23.268,23.268,0,0,0,34.9,53.094h0a21.868,21.868,0,0,0,2.312-2.434H32.465a28.074,28.074,0,0,1-1.7-2.312h8.153a15.589,15.589,0,0,0,1.339-2.434H29.422a14.5,14.5,0,0,1-.974-2.434H41.1a24.164,24.164,0,0,0,1.217-7.3,31.412,31.412,0,0,0-.487-4.868H27.719a17.79,17.79,0,0,1,.608-2.434H40.983a14.5,14.5,0,0,0-.974-2.434H29.3a24.133,24.133,0,0,1,1.339-2.434h8.153a11.573,11.573,0,0,0-1.825-2.434h-4.5a20.742,20.742,0,0,1,2.312-2.312A22.456,22.456,0,0,0,19.322,13.3H19.2" transform="translate(-19.2 -13.3)" fill="#cb2026"/>
      </g>
    </g>
    <g id="Group_46" data-name="Group 46" transform="translate(2.69 30.137)">
      <g id="Group_27" data-name="Group 27" transform="translate(25.434 1.095)">
        <g id="Group_26" data-name="Group 26">
          <path id="Path_19" data-name="Path 19" d="M26.729,38.709l.365-2.069a5.27,5.27,0,0,1-.608.122c-.852,0-.974-.487-.852-.73l.73-4.259H27.7l.365-2.312H26.851L27.094,28H24.66s-1.46,8.032-1.46,9.005a1.827,1.827,0,0,0,1.947,2.069A3.736,3.736,0,0,0,26.729,38.709Z" transform="translate(-23.2 -28)" fill="#fff"/>
        </g>
      </g>
      <g id="Group_29" data-name="Group 29" transform="translate(29.815 2.418)">
        <g id="Group_28" data-name="Group 28">
          <path id="Path_20" data-name="Path 20" d="M26.8,34.579c0,3.407,2.312,4.259,4.259,4.259a6.318,6.318,0,0,0,2.556-.365l.487-2.312a7.3,7.3,0,0,1-2.556.608c-2.677,0-2.19-1.947-2.19-1.947h4.989a15.778,15.778,0,0,0,.365-2.19A3.3,3.3,0,0,0,31.181,29.1C28.625,28.859,26.8,31.537,26.8,34.579Zm4.259-3.529c1.339,0,1.1,1.582,1.1,1.7H29.477C29.477,32.632,29.721,31.05,31.059,31.05Z" transform="translate(-26.8 -29.087)" fill="#fff"/>
        </g>
      </g>
      <g id="Group_31" data-name="Group 31" transform="translate(42.836)">
        <g id="Group_30" data-name="Group 30">
          <path id="Path_21" data-name="Path 21" d="M44.193,38.9l.487-2.677a5.981,5.981,0,0,1-2.069.608c-1.7,0-2.434-1.339-2.434-2.8,0-2.921,1.46-4.5,3.164-4.5a4.064,4.064,0,0,1,2.19.73l.365-2.556a8.556,8.556,0,0,0-2.8-.608c-2.8,0-5.6,2.434-5.6,7.058,0,3.042,1.46,5.111,4.381,5.111A10.922,10.922,0,0,0,44.193,38.9Z" transform="translate(-37.5 -27.1)" fill="#fff"/>
        </g>
      </g>
      <g id="Group_33" data-name="Group 33" transform="translate(10.952 2.19)">
        <g id="Group_32" data-name="Group 32">
          <path id="Path_22" data-name="Path 22" d="M15.924,28.9A8.619,8.619,0,0,0,13,29.387l-.365,2.069a7.193,7.193,0,0,1,2.677-.487c.852,0,1.582.122,1.582.852,0,.487-.122.608-.122.608h-1.1c-2.069,0-4.381.852-4.381,3.651,0,2.19,1.46,2.677,2.312,2.677a3.656,3.656,0,0,0,2.556-1.1l-.122.974h2.19l.974-6.693C19.21,29.022,16.776,28.9,15.924,28.9Zm.487,5.476c0,.365-.243,2.312-1.7,2.312a.95.95,0,0,1-.974-.974c0-.608.365-1.46,2.19-1.46A1.919,1.919,0,0,0,16.411,34.376Z" transform="translate(-11.3 -28.9)" fill="#fff"/>
        </g>
      </g>
      <g id="Group_35" data-name="Group 35" transform="translate(18.376 2.069)">
        <g id="Group_34" data-name="Group 34">
          <path id="Path_23" data-name="Path 23" d="M20.2,38.779c.608,0,3.651.122,3.651-3.164,0-3.042-2.921-2.434-2.921-3.651,0-.608.487-.852,1.339-.852.365,0,1.7.122,1.7.122l.365-2.19a9.244,9.244,0,0,0-2.312-.243c-1.825,0-3.651.73-3.651,3.164,0,2.8,3.042,2.556,3.042,3.651,0,.73-.852.852-1.46.852a7.958,7.958,0,0,1-2.19-.365l-.365,2.19C17.522,38.535,18.13,38.779,20.2,38.779Z" transform="translate(-17.4 -28.8)" fill="#fff"/>
        </g>
      </g>
      <g id="Group_37" data-name="Group 37" transform="translate(62.794 0.243)">
        <g id="Group_36" data-name="Group 36">
          <path id="Path_24" data-name="Path 24" d="M60.837,27.3l-.487,3.286a3.374,3.374,0,0,0-2.312-1.217c-2.19,0-4.138,2.677-4.138,5.841,0,1.947.974,4.016,3.042,4.016a3.249,3.249,0,0,0,2.312-.974l-.122.852h2.434l1.825-11.683Zm-1.1,6.45c0,1.339-.608,3.042-1.947,3.042-.852,0-1.339-.73-1.339-1.947,0-1.947.852-3.164,1.947-3.164C59.255,31.681,59.741,32.289,59.741,33.75Z" transform="translate(-53.9 -27.3)" fill="#fff"/>
        </g>
      </g>
      <g id="Group_39" data-name="Group 39" transform="translate(0 0.243)">
        <g id="Group_38" data-name="Group 38">
          <path id="Path_25" data-name="Path 25" d="M4.612,38.983l1.46-8.762.243,8.762h1.7l3.164-8.762L9.845,38.983H12.4L14.348,27.3H10.332L7.9,34.48,7.776,27.3H4.247L2.3,38.983Z" transform="translate(-2.3 -27.3)" fill="#fff"/>
        </g>
      </g>
      <g id="Group_41" data-name="Group 41" transform="translate(37.36 2.434)">
        <g id="Group_40" data-name="Group 40">
          <path id="Path_26" data-name="Path 26" d="M35.677,38.592c.73-4.016.852-7.3,2.556-6.693a9.551,9.551,0,0,1,.852-2.8H38.6c-1.1,0-1.947,1.46-1.947,1.46l.243-1.339H34.582L33,38.714h2.677Z" transform="translate(-33 -29.1)" fill="#fff"/>
        </g>
      </g>
      <g id="Group_43" data-name="Group 43" transform="translate(50.503 2.19)">
        <g id="Group_42" data-name="Group 42">
          <path id="Path_27" data-name="Path 27" d="M48.424,28.9a8.619,8.619,0,0,0-2.921.487l-.365,2.069a7.193,7.193,0,0,1,2.677-.487c.852,0,1.582.122,1.582.852,0,.487-.122.608-.122.608h-1.1c-2.069,0-4.381.852-4.381,3.651,0,2.19,1.46,2.677,2.312,2.677a3.656,3.656,0,0,0,2.556-1.1l-.122.974h2.19l.974-6.693C51.832,29.022,49.276,28.9,48.424,28.9Zm.608,5.476c0,.365-.243,2.312-1.7,2.312a.95.95,0,0,1-.974-.974c0-.608.365-1.46,2.19-1.46C48.911,34.376,48.911,34.376,49.033,34.376Z" transform="translate(-43.8 -28.9)" fill="#fff"/>
        </g>
      </g>
      <g id="Group_45" data-name="Group 45" transform="translate(57.804 2.434)">
        <g id="Group_44" data-name="Group 44">
          <path id="Path_28" data-name="Path 28" d="M52.477,38.592c.73-4.016.852-7.3,2.556-6.693a9.552,9.552,0,0,1,.852-2.8H55.4c-1.1,0-1.947,1.46-1.947,1.46l.243-1.339H51.382L49.8,38.714h2.677Z" transform="translate(-49.8 -29.1)" fill="#fff"/>
        </g>
      </g>
    </g>
    <g id="Group_67" data-name="Group 67" transform="translate(2.69 30.137)">
      <g id="Group_48" data-name="Group 48" transform="translate(25.191 1.095)">
        <g id="Group_47" data-name="Group 47">
          <path id="Path_29" data-name="Path 29" d="M23,37.005a1.827,1.827,0,0,0,1.947,2.069,4.632,4.632,0,0,0,1.825-.365l.365-2.069a5.271,5.271,0,0,1-.608.122c-.852,0-.974-.487-.852-.73l.73-4.259h1.339l.365-2.312H26.894L27.138,28" transform="translate(-23 -28)" fill="#dce5e5"/>
        </g>
      </g>
      <g id="Group_50" data-name="Group 50" transform="translate(31.032 2.418)">
        <g id="Group_49" data-name="Group 49">
          <path id="Path_30" data-name="Path 30" d="M27.8,34.579c0,3.407,1.1,4.259,3.042,4.259a6.318,6.318,0,0,0,2.556-.365l.487-2.312a7.3,7.3,0,0,1-2.556.608c-2.677,0-2.19-1.947-2.19-1.947h4.989a15.778,15.778,0,0,0,.365-2.19A3.3,3.3,0,0,0,30.964,29.1C28.408,28.859,27.8,31.537,27.8,34.579Zm3.042-3.529c1.339,0,1.582,1.582,1.582,1.7H29.26C29.26,32.632,29.5,31.05,30.842,31.05Z" transform="translate(-27.8 -29.087)" fill="#dce5e5"/>
        </g>
      </g>
      <g id="Group_52" data-name="Group 52" transform="translate(44.053)">
        <g id="Group_51" data-name="Group 51">
          <path id="Path_31" data-name="Path 31" d="M43.976,38.9l.487-2.677a5.981,5.981,0,0,1-2.069.608c-1.7,0-2.434-1.339-2.434-2.8,0-2.921,1.46-4.5,3.164-4.5a4.064,4.064,0,0,1,2.19.73l.365-2.556a8.556,8.556,0,0,0-2.8-.608c-2.8,0-4.381,2.434-4.381,7.058,0,3.042.243,5.111,3.164,5.111A10.922,10.922,0,0,0,43.976,38.9Z" transform="translate(-38.5 -27.1)" fill="#dce5e5"/>
        </g>
      </g>
      <g id="Group_54" data-name="Group 54" transform="translate(10.952 2.434)">
        <g id="Group_53" data-name="Group 53">
          <path id="Path_32" data-name="Path 32" d="M12.639,31.534a7.193,7.193,0,0,1,2.677-.487c.852,0,1.582.122,1.582.852,0,.487-.122.608-.122.608h-1.1c-2.069,0-4.381.852-4.381,3.651,0,2.19,1.46,2.677,2.312,2.677a3.656,3.656,0,0,0,2.556-1.1l-.122.974h2.19l.974-6.693c0-2.8-2.434-2.921-3.407-2.921m1.825,5.233c0,.365-1.46,2.312-2.921,2.312a.95.95,0,0,1-.974-.974c0-.608.365-1.46,2.19-1.46A9.942,9.942,0,0,0,17.628,34.333Z" transform="translate(-11.3 -29.1)" fill="#dce5e5"/>
        </g>
      </g>
      <g id="Group_56" data-name="Group 56" transform="translate(18.497 2.069)">
        <g id="Group_55" data-name="Group 55">
          <path id="Path_33" data-name="Path 33" d="M17.5,38.535a10.3,10.3,0,0,0,2.8.243c.608,0,3.651.122,3.651-3.164,0-3.042-2.921-2.434-2.921-3.651,0-.608.487-.852,1.339-.852.365,0,1.7.122,1.7.122l.365-2.19a9.244,9.244,0,0,0-2.312-.243c-1.825,0-2.434.73-2.434,3.164,0,2.8,1.825,2.556,1.825,3.651,0,.73-.852.852-1.46.852" transform="translate(-17.5 -28.8)" fill="#dce5e5"/>
        </g>
      </g>
      <g id="Group_58" data-name="Group 58" transform="translate(64.002 0.365)">
        <g id="Group_57" data-name="Group 57">
          <path id="Path_34" data-name="Path 34" d="M60.134,30.564a3.374,3.374,0,0,0-2.312-1.217c-2.19,0-2.921,2.677-2.921,5.841,0,1.947-.243,4.016,1.825,4.016a3.249,3.249,0,0,0,2.312-.974l-.122.852h2.434L63.177,27.4m-3.164,6.328c0,1.339-1.1,3.042-2.434,3.042-.852,0-1.339-.73-1.339-1.947,0-1.947.852-3.164,1.947-3.164A1.86,1.86,0,0,1,60.013,33.728Z" transform="translate(-54.893 -27.4)" fill="#dce5e5"/>
        </g>
      </g>
      <g id="Group_60" data-name="Group 60" transform="translate(0 0.243)">
        <g id="Group_59" data-name="Group 59">
          <path id="Path_35" data-name="Path 35" d="M4.612,38.983l1.46-8.762.243,8.762h1.7l3.164-8.762L9.845,38.983H12.4L14.348,27.3H11.305L7.9,34.48,7.776,27.3H6.438L2.3,38.983Z" transform="translate(-2.3 -27.3)" fill="#dce5e5"/>
        </g>
      </g>
      <g id="Group_62" data-name="Group 62" transform="translate(37.482 2.434)">
        <g id="Group_61" data-name="Group 61">
          <path id="Path_36" data-name="Path 36" d="M33.1,38.592h2.556c.73-4.016.852-7.3,2.556-6.693a9.552,9.552,0,0,1,.852-2.8h-.487c-1.1,0-1.947,1.46-1.947,1.46l.243-1.339" transform="translate(-33.1 -29.1)" fill="#dce5e5"/>
        </g>
      </g>
      <g id="Group_64" data-name="Group 64" transform="translate(50.503 2.434)">
        <g id="Group_63" data-name="Group 63">
          <path id="Path_37" data-name="Path 37" d="M45.139,31.534a7.193,7.193,0,0,1,2.677-.487c.852,0,1.582.122,1.582.852,0,.487-.122.608-.122.608h-1.1c-2.069,0-4.381.852-4.381,3.651,0,2.19,1.46,2.677,2.312,2.677a3.656,3.656,0,0,0,2.556-1.1l-.122.974h2.19l.974-6.693c0-2.8-2.434-2.921-3.407-2.921m1.825,5.233c0,.365-1.46,2.312-2.921,2.312a.95.95,0,0,1-.974-.974c0-.608.365-1.46,2.19-1.46A10.706,10.706,0,0,0,50.128,34.333Z" transform="translate(-43.8 -29.1)" fill="#dce5e5"/>
        </g>
      </g>
      <g id="Group_66" data-name="Group 66" transform="translate(57.926 2.434)">
        <g id="Group_65" data-name="Group 65">
          <path id="Path_38" data-name="Path 38" d="M49.9,38.592h2.556c.73-4.016.852-7.3,2.556-6.693a9.552,9.552,0,0,1,.852-2.8h-.487c-1.1,0-1.947,1.46-1.947,1.46l.243-1.339" transform="translate(-49.9 -29.1)" fill="#dce5e5"/>
        </g>
      </g>
    </g>
  </g>
</svg>
