<svg xmlns="http://www.w3.org/2000/svg" width="115.117" height="37.271" viewBox="0 0 115.117 37.271">
  <g id="iconfinder_visa_294654" transform="translate(-25.009 -181.864)">
    <g id="形状_1_3_" transform="translate(35.07 181.864)">
      <g id="形状_1" transform="translate(0)">
        <g id="Group_2" data-name="Group 2">
          <path id="Path_2" data-name="Path 2" d="M101.763,182.508,95.9,218.515h9.374l5.86-36.007Zm-13.746,0L79.08,207.274l-1.057-5.333v0l-.233-1.2A29.859,29.859,0,0,0,69.474,190.2a37.5,37.5,0,0,0-4.171-2.886l8.123,31.2h9.767l14.915-36.007Zm36.584,10c0-4.071,9.129-3.548,13.141-1.337l1.338-7.733a27.059,27.059,0,0,0-8.431-1.57c-4.652,0-15.7,2.034-15.7,11.92,0,9.3,12.966,9.419,12.966,14.3s-11.629,4.011-15.467.93l-1.395,8.083a26.257,26.257,0,0,0,10.582,2.034c6.4,0,16.048-3.314,16.048-12.327C137.684,197.446,124.6,196.575,124.6,192.5Zm38.252-10h-7.537a4.307,4.307,0,0,0-4.328,2.683L137.01,218.515h9.77l1.955-5.348h11.917l1.1,5.348h8.607Zm-11.417,23.27,4.926-13.475,2.771,13.475Z" transform="translate(-65.303 -181.864)" fill="#005bac" fill-rule="evenodd"/>
        </g>
      </g>
    </g>
    <g id="形状_1_2_" transform="translate(25.009 182.649)">
      <g id="形状_1_1_">
        <g id="Group_3" data-name="Group 3">
          <path id="Path_3" data-name="Path 3" d="M44.765,188.257s-.388-3.25-4.53-3.25H25.185l-.176.611a37.291,37.291,0,0,1,14.174,7,28.121,28.121,0,0,1,8.8,11.863Z" transform="translate(-25.009 -185.007)" fill="#f6ac1d" fill-rule="evenodd"/>
        </g>
      </g>
    </g>
  </g>
</svg>
