<svg xmlns="http://www.w3.org/2000/svg" width="18.173" height="22.161" viewBox="0 0 18.173 22.161">
  <path id="path" d="M12.966,15.2a2.8,2.8,0,0,1,.1.909,5.562,5.562,0,0,1-.1.909L18.317,21a3.507,3.507,0,1,1-1.212,2.625,5.562,5.562,0,0,1,.1-.909l-5.351-3.988a3.419,3.419,0,0,1-2.322.909,3.534,3.534,0,0,1,0-7.067,3.419,3.419,0,0,1,2.322.909l5.351-3.988a6.9,6.9,0,0,1-.1-.959,3.534,3.534,0,1,1,3.534,3.534,3.419,3.419,0,0,1-2.322-.909L12.966,15.2Zm7.673-5.149a1.514,1.514,0,1,0-1.514-1.514,1.487,1.487,0,0,0,1.514,1.514Zm0,15.144a1.514,1.514,0,1,0-1.514-1.514,1.487,1.487,0,0,0,1.514,1.514ZM9.534,17.62a1.514,1.514,0,1,0-1.514-1.514A1.487,1.487,0,0,0,9.534,17.62Z" transform="translate(-6 -5)" fill="#b3b3b3"/>
</svg>
