<svg id="Layer_1" data-name="Layer 1" xmlns="http://www.w3.org/2000/svg" viewBox="0 0 46 46"><defs><style>.cls-1{fill:#fff;}</style></defs><title>قهوة</title><path id="Path_2649" data-name="Path 2649" class="cls-1" d="M21.18,0a4.29,4.29,0,0,1,1.63,3.65,6.09,6.09,0,0,1-.58,1.89c-.21.48-.42,1-.64,1.46a3.31,3.31,0,0,0,.83,4l.31.31a.48.48,0,0,1,0,.68.49.49,0,0,1-.65,0c-1.56-1.39-2.19-2.83-1.65-4.64a21.59,21.59,0,0,1,.92-2.22,4.42,4.42,0,0,0,.47-1.92,3.42,3.42,0,0,0-1-2.23c-.38-.43-.37-.65.07-1Z"/><path id="Path_2650" data-name="Path 2650" class="cls-1" d="M33,37.84h7.87a1.11,1.11,0,0,1,1.23,1,1.08,1.08,0,0,1,0,.44,5.79,5.79,0,0,1-1.45,3,10.79,10.79,0,0,1-5.76,3.61,5.54,5.54,0,0,1-1.22.11H10.26a8.82,8.82,0,0,1-4.79-1.38,10.29,10.29,0,0,1-3.54-3.43A5,5,0,0,1,1.19,39,1,1,0,0,1,2,37.85a1,1,0,0,1,.24,0H9.78c.11,0,.26,0,.32,0s-.06-.2-.12-.3a38.33,38.33,0,0,1-3.47-8,46.42,46.42,0,0,1-1.93-8,8.45,8.45,0,0,1,.26-4.35,5.6,5.6,0,0,1,5.35-3.66H33a5.66,5.66,0,0,1,5.74,4.94,5.05,5.05,0,0,1,.08,1c0,.27.09.32.34.32h2.31a4.73,4.73,0,0,1,1.74.31,2.52,2.52,0,0,1,1.59,2.36,6.68,6.68,0,0,1-1,3.57,23.15,23.15,0,0,1-8.23,8.56,2,2,0,0,1-.36.19,2.2,2.2,0,0,0-1.38,1.38C33.64,36.78,33.31,37.27,33,37.84ZM21.62,15.57H10.27a5.46,5.46,0,0,0-.9.07,3.76,3.76,0,0,0-2.9,3.16,9.47,9.47,0,0,0,.16,3.05A49.11,49.11,0,0,0,9.49,31.93a28.51,28.51,0,0,0,2.84,5.62.5.5,0,0,0,.46.29H30.37a.45.45,0,0,0,.42-.23,21.13,21.13,0,0,0,1.22-2A51,51,0,0,0,36.13,24.1a20.93,20.93,0,0,0,.71-4.66,3.76,3.76,0,0,0-3.63-3.87H21.62Zm0,24.26H3.8c-.37,0-.37,0-.19.32l.11.19A9,9,0,0,0,6.62,43a5.74,5.74,0,0,0,3,1h24a3.2,3.2,0,0,0,.69,0,8.69,8.69,0,0,0,5.37-3.75c.06-.09.18-.2.11-.3s-.21-.05-.32-.05Zm14.14-7.67a.46.46,0,0,0,.29-.15,18.81,18.81,0,0,0,1.69-1.38,21.64,21.64,0,0,0,4.33-5.3,5.62,5.62,0,0,0,.81-2.3.94.94,0,0,0-.67-1,2.07,2.07,0,0,0-.61-.12l-2.76,0a.24.24,0,0,0-.28.19.09.09,0,0,0,0,0,53.14,53.14,0,0,1-2.42,9C36,31.45,35.87,31.8,35.76,32.16Z"/><path id="Path_2651" data-name="Path 2651" class="cls-1" d="M19.29,4.48a5.18,5.18,0,0,1-.5,2.16c-.2.46-.4.88-.58,1.32a2.62,2.62,0,0,0,.57,3c.13.14.27.26.39.4a.49.49,0,0,1-.66.73c-1.54-1.38-1.89-2.7-1.28-4.27.23-.59.5-1.17.75-1.75a2.7,2.7,0,0,0-.57-3.23A.5.5,0,1,1,18,2a.54.54,0,0,1,.15.15A3.61,3.61,0,0,1,19.29,4.48Z"/><path id="Path_2652" data-name="Path 2652" class="cls-1" d="M26.08,4.71a4.64,4.64,0,0,1-.46,1.86l-.57,1.29a2.7,2.7,0,0,0,.65,3.2,2.29,2.29,0,0,1,.27.27A.48.48,0,0,1,26,12a.45.45,0,0,1-.65.05h0C24,10.87,23.41,9.6,23.93,8c.19-.56.46-1.08.68-1.62a8.53,8.53,0,0,0,.32-.84,2.46,2.46,0,0,0-.44-2.31c-.12-.17-.28-.31-.4-.46a.5.5,0,0,1,.06-.66.46.46,0,0,1,.65,0h0A3.74,3.74,0,0,1,26.08,4.71Z"/><path id="Path_2653" data-name="Path 2653" class="cls-1" d="M28.9,17.5a21.61,21.61,0,0,1,3.77.19c1.51.25,2,.87,1.95,2.41a33,33,0,0,1-2.48,11c-.28.75-.6,1.48-.95,2.21a.51.51,0,0,1-.64.36l-.08,0c-.28-.12-.32-.41-.17-.75a40.36,40.36,0,0,0,3.05-9.6,15,15,0,0,0,.24-3.54,1,1,0,0,0-.93-1A13,13,0,0,0,30,18.48H26.64a.54.54,0,0,1-.51-.25.47.47,0,0,1,0-.51.54.54,0,0,1,.51-.23Z"/></svg>