<svg id="Layer_1" data-name="Layer 1" xmlns="http://www.w3.org/2000/svg" viewBox="0 0 46 46"><defs><style>.cls-1{fill:#fff;}</style></defs><title>مكسرات</title><path id="Path_2664" data-name="Path 2664" class="cls-1" d="M18.79,1.85c4.19.21,8,.28,10.85,3.25.55.58,1,.15,1.56,0,5.68-1.54,9-.21,11.83,4.82a24.19,24.19,0,0,1-4.42,29c-6,5.59-12.91,6.56-20.57,3.62-5.68-2.2-7.47-4.74-7.31-10.65a19.22,19.22,0,0,1,2.38-8.4c.86-1.65.47-1.91-1.24-2-6-.38-10.14-3.38-11.59-8.14A5.41,5.41,0,0,1,1.79,7.58c2.92-3,6.8-4.11,10.76-4.94C14.75,2.18,17,2.07,18.79,1.85Zm-.22,39.09a13.84,13.84,0,0,0,12.2-3.84c5.49-5.1,8.45-11.59,10.31-18.57a14,14,0,0,0-.14-8.67,2.08,2.08,0,0,0-2.77-1.52,9.91,9.91,0,0,0-6.46,4.53A30.92,30.92,0,0,0,28.13,22c-.65,2.48-1.23,5-1.88,7.52-.12.46-.37,1-1,.95-.76-.1-.74-.77-.62-1.33.27-1.23.54-2.46.9-3.66C27.73,18.19,28.29,10,37.63,6.57c-4-1.14-7.08.14-9.89,2A37.54,37.54,0,0,0,13.27,27.45a15.09,15.09,0,0,0-.87,6.39c.12,1.61.23,3.75,1.77,4.2,1.88.53,3.44-1.06,4.57-2.62C20.39,33.17,21.16,30.54,22,28s1.72-5.32,2.57-8c.18-.56.39-1.18,1.14-1s.63.76.43,1.37c-1.36,4-2.63,8.11-4,12.13a11.74,11.74,0,0,1-5.54,7c3.19-.44,4.8-2.69,6.26-5.11.35-.58.61-1.55,1.47-1s.25,1.22-.07,1.84a13.59,13.59,0,0,1-5.65,5.77Zm-16.51-28a5.51,5.51,0,0,0,3.75,2.57,23.52,23.52,0,0,0,9.67.21c1.18-.18,2.48-.06,3.36-1.15a32.86,32.86,0,0,1,8.53-7.67c1.14-.68.81-1.15-.12-1.57a6.11,6.11,0,0,0-5.79.35c-1.36.8-2.61,1.74-3.91,2.65C13,11.5,8.35,14.44,2.06,12.92Zm23.46,29.4c12.41,1.12,22-14.64,18-26.67C40.78,26.44,37.07,36.72,25.52,42.32ZM21.12,3.65c-6-.09-11.72.56-16.83,3.86A7.16,7.16,0,0,0,2.34,9.44c-.72,1-.49,1.56.72,1.94,3.23,1,6.07-.06,8.89-1.42C15.3,8.34,18,5.71,21.12,3.65Zm-17,13.07A13.33,13.33,0,0,0,11.86,20c2.35.35,3.9-.24,4.57-2.8A27.26,27.26,0,0,1,4.11,16.72Z"/></svg>