<svg xmlns="http://www.w3.org/2000/svg" width="145.217" height="37.111" viewBox="0 0 145.217 37.111">
  <g id="iconfinder__Paypal-39_1156727" transform="translate(-0.5 -24)">
    <g id="Group_4" data-name="Group 4" transform="translate(100.538 33.681)">
      <path id="Path_4" data-name="Path 4" d="M56.117,28.2H48.28a1.531,1.531,0,0,0-1.153.922L43.9,49.406a.611.611,0,0,0,.692.692h4.149a.611.611,0,0,0,.692-.692l.922-5.763a1.055,1.055,0,0,1,1.153-.922h2.536q7.952,0,8.99-7.607a6.042,6.042,0,0,0-.922-5.071A9.3,9.3,0,0,0,56.117,28.2m.922,7.607c-.461,2.766-2.536,2.766-4.61,2.766H51.046l.922-5.3c0-.231.23-.461.692-.461h.461c1.383,0,2.766,0,3.458.922.461.231.461.922.461,2.075" transform="translate(-43.9 -28.2)" fill="#139ad6"/>
    </g>
    <g id="Group_5" data-name="Group 5" transform="translate(44.065 33.681)">
      <path id="Path_5" data-name="Path 5" d="M31.617,28.2H23.78a1.532,1.532,0,0,0-1.153.922L19.4,49.406a.611.611,0,0,0,.692.692H23.78a1.531,1.531,0,0,0,1.153-.922l.922-5.532a1.055,1.055,0,0,1,1.153-.922h2.536q7.952,0,8.99-7.607a6.042,6.042,0,0,0-.922-5.071A8.86,8.86,0,0,0,31.617,28.2m.922,7.607c-.461,2.766-2.536,2.766-4.61,2.766H26.776l.922-5.3c0-.231.231-.461.692-.461h.461c1.383,0,2.766,0,3.458.922a2.469,2.469,0,0,1,.231,2.075" transform="translate(-19.4 -28.2)" fill="#263b80"/>
    </g>
    <g id="Group_6" data-name="Group 6" transform="translate(62.131 40.596)">
      <path id="Path_6" data-name="Path 6" d="M45.131,31.661H41.442c-.231,0-.692.231-.692.461l-.231,1.153-.231-.461A5.422,5.422,0,0,0,35.91,31.2a8.857,8.857,0,0,0-8.529,7.607,6.87,6.87,0,0,0,1.383,5.763c1.153,1.383,2.766,1.844,4.841,1.844a7.368,7.368,0,0,0,5.3-2.075l-.23,1.153a.611.611,0,0,0,.692.692h3.458a1.531,1.531,0,0,0,1.153-.922l2.075-12.908c-.231-.23-.692-.691-.922-.691m-5.3,7.376a4.458,4.458,0,0,1-4.38,3.688,3.686,3.686,0,0,1-2.536-.922,4.916,4.916,0,0,1-.692-2.766,4.111,4.111,0,0,1,6.685-2.766,4.024,4.024,0,0,1,.922,2.766" transform="translate(-27.237 -31.2)" fill="#263b80"/>
    </g>
    <g id="Group_7" data-name="Group 7" transform="translate(118.373 40.596)">
      <path id="Path_7" data-name="Path 7" d="M69.531,31.661H65.842c-.23,0-.692.231-.692.461l-.23,1.153-.231-.461A5.422,5.422,0,0,0,60.31,31.2a8.857,8.857,0,0,0-8.529,7.607,6.87,6.87,0,0,0,1.383,5.763c1.153,1.383,2.766,1.844,4.841,1.844a7.368,7.368,0,0,0,5.3-2.075l-.231,1.153a.611.611,0,0,0,.692.692h3.458a1.531,1.531,0,0,0,1.153-.922l2.075-12.908c-.23-.23-.461-.691-.922-.691m-5.3,7.376a4.458,4.458,0,0,1-4.38,3.688,3.686,3.686,0,0,1-2.536-.922,4.916,4.916,0,0,1-.692-2.766,4.111,4.111,0,0,1,6.685-2.766,2.646,2.646,0,0,1,.922,2.766" transform="translate(-51.637 -31.2)" fill="#139ad6"/>
    </g>
    <g id="Group_11" data-name="Group 11" transform="translate(0.5 24)">
      <g id="Group_8" data-name="Group 8" transform="translate(81.829 17.057)">
        <path id="Path_8" data-name="Path 8" d="M53.749,31.4H49.83a1.2,1.2,0,0,0-.922.461L43.837,39.7l-2.305-7.376a1.065,1.065,0,0,0-1.153-.692H36.692c-.461,0-.692.461-.692.922l4.149,12.217L36.23,50.3c-.23.461,0,1.153.461,1.153H40.38a1.2,1.2,0,0,0,.922-.461l12.678-18.21c.691-.692.23-1.383-.231-1.383" transform="translate(-36 -31.4)" fill="#263b80"/>
      </g>
      <g id="Group_9" data-name="Group 9" transform="translate(136.919 9.821)">
        <path id="Path_9" data-name="Path 9" d="M63.127,28.812,59.9,49.558a.611.611,0,0,0,.692.691h3.227a1.531,1.531,0,0,0,1.153-.922L68.2,29.043a.611.611,0,0,0-.692-.692H63.819c-.231-.23-.461,0-.692.461" transform="translate(-59.9 -28.261)" fill="#139ad6"/>
      </g>
      <g id="Group_10" data-name="Group 10">
        <path id="Path_10" data-name="Path 10" d="M27.008,26.766C25.394,24.922,22.4,24,18.249,24H6.724A1.977,1.977,0,0,0,5.11,25.383L.5,55.579a1.055,1.055,0,0,0,.922,1.153H8.568l1.844-11.295V45.9a1.977,1.977,0,0,1,1.614-1.383h3.458c6.685,0,11.756-2.766,13.369-10.373v-.691h0c.23-3-.231-4.841-1.844-6.685" transform="translate(-0.5 -24)" fill="#263b80"/>
      </g>
    </g>
    <g id="Group_12" data-name="Group 12" transform="translate(7.876 33.451)">
      <path id="Path_11" data-name="Path 11" d="M24.445,28.1h0v.692c-1.614,7.837-6.685,10.373-13.369,10.373H7.619a1.977,1.977,0,0,0-1.614,1.383L3.7,54.608a.844.844,0,0,0,.922.922h5.993A1.291,1.291,0,0,0,12,54.377v-.23L13.151,47V46.54a1.291,1.291,0,0,1,1.383-1.153h.922c5.763,0,10.373-2.305,11.525-9.22.461-2.766.23-5.3-1.153-6.915A2.361,2.361,0,0,0,24.445,28.1" transform="translate(-3.7 -28.1)" fill="#139ad6"/>
    </g>
    <g id="Group_13" data-name="Group 13" transform="translate(10.412 32.068)">
      <path id="Path_12" data-name="Path 12" d="M21.4,28.192c-.231,0-.461-.23-.692-.23a.847.847,0,0,1-.692-.231,12.177,12.177,0,0,0-3-.231H8.027a.847.847,0,0,0-.692.231,1.268,1.268,0,0,0-.692,1.153L4.8,40.869v.461a1.977,1.977,0,0,1,1.614-1.383H9.871c6.685,0,11.756-2.766,13.369-10.373a.847.847,0,0,1,.231-.692c-.461-.231-.692-.461-1.153-.461-.692-.231-.692-.231-.922-.231" transform="translate(-4.8 -27.5)" fill="#232c65"/>
    </g>
  </g>
</svg>
