<svg xmlns="http://www.w3.org/2000/svg" width="81.435" height="60.005" viewBox="0 0 81.435 60.005">
  <g id="Group_2235" data-name="Group 2235" transform="translate(0 0)">
    <path id="Path_2739" data-name="Path 2739" d="M-3625.657,1544.4c-9.179,0-18.357.015-27.535-.007-4.03-.01-5.438-1.392-5.453-5.481q-.062-16.7-.012-33.393c.014-4.626,1.363-5.938,5.947-5.94q27.242-.012,54.485.015c4.624,0,5.875,1.341,5.861,5.947-.032,10.838-.026,21.676-.046,32.514-.01,5.267-1.111,6.365-6.3,6.364q-13.475,0-26.95,0Zm.187-26.587c-9.468,0-18.937.056-28.4-.046-1.976-.022-2.5.626-2.475,2.5.09,5.953.017,11.908.039,17.861.012,3.44.476,3.942,3.853,3.945,18.057.017,36.115-.028,54.172.042,2.681.01,3.665-1.058,3.632-3.641-.077-6.051-.108-12.1.01-18.154.042-2.121-.731-2.576-2.717-2.555C-3606.729,1517.866-3616.1,1517.811-3625.47,1517.816Zm.048-2.376c9.26,0,18.526-.21,27.774.108,3.5.121,2.8-1.776,2.984-3.768.209-2.3-.354-3.2-2.935-3.189q-27.924.167-55.848-.008c-2.713-.018-3.009,1.12-2.919,3.292.083,2.01-.255,3.707,2.874,3.638C-3644.139,1515.306-3634.779,1515.438-3625.422,1515.44Zm-.026-9.145c9.47,0,18.941.012,28.412-.022.785,0,1.921.469,2.243-.732a2.9,2.9,0,0,0-.707-2.983c-.883-.847-2.019-.59-3.065-.592q-14.938-.026-29.877-.01c-8.2,0-16.4.04-24.6-.01-2-.012-3.2.6-3.208,2.781,0,2.44,1.862,1.525,2.979,1.533C-3644,1506.327-3634.725,1506.3-3625.449,1506.295Z" transform="translate(3673.799 -1484.416)" fill="#bd9c72"/>
    <path id="Path_2740" data-name="Path 2740" d="M-3651.247,1473.716q13.759,0,27.519.006c3.723.008,5.2,1.286,5.5,4.908a50.4,50.4,0,0,1-.017,5.556c-.02.718-.275,1.357-1.188,1.361-.986,0-1.032-.73-1.057-1.41-.054-1.56-.126-3.124-.067-4.682.1-2.764-1.38-3.448-3.861-3.434-12,.067-24.005.033-36.008.034-6.05,0-12.1.078-18.15-.031-2.685-.049-3.615,1.078-3.6,3.668.074,10.831.027,21.663.052,32.495.008,3.551.447,3.932,4.129,3.951,1.463.008,2.93-.029,4.388.056a1.277,1.277,0,0,1,1.354,1.266c-.03.845-.767,1.059-1.483,1.056a55.786,55.786,0,0,1-7.012-.145c-2.629-.346-3.69-2.3-3.7-4.818-.03-5.269-.02-10.539-.021-15.808,0-6.148-.049-12.3.024-18.443.05-4.2,1.5-5.579,5.677-5.589,9.173-.021,18.345-.006,27.519-.006Z" transform="translate(3684.483 -1473.702)" fill="#bd9c72"/>
    <path id="Path_2741" data-name="Path 2741" d="M-3570.169,1544.4a6.545,6.545,0,0,1-6.524,6.449,6.591,6.591,0,0,1-6.342-6.357,6.681,6.681,0,0,1,6.249-6.482A6.585,6.585,0,0,1-3570.169,1544.4Zm-6.3,4.036a4.331,4.331,0,0,0,3.912-3.955,4.263,4.263,0,0,0-4.125-4.037,4.253,4.253,0,0,0-3.9,4.259A4.276,4.276,0,0,0-3576.472,1548.436Z" transform="translate(3642.478 -1500.329)" fill="#bd9c72"/>
    <path id="Path_2742" data-name="Path 2742" d="M-3638.074,1555.282q-3.807,0-7.616,0c-.883,0-1.967.062-2.051-1.091s.9-1.311,1.851-1.31q7.762.009,15.525,0c1,0,1.835.306,1.74,1.441-.09,1.081-1.074.944-1.832.95C-3633,1555.292-3635.535,1555.28-3638.074,1555.282Z" transform="translate(3669.271 -1506.487)" fill="#bd9c72"/>
    <path id="Path_2743" data-name="Path 2743" d="M-3638.357,1543.234c-2.535,0-5.069,0-7.6,0-.918,0-1.914-.094-1.817-1.309.075-.946.948-1.1,1.78-1.094q7.75.009,15.5.011c.935,0,1.9.158,1.823,1.339-.064.985-.974,1.059-1.786,1.059Q-3634.409,1543.236-3638.357,1543.234Z" transform="translate(3669.287 -1501.496)" fill="#bd9c72"/>
  </g>
</svg>
