<svg xmlns="http://www.w3.org/2000/svg" width="37.676" height="37.646" viewBox="0 0 37.676 37.646">
  <path id="profile_close_2" d="M453.4,383.395a19.025,19.025,0,0,0-10.447-10.854,11.484,11.484,0,0,0,4.2-8.776,11.91,11.91,0,0,0-10.868-11.675,11.77,11.77,0,0,0-2.894,0,11.91,11.91,0,0,0-10.859,11.675,11.477,11.477,0,0,0,4.2,8.776,19.023,19.023,0,0,0-10.449,10.854,4.541,4.541,0,0,0,.638,4.273,5,5,0,0,0,4.019,1.979h27.832a4.993,4.993,0,0,0,4.014-1.979,4.527,4.527,0,0,0,.624-4.273Zm-25.948-19.63a7.162,7.162,0,0,1,6.626-7.012,6.218,6.218,0,0,1,1.527,0,7.08,7.08,0,1,1-8.153,7.012Zm-6.527,21.176a14.995,14.995,0,0,1,27.832,0H420.934Z" transform="translate(-416.006 -352)" fill="#bd9c72" fill-rule="evenodd"/>
</svg>
