<svg xmlns="http://www.w3.org/2000/svg" width="43.534" height="42.289" viewBox="0 0 43.534 42.289">
  <g id="support" transform="translate(0.504 0.504)">
    <path id="Cart" d="M114.572,85.241H83.781l-1.774-4.169A1.457,1.457,0,0,0,81,80.225l-5.712-1.344a1.456,1.456,0,1,0-.667,2.836l4.994,1.175L92.4,112.944a4.815,4.815,0,1,0,8.627.484h5.245a4.816,4.816,0,1,0,4.434-2.935l-16.173.022-1.995-4.689h22.034a1.456,1.456,0,0,0,1.456-1.456V86.7A1.457,1.457,0,0,0,114.572,85.241Zm-3.863,28.167a1.9,1.9,0,1,1-1.9,1.9A1.9,1.9,0,0,1,110.709,113.408Zm-14.108,0a1.9,1.9,0,1,1-1.9,1.9A1.9,1.9,0,0,1,96.6,113.408Zm16.514-19.33h-9.654a1.456,1.456,0,0,0,0,2.913h9.654v5.923H91.3L85.02,88.154h28.095Z" transform="translate(-73.499 -78.841)" fill="#bd9c72" stroke="#bd9c72" stroke-width="1"/>
  </g>
</svg>
