<svg xmlns="http://www.w3.org/2000/svg" width="160.442" height="57.637" viewBox="0 0 160.442 57.637">
  <g id="Group_35704" data-name="Group 35704" transform="translate(-38.752 -411.5)">
    <g id="Group_35705" data-name="Group 35705" transform="translate(38.752 427.105)">
      <g id="Group_35704-2" data-name="Group 35704">
        <path id="Path_37727" data-name="Path 37727" d="M51.406,441.927c.38-.465.757-.935,1.109-1.421a.9.9,0,0,1,.738-.381c.645,0,1.832.006,1.991.009a1.458,1.458,0,1,0,.012-2.916H53.607c0-.1,0-.2,0-.384,0-.292.041-.427.2-.483h2.166a1.459,1.459,0,0,0,0-2.917c-.455,0-2.152.01-2.2.012a3.112,3.112,0,0,0-3.034,2.947c-.018.828-.021,1.411-.021,1.735a2.876,2.876,0,0,0-.271.368,8.153,8.153,0,0,1-1.162,1.452,1.423,1.423,0,0,0,.057,2.23A1.386,1.386,0,0,0,51.406,441.927Z" transform="translate(-34.013 -419.1)" fill="#0e77ff"/>
        <path id="Path_37728" data-name="Path 37728" d="M154.479,444.761a2.541,2.541,0,0,0-2.541,2.542c0,1.367,0,2.915,0,3.641,0,.514-.072.75-.355.85h-8.211c.007-.113.035-.224.035-.337,0-3.209.044-4.969-.025-8.177a5.469,5.469,0,0,0-5.333-5.18q-6.846-.044-13.694,0c-.147,0-.295.01-.439.024a2.566,2.566,0,0,0-5,.638c-.021,1.445-.028,2.89,0,4.333l.057-.007c-.012.122-.019.243-.022.367-.027,1.277-.024,6.217-.009,8.34h-4c.006-.082.01-.163.012-.247.029-1.443.022-2.888,0-4.331,0-.063-.013-.121-.019-.183,0-.6.013-1.206.01-1.809.007-.951.006-.533-.009-1.484v-.275a4.622,4.622,0,0,0-.075-.831,5.594,5.594,0,0,0-5.336-4.614h-.006c-.133-.007-.267-.013-.4-.013-2.09-.006-3.214-.009-5.3-.007h-.652c-2.028,0-1.479.006-3.507.018h-.28a5.468,5.468,0,0,0-5.332,5.181c-.047,2.165-.044,2.962-.035,5.127q-.011,1.427.009,2.853v.277c0,.108.021.215.028.323H91.124c.006-.081.01-.164.012-.247.029-1.443.022-2.888,0-4.331a2.4,2.4,0,0,0-2.467-2.415,2.357,2.357,0,0,0-2.6,2.183c-.085,1.3-.035,2.611-.052,3.918-.006.558-.057.8-.33.894-1.928,0-9.719.024-15.631.043a6.372,6.372,0,0,0,.06-.757c.012-4.336.013-15.161-.01-19.5a1.366,1.366,0,0,1,.619-1.259c.873-.629,1.714-1.3,2.548-1.985a2.549,2.549,0,1,0-3.2-3.969c-1.156.9-2.309,1.807-3.468,2.7A4,4,0,0,0,65,430.391c0,2.294,0,11.077,0,13.371q0,3.544,0,7.087c0,.866-.1.968-.934.969-2.751,0-16.585,0-19.336,0-.764,0-.915-.155-.915-.935,0-4.13,0-.395,0-4.524,0-.834.113-.946.959-.954,1.306-.016,2.616.034,3.918-.052a2.356,2.356,0,0,0,2.183-2.6,2.394,2.394,0,0,0-2.414-2.467c-1.445-.019-2.89-.027-4.333,0a5.575,5.575,0,0,0-5.354,5.405c-.029,4.564-.029,1.267,0,5.831a5.467,5.467,0,0,0,5.18,5.332c2.922.063,15.011.035,19.575.026v0c3.277.021,15.235.026,18.512.016,4.4,0,6.931.006,8.638,0,3,.022,1.417.021,5.352-.006,1.2.007,2.405,0,3.607.006.068,0,.135.007.2.007,2.09.006,1.6.009,3.692.007h.652c.851,0,1.53,0,2.184,0,10.66.009,28.027,0,31.222,0,.046,0,.087-.01.133-.01.1,0,.2.01.3.01,2.09.006,1.6.009,3.692.007h.652c2.028,0,6.968-.006,9-.018v0h.278a5.468,5.468,0,0,0,5.333-5.18c.029-1.367.038-2.918.04-4.42A2.541,2.541,0,0,0,154.479,444.761Zm-55.393-.785c0-.516.072-.751.356-.85h3.343c2.362,0,3.759,0,6.122,0a1.482,1.482,0,0,1,.758.115,1.243,1.243,0,0,1,.153.779c.016,1.3-.034,1.246.052,2.548l0,.034v1.047c-.038,1.081-.021,2.167-.034,3.25-.006.557-.059.8-.33.894h-9.457a1.489,1.489,0,0,1-.76-.115,1.243,1.243,0,0,1-.153-.779c-.016-1.306.034-2.616-.052-3.918l0-.034C99.086,445.5,99.085,445.422,99.086,443.976Zm38.291,7.818h-13.33c.041-2.138.007-6.591.021-7.694.01-.845.121-.959.954-.959q6.195,0,12.388,0c.781,0,.934.15.935.915,0,2.751,0,4.053,0,6.8C138.344,451.7,138.242,451.792,137.377,451.793Z" transform="translate(-38.752 -423.701)" fill="#0e77ff"/>
        <path id="Path_37729" data-name="Path 37729" d="M114.251,447.59a2.545,2.545,0,1,0,2.545,2.545A2.544,2.544,0,0,0,114.251,447.59Z" transform="translate(-4.26 -412.406)" fill="#0e77ff"/>
        <path id="Path_37730" data-name="Path 37730" d="M69.464,439.486a2.546,2.546,0,1,0-2.545-2.545A2.546,2.546,0,0,0,69.464,439.486Z" transform="translate(-25.435 -418.645)" fill="#0e77ff"/>
        <path id="Path_37731" data-name="Path 37731" d="M62.042,436.94a2.545,2.545,0,1,0,2.545-2.546A2.545,2.545,0,0,0,62.042,436.94Z" transform="translate(-27.741 -418.645)" fill="#0e77ff"/>
      </g>
    </g>
    <text id="Basmtak.com" transform="translate(91.256 467.137)" fill="#0e77ff" font-size="7" font-family="SegoeUI, Segoe UI"><tspan x="0" y="0">Basmtak.com</tspan></text>
    <text id="Basmtak" transform="translate(79.591 432.5)" fill="#0e77ff" font-size="19" font-family="SegoeUI, Segoe UI"><tspan x="0" y="0">Basmtak</tspan></text>
    <g id="Group_35710" data-name="Group 35710" transform="translate(162.836 420.807)">
      <g id="Group_35708" data-name="Group 35708" transform="translate(0 15.246)">
        <g id="Group_35707" data-name="Group 35707">
          <g id="Group_35706" data-name="Group 35706">
            <path id="Path_37732" data-name="Path 37732" d="M135.274,462.191c3.019,0,6.047.149,9.056-.028a15.983,15.983,0,0,0,15.03-16.311c-.09-8.3-6.931-15.625-15.211-15.966-5.252-.218-10.522-.056-15.781.026a5.093,5.093,0,0,0-5.362,4.993,5.192,5.192,0,0,0,5.321,5.382c4.479.133,8.963.049,13.445.056,1.566,0,3.161-.037,4.48.978a5.5,5.5,0,0,1,2.281,6.161,5.182,5.182,0,0,1-4.792,4.1c-5.153.237-10.323.141-15.486.153a1.972,1.972,0,0,1-2.236-2.134c.082-1.479,1.165-2.161,2.632-2.156q5.991.013,11.984.04c.682,0,1.365.043,2.046.006.963-.052,1.794-.429,1.757-1.521a1.466,1.466,0,0,0-1.574-1.426c-5.258.019-10.53-.13-15.768.228-2.555.175-4.084,2.113-4.059,4.885.025,2.741,1.474,4.626,4.081,4.882a77,77,0,0,0,17.479.034,8.473,8.473,0,0,0,7.34-9.109,8.871,8.871,0,0,0-8.681-8.271c-4.183-.165-8.377-.006-12.567,0-.875,0-1.756.016-2.626-.062a1.992,1.992,0,0,1-2.05-2.05,2.036,2.036,0,0,1,2.162-2.255c5.831.131,11.719-.688,17.481.514,6.639,1.386,11.217,7.607,10.52,13.809a13.287,13.287,0,0,1-13.2,12c-5.747.1-11.5.074-17.243.118-1.146.009-2.62-.2-2.574,1.524.04,1.538,1.458,1.306,2.474,1.32,3.215.043,6.43.016,9.645.016Z" transform="translate(-123.003 -429.776)" fill="#0e77ff"/>
          </g>
        </g>
      </g>
      <g id="Group_35709" data-name="Group 35709" transform="translate(0)">
        <path id="Path_37733" data-name="Path 37733" d="M133.364,422.85c-2.787,0-5.572-.025-8.357.015-1.159.018-1.957-.432-2-1.586-.041-1.234.816-1.838,1.988-1.842,5.685-.021,11.37-.006,17.055-.009,1.169,0,1.623.736,1.686,1.733.072,1.124-.6,1.675-1.68,1.68C139.162,422.857,136.262,422.847,133.364,422.85Z" transform="translate(-123 -419.424)" fill="#0e77ff"/>
        <path id="Path_37734" data-name="Path 37734" d="M133.377,424.618c2.791,0,5.583.025,8.374-.016,1.177-.018,1.922.468,1.974,1.619.057,1.284-.8,1.807-1.993,1.809q-8.375.013-16.75,0c-1.187,0-2.046-.536-1.975-1.822.063-1.155.825-1.617,1.994-1.6C127.792,424.651,130.585,424.62,133.377,424.618Z" transform="translate(-123.003 -416.977)" fill="#0e77ff"/>
      </g>
    </g>
  </g>
</svg>
