<svg id="Layer_1" data-name="Layer 1" xmlns="http://www.w3.org/2000/svg" viewBox="0 0 46 46"><defs><style>.cls-1{fill:#fff;}.cls-2{fill:#363847;}</style></defs><title>زيوت</title><path class="cls-1" d="M17.58,1.94c3.62,0,7.24,0,10.87,0,0,.85,0,1.7,0,2.54-2.18.11-4.37,0-6.55,0-1.44,0-2.88,0-4.32,0Q17.54,3.22,17.58,1.94Z"/><path class="cls-1" d="M23.4,24.65c.31-.13.75-.19,1,.13a2,2,0,0,1,.06,1.51,3.32,3.32,0,0,1-1.89,2.13c-.31.11-.8.11-.94-.26a2.19,2.19,0,0,1,.1-1.7A3.37,3.37,0,0,1,23.4,24.65Z"/><path class="cls-1" d="M21.86,25.5a11,11,0,0,1,3.39-.11,8.59,8.59,0,0,0-.49,2.29,8,8,0,0,1-3.05-.2c-.41-.17-.87-.44-1-.91S21.37,25.67,21.86,25.5Z"/><path class="cls-2" d="M32.7,31.87H33Z"/><path class="cls-2" d="M37.39,30.1a14.84,14.84,0,0,0-6.91-9.18,5.47,5.47,0,0,1-2.51-3,8.9,8.9,0,0,1-.3-3.13q0-3.6,0-7.2c0-.34,0-.79.3-1,.62-.26,1.39-.21,1.86-.75.74-.7.56-1.79.58-2.7A3.67,3.67,0,0,0,30,.75,2.05,2.05,0,0,0,28.2,0c-3.53,0-7,0-10.58,0a1.91,1.91,0,0,0-2,1.75c-.05,1,0,1.93,0,2.89a1.8,1.8,0,0,0,1.52,1.69c.38.12.95.07,1.1.54.2,1-.11,2,.17,2.92a1,1,0,0,0,1.77-.11,19.34,19.34,0,0,0,0-3.23q2.76,0,5.52,0c-.1,2.16,0,4.32-.05,6.48,0,1.28,0,2.56,0,3.84a7.54,7.54,0,0,0,2.06,4.5C28.88,22.42,30.39,23,31.5,24a13.14,13.14,0,0,1,4.35,8.18A22.19,22.19,0,0,0,33,31.89H32.7a21.52,21.52,0,0,0-2.54,0c-1.28.12-2.52.53-3.81.55a15.07,15.07,0,0,1-6.07-1.15,11.5,11.5,0,0,0-3.09-.59c-1-.17-2,0-2.94-.12a13.3,13.3,0,0,0-2.83.31v0l-1,.12a12.74,12.74,0,0,1,5.17-7.8c.57-.4,1.2-.73,1.76-1.15a7.4,7.4,0,0,0,2.91-6,1,1,0,0,0-1.5-.69c-.44.28-.4.86-.46,1.31a5.35,5.35,0,0,1-1.51,3.32,24.44,24.44,0,0,1-2.76,2,14.66,14.66,0,0,0-5.41,8.2,16.87,16.87,0,0,0-.55,3.66A20.73,20.73,0,0,0,9,38.59a15,15,0,0,0,5.19,7.07,3,3,0,0,0,1.91.34c4.91,0,9.82,0,14.72,0a1.4,1.4,0,0,0,.91-.25,14.82,14.82,0,0,0,5.65-8.29,22,22,0,0,0,.51-3.22A12.85,12.85,0,0,0,37.39,30.1ZM21.92,4.53c-1.45,0-2.89,0-4.33,0,0-.85,0-1.7,0-2.55,3.62,0,7.24,0,10.86,0,0,.85,0,1.7,0,2.54C26.28,4.59,24.1,4.51,21.92,4.53Zm9.13,39.3a1.53,1.53,0,0,1-1,.24H15.93a1.48,1.48,0,0,1-1-.27,12.54,12.54,0,0,1-4.76-10.53,7.28,7.28,0,0,1,1.19-.41h0l2.83-.32a13.7,13.7,0,0,1,2.86.16A7.91,7.91,0,0,0,16,36.39a1,1,0,0,0,1.69.55,8.69,8.69,0,0,0,.47-1.82A4.7,4.7,0,0,1,19.29,33c.94.27,1.84.65,2.78.93a13.64,13.64,0,0,0,3.05.4,18.78,18.78,0,0,0,3.59-.17,11,11,0,0,1,3-.43,10.87,10.87,0,0,0,2.35.06,5.91,5.91,0,0,0,1.86.41A13.13,13.13,0,0,1,31.05,43.83Z"/><path class="cls-2" d="M26.22,22.68a2.59,2.59,0,0,1,3.14,1.93,5.18,5.18,0,0,1-3.42,5.74,2.31,2.31,0,0,1-1.77-.09c-.53-.28-1-.78-1.68-.63a6.39,6.39,0,0,1-5-1.11,2.6,2.6,0,0,1-.83-2.76,3.82,3.82,0,0,1,3.17-2.3c1.49-.18,3,.06,4.5,0C25,23.33,25.52,22.79,26.22,22.68Zm.17,2a3.33,3.33,0,0,0-1.71,1.81,2.19,2.19,0,0,0-.1,1.7c.14.37.62.37.94.26a3.32,3.32,0,0,0,1.89-2.13,2,2,0,0,0-.06-1.51C27.14,24.46,26.69,24.52,26.39,24.65Zm-6.81.85c-.49.17-1.07.49-1.11,1.07s.55.74,1,.91a8,8,0,0,0,3.05.2,9,9,0,0,1,.5-2.29A11.06,11.06,0,0,0,19.58,25.5Z"/></svg>