<svg xmlns="http://www.w3.org/2000/svg" xmlns:xlink="http://www.w3.org/1999/xlink" width="20" height="20" viewBox="0 0 16 16">
  <defs>
    <clipPath id="clip-path">
      <rect id="Rectangle_2234" data-name="Rectangle 2234" width="9.282" height="7.147" fill="#fff"/>
    </clipPath>
  </defs>
  <g id="Group_6249" data-name="Group 6249" transform="translate(0.114 -0.421)">
    <circle id="Ellipse_61" data-name="Ellipse 61" cx="8" cy="8" r="8" transform="translate(-0.114 0.421)" fill="#549E12"/>
    <g id="true" transform="translate(3.122 4.069)" clip-path="url(#clip-path)">
      <path id="Path_6504" data-name="Path 6504" d="M9.052.2A.73.73,0,0,0,8.018.234L8.012.241,3.032,5.384l-1.8-1.8A.73.73,0,0,0,.205,4.622l2.3,2.3a.732.732,0,0,0,.524.224h.017a.732.732,0,0,0,.509-.222l5.528-5.7A.73.73,0,0,0,9.052.2" transform="translate(0 -0.001)" fill="#fff"/>
    </g>
  </g>
</svg>
