<svg xmlns="http://www.w3.org/2000/svg" width="37.024" height="34.647" viewBox="0 0 37.024 34.647">
  <g id="Group_35799" data-name="Group 35799" transform="translate(37.024 34.647) rotate(180)">
    <path id="Path_37776" data-name="Path 37776" d="M26.193,12.428h.429c2.18,0,4.359-.009,6.538,0a3.6,3.6,0,0,1,3.44,2.045,3.49,3.49,0,0,1-.278,3.767.489.489,0,0,0-.006.7A3.594,3.594,0,0,1,36.31,23.2a.458.458,0,0,0,0,.665,3.668,3.668,0,0,1-1.669,5.579c-.236.089-.349.145-.264.449a3.649,3.649,0,0,1-3.523,4.734c-3.618.042-7.238.018-10.856-.007a12.974,12.974,0,0,1-4.021-.757c-1.22-.407-2.445-.8-3.659-1.226-.269-.094-.376-.029-.515.2a3.5,3.5,0,0,1-3.05,1.791c-2.494.037-4.99.019-7.484.01A1.241,1.241,0,0,1,0,33.228q0-5.922,0-11.843,0-4.956,0-9.911C0,10.4.449,9.961,1.53,9.961c2.276,0,4.551.007,6.826,0a3.708,3.708,0,0,1,3.606,2.116c.113.224.237.2.428.137A7.465,7.465,0,0,0,15.525,10.1a15.417,15.417,0,0,0,3.805-7.349c.125-.561.269-1.117.415-1.673A1.288,1.288,0,0,1,21.108.008a6.639,6.639,0,0,1,3.065.412,4.838,4.838,0,0,1,2.964,4.466,23.628,23.628,0,0,1-.911,7.228A.436.436,0,0,0,26.193,12.428Zm-13.854,10c0,2.413,0,4.826-.006,7.238,0,.272.059.409.339.5,1.42.457,2.83.944,4.248,1.409a11.157,11.157,0,0,0,3.469.591q5.182.008,10.364,0a1.234,1.234,0,1,0,.1-2.465,1.236,1.236,0,1,1,.106-2.467c.74-.006,1.481,0,2.221,0a1.238,1.238,0,1,0,.014-2.465c-.74-.006-1.481,0-2.221,0a1.238,1.238,0,1,1-.01-2.466c.74-.005,1.481,0,2.221,0a1.238,1.238,0,1,0,.006-2.465c-.754-.006-1.508,0-2.262,0a1.235,1.235,0,1,1,0-2.464c.686-.008,1.371,0,2.056,0,.986,0,1.561-.455,1.56-1.234S33.972,14.9,32.984,14.9q-5.943,0-11.886,0a1.238,1.238,0,1,1,0-2.465c.7-.006,1.4-.013,2.1,0a.36.36,0,0,0,.412-.289,19.725,19.725,0,0,0,1.035-7.441,2.377,2.377,0,0,0-2.062-2.192c-.628-.106-.647-.106-.784.528a18.29,18.29,0,0,1-3.845,8.034,10.059,10.059,0,0,1-5.381,3.642c-.29.069-.235.252-.235.432Q12.338,18.789,12.339,22.429Zm-9.871-.135c0,3.165,0,6.33-.007,9.5,0,.3.067.392.381.389,1.863-.016,3.727-.006,5.59-.009A1.269,1.269,0,0,0,9.871,30.73q0-8.426,0-16.852A1.277,1.277,0,0,0,8.4,12.429c-1.822,0-3.645.009-5.467-.009-.361,0-.479.072-.477.461C2.476,16.019,2.468,19.156,2.468,22.294Z" transform="translate(0 0)" fill="#6a6a6a"/>
    <path id="Path_37779" data-name="Path 37779" d="M1.22,2.462A1.242,1.242,0,0,1,0,1.22,1.243,1.243,0,0,1,1.242,0a1.242,1.242,0,0,1,1.22,1.242A1.242,1.242,0,0,1,1.22,2.462Z" transform="translate(4.939 27.238)" fill="#6a6a6a"/>
  </g>
</svg>
