<svg xmlns="http://www.w3.org/2000/svg" width="110" height="111" viewBox="0 0 110 111">
  <g id="Group_35792" data-name="Group 35792" transform="translate(0.076 -0.332)">
    <ellipse id="Ellipse_235" data-name="Ellipse 235" cx="55" cy="55.5" rx="55" ry="55.5" transform="translate(-0.076 0.332)" fill="#ff3d27"/>
    <g id="Group_35840" data-name="Group 35840" transform="translate(84.146 85.999) rotate(180)">
      <path id="Path_37776" data-name="Path 37776" d="M41.011,19.459h.672c3.413,0,6.825-.014,10.237.005a5.64,5.64,0,0,1,5.385,3.2,5.464,5.464,0,0,1-.435,5.9.765.765,0,0,0-.01,1.095,5.628,5.628,0,0,1-.01,6.663.717.717,0,0,0-.005,1.041A5.742,5.742,0,0,1,54.232,46.1c-.37.139-.546.227-.413.7A5.714,5.714,0,0,1,48.3,54.212c-5.665.066-11.332.028-17-.012a20.314,20.314,0,0,1-6.3-1.185c-1.91-.637-3.828-1.256-5.729-1.92-.421-.147-.589-.045-.807.31a5.482,5.482,0,0,1-4.776,2.8c-3.905.058-7.812.03-11.718.015A1.944,1.944,0,0,1,0,52.026Q0,42.755,0,33.483q0-7.759,0-15.517C0,16.29.7,15.6,2.4,15.6c3.563,0,7.126.011,10.688,0a5.806,5.806,0,0,1,5.646,3.313c.178.35.371.311.67.214a11.688,11.688,0,0,0,4.909-3.309A24.139,24.139,0,0,0,30.267,4.3c.195-.878.421-1.75.65-2.619A2.016,2.016,0,0,1,33.05.013a10.4,10.4,0,0,1,4.8.645A7.574,7.574,0,0,1,42.49,7.651a36.994,36.994,0,0,1-1.426,11.317A.683.683,0,0,0,41.011,19.459ZM19.319,35.117c0,3.778.007,7.555-.009,11.333,0,.425.093.641.53.781,2.223.715,4.431,1.477,6.651,2.206a17.468,17.468,0,0,0,5.432.925q8.113.013,16.227,0a1.933,1.933,0,1,0,.162-3.86,1.935,1.935,0,1,1,.166-3.862c1.159-.009,2.318,0,3.477,0a1.939,1.939,0,1,0,.022-3.86c-1.159-.009-2.318,0-3.477,0a1.939,1.939,0,1,1-.016-3.86c1.159-.008,2.318.005,3.478,0a1.939,1.939,0,1,0,.01-3.86c-1.18-.009-2.361.008-3.542-.005a1.933,1.933,0,1,1,0-3.858c1.073-.013,2.147,0,3.22,0,1.544,0,2.444-.712,2.443-1.932s-.9-1.931-2.444-1.931q-9.305,0-18.61,0a1.938,1.938,0,1,1,.006-3.859c1.095-.009,2.19-.02,3.284.007a.564.564,0,0,0,.645-.452A30.884,30.884,0,0,0,38.59,7.367a3.722,3.722,0,0,0-3.228-3.432c-.984-.166-1.013-.166-1.228.826a28.638,28.638,0,0,1-6.02,12.578c-2.261,2.7-4.9,4.869-8.425,5.7-.455.107-.368.394-.368.677Q19.317,29.418,19.319,35.117ZM3.864,34.906c0,4.956.007,9.911-.011,14.867,0,.472.1.613.6.609,2.917-.025,5.835-.01,8.753-.013a1.987,1.987,0,0,0,2.252-2.253q0-13.193,0-26.386a2,2,0,0,0-2.3-2.269c-2.853,0-5.707.014-8.559-.013-.565-.005-.75.113-.746.722C3.877,25.081,3.864,29.993,3.864,34.906Z" transform="translate(0 0)" fill="#fff"/>
      <path id="Path_37779" data-name="Path 37779" d="M1.91,3.855A1.945,1.945,0,0,1,0,1.911,1.946,1.946,0,0,1,1.944,0a1.944,1.944,0,0,1,1.91,1.944A1.945,1.945,0,0,1,1.91,3.855Z" transform="translate(7.733 42.647)" fill="#fff"/>
    </g>
  </g>
</svg>
