<svg id="subscription" xmlns="http://www.w3.org/2000/svg" width="117.902" height="117.902" viewBox="0 0 117.902 117.902">
  <path id="Path_37809" data-name="Path 37809" d="M177.126,0H133.9A5.9,5.9,0,0,0,128,5.9V76.636a5.9,5.9,0,0,0,5.9,5.9h11.79V78.6H133.9a1.965,1.965,0,0,1-1.965-1.965V5.9A1.965,1.965,0,0,1,133.9,3.93h43.231A1.965,1.965,0,0,1,179.091,5.9V76.636a1.965,1.965,0,0,1-1.965,1.965h-11.79v3.93h11.79a5.9,5.9,0,0,0,5.9-5.9V5.9A5.9,5.9,0,0,0,177.126,0Zm0,0" transform="translate(-96.559)" fill="#acacac"/>
  <path id="Path_37810" data-name="Path 37810" d="M5.9,98.811H27.511v-3.93H5.9A1.965,1.965,0,0,1,3.93,92.916V37.9A1.965,1.965,0,0,1,5.9,35.93H27.511V32H5.9A5.9,5.9,0,0,0,0,37.9V92.916A5.9,5.9,0,0,0,5.9,98.811Zm0,0" transform="translate(0 -24.14)" fill="#acacac"/>
  <path id="Path_37811" data-name="Path 37811" d="M192,40h3.93v3.93H192Zm0,0" transform="translate(-144.839 -30.175)" fill="#acacac"/>
  <path id="Path_37812" data-name="Path 37812" d="M224,40h15.72v3.93H224Zm0,0" transform="translate(-168.979 -30.175)" fill="#acacac"/>
  <path id="Path_37813" data-name="Path 37813" d="M168,80h3.93v7.86H168Zm0,0" transform="translate(-126.734 -60.35)" fill="#acacac"/>
  <path id="Path_37814" data-name="Path 37814" d="M200,80h3.93v7.86H200Zm0,0" transform="translate(-150.874 -60.35)" fill="#acacac"/>
  <path id="Path_37815" data-name="Path 37815" d="M232,80h3.93v7.86H232Zm0,0" transform="translate(-175.014 -60.35)" fill="#acacac"/>
  <path id="Path_37816" data-name="Path 37816" d="M264,80h3.93v7.86H264Zm0,0" transform="translate(-199.154 -60.35)" fill="#acacac"/>
  <path id="Path_37817" data-name="Path 37817" d="M296,80h3.93v7.86H296Zm0,0" transform="translate(-223.294 -60.35)" fill="#acacac"/>
  <path id="Path_37818" data-name="Path 37818" d="M232,136h13.755v3.93H232Zm0,0" transform="translate(-175.014 -102.594)" fill="#acacac"/>
  <path id="Path_37819" data-name="Path 37819" d="M197.9,243.79h11.79a5.9,5.9,0,1,0,0-11.79H197.9a5.9,5.9,0,0,0,0,11.79Zm0-7.86h11.79a1.965,1.965,0,0,1,0,3.93H197.9a1.965,1.965,0,0,1,0-3.93Zm0,0" transform="translate(-144.839 -175.014)" fill="#acacac"/>
  <path id="Path_37820" data-name="Path 37820" d="M88,64h5.9v3.93H88Zm0,0" transform="translate(-66.385 -48.28)" fill="#acacac"/>
  <path id="Path_37821" data-name="Path 37821" d="M32,104h3.93v5.9H32Zm0,0" transform="translate(-24.14 -78.455)" fill="#acacac"/>
  <path id="Path_37822" data-name="Path 37822" d="M64,104h3.93v5.9H64Zm0,0" transform="translate(-48.28 -78.455)" fill="#acacac"/>
  <path id="Path_37823" data-name="Path 37823" d="M96,104h3.93v5.9H96Zm0,0" transform="translate(-72.42 -78.455)" fill="#acacac"/>
  <path id="Path_37824" data-name="Path 37824" d="M56,64h3.93v3.93H56Zm0,0" transform="translate(-42.245 -48.28)" fill="#acacac"/>
  <path id="Path_37825" data-name="Path 37825" d="M45.9,227.79h11.79v-3.93H45.9a1.965,1.965,0,1,1,0-3.93h11.79V216H45.9a5.9,5.9,0,1,0,0,11.79Zm0,0" transform="translate(-30.175 -162.944)" fill="#acacac"/>
  <path id="Path_37826" data-name="Path 37826" d="M389.615,32H368v3.93h21.615A1.965,1.965,0,0,1,391.58,37.9V92.916a1.965,1.965,0,0,1-1.965,1.965H368v3.93h21.615a5.9,5.9,0,0,0,5.9-5.9V37.9A5.9,5.9,0,0,0,389.615,32Zm0,0" transform="translate(-277.608 -24.14)" fill="#acacac"/>
  <path id="Path_37827" data-name="Path 37827" d="M368,64h13.755v3.93H368Zm0,0" transform="translate(-277.608 -48.28)" fill="#acacac"/>
  <path id="Path_37828" data-name="Path 37828" d="M432,104h3.93v5.9H432Zm0,0" transform="translate(-325.888 -78.455)" fill="#acacac"/>
  <path id="Path_37829" data-name="Path 37829" d="M400,104h3.93v5.9H400Zm0,0" transform="translate(-301.748 -78.455)" fill="#acacac"/>
  <path id="Path_37830" data-name="Path 37830" d="M368,104h3.93v5.9H368Zm0,0" transform="translate(-277.608 -78.455)" fill="#acacac"/>
  <path id="Path_37831" data-name="Path 37831" d="M368,216v3.93h11.79a1.965,1.965,0,0,1,0,3.93H368v3.93h11.79a5.9,5.9,0,0,0,0-11.79Zm0,0" transform="translate(-277.608 -162.944)" fill="#acacac"/>
  <path id="Path_37832" data-name="Path 37832" d="M209.125,339.217V317.811a6.06,6.06,0,0,0-4.913-6.027,5.924,5.924,0,0,0-4.793,1.324c-.039.032-.079.065-.116.1a5.883,5.883,0,0,0-7.86,0,6.122,6.122,0,0,0-5.9-1.17v-9.949a6.06,6.06,0,0,0-4.913-6.027,5.9,5.9,0,0,0-6.881,5.816v24.04l-5.215-3.128a5.4,5.4,0,0,0-5.225-.2l-.313.155a5.435,5.435,0,0,0-.726,9.283l12.3,8.785a1.957,1.957,0,0,0,1.142.362H207.16A1.965,1.965,0,0,0,209.125,339.217Zm-3.93-1.965H176.348l-11.79-8.421a1.508,1.508,0,0,1,.2-2.572l.313-.153a1.493,1.493,0,0,1,1.444.055l8.192,4.913a1.965,1.965,0,0,0,2.981-1.682V301.881a1.965,1.965,0,0,1,2.309-1.935,2.127,2.127,0,0,1,1.622,2.145V317.6a1.965,1.965,0,1,0,3.93,0,1.965,1.965,0,0,1,3.93,0,1.965,1.965,0,1,0,3.93,0,1.965,1.965,0,0,1,3.93,0,1.965,1.965,0,1,0,3.93,0,1.965,1.965,0,0,1,2.309-1.935,2.127,2.127,0,0,1,1.622,2.145Zm0,0" transform="translate(-120.698 -223.28)" fill="#acacac"/>
  <path id="Path_37833" data-name="Path 37833" d="M192,136h5.9v3.93H192Zm0,0" transform="translate(-144.839 -102.594)" fill="#acacac"/>
  <path id="Path_37834" data-name="Path 37834" d="M192,168h23.58v3.93H192Zm0,0" transform="translate(-144.839 -126.734)" fill="#acacac"/>
  <path id="Path_37835" data-name="Path 37835" d="M208,200h15.72v3.93H208Zm0,0" transform="translate(-156.909 -150.874)" fill="#acacac"/>
  <path id="Path_37836" data-name="Path 37836" d="M64,152H75.79v3.93H64Zm0,0" transform="translate(-48.28 -114.664)" fill="#acacac"/>
  <path id="Path_37837" data-name="Path 37837" d="M80,184h7.86v3.93H80Zm0,0" transform="translate(-60.35 -138.804)" fill="#acacac"/>
  <path id="Path_37838" data-name="Path 37838" d="M368,152h9.825v3.93H368Zm0,0" transform="translate(-277.608 -114.664)" fill="#acacac"/>
  <path id="Path_37839" data-name="Path 37839" d="M368,184h5.9v3.93H368Zm0,0" transform="translate(-277.608 -138.804)" fill="#acacac"/>
</svg>
