<svg xmlns="http://www.w3.org/2000/svg" width="118.713" height="118.713" viewBox="0 0 118.713 118.713">
  <g id="technical-support" transform="translate(0 0)">
    <path id="Path_37791" data-name="Path 37791" d="M20.879,91.8A9.68,9.68,0,0,0,16.2,93,54.744,54.744,0,0,1,70.253,5.722a2.319,2.319,0,0,0,.918-4.546A59.8,59.8,0,0,0,59.356,0,59.356,59.356,0,0,0,12.773,96.141,9.742,9.742,0,1,0,20.879,91.8Zm3.607,13.345a5.1,5.1,0,1,1,1.494-3.607A5.065,5.065,0,0,1,24.485,105.149Zm0,0" transform="translate(0 0.001)" fill="#acacac"/>
    <path id="Path_37792" data-name="Path 37792" d="M257.633,47.188a9.718,9.718,0,1,0-3.427,3.146,54.744,54.744,0,0,1-53.947,87.3,2.319,2.319,0,0,0-.91,4.548,59.838,59.838,0,0,0,11.7,1.154,59.356,59.356,0,0,0,46.581-96.144ZM245.922,45.4a5.1,5.1,0,1,1,3.607,1.494A5.068,5.068,0,0,1,245.922,45.4Zm0,0" transform="translate(-151.695 -24.619)" fill="#acacac"/>
    <path id="Path_37793" data-name="Path 37793" d="M106.618,156.079a2.319,2.319,0,0,0,2.319,2.319h14.5a2.318,2.318,0,0,0,2.319-2.319v-4.5a36.309,36.309,0,0,0,8.7-3.607l3.174,3.174a2.318,2.318,0,0,0,3.28,0L151.156,140.9a2.319,2.319,0,0,0,0-3.279l-3.17-3.17a36.308,36.308,0,0,0,3.607-8.7h4.478a2.318,2.318,0,0,0,2.319-2.319v-14.5a2.318,2.318,0,0,0-2.319-2.319h-4.479a36.315,36.315,0,0,0-3.606-8.7l3.153-3.153a2.319,2.319,0,0,0,0-3.28L140.882,81.228a2.319,2.319,0,0,0-3.279,0l-3.148,3.149a36.309,36.309,0,0,0-8.7-3.607V76.319A2.318,2.318,0,0,0,123.435,74h-14.5a2.319,2.319,0,0,0-2.319,2.319v4.454a36.278,36.278,0,0,0-8.7,3.606l-3.149-3.149a2.319,2.319,0,0,0-3.279,0L81.235,91.476a2.318,2.318,0,0,0,0,3.28l3.153,3.153a36.3,36.3,0,0,0-3.607,8.7h-4.47a2.318,2.318,0,0,0-2.319,2.318l-.008,14.5a2.318,2.318,0,0,0,2.319,2.32h4.478a36.309,36.309,0,0,0,3.607,8.7l-3.17,3.17a2.319,2.319,0,0,0,0,3.279L91.464,151.15a2.319,2.319,0,0,0,1.639.68h0a2.319,2.319,0,0,0,1.639-.679l3.173-3.174a36.34,36.34,0,0,0,8.7,3.607ZM98.826,143.1a2.319,2.319,0,0,0-2.9.308L93.1,146.232l-6.969-6.975,2.82-2.821a2.318,2.318,0,0,0,.308-2.9,31.736,31.736,0,0,1-4.392-10.6,2.319,2.319,0,0,0-2.267-1.831H78.622l.005-9.86H82.6a2.318,2.318,0,0,0,2.267-1.831,31.739,31.739,0,0,1,4.392-10.6,2.318,2.318,0,0,0-.308-2.9l-2.8-2.8,6.975-6.969,2.8,2.8a2.32,2.32,0,0,0,2.9.308,31.724,31.724,0,0,1,10.6-4.392,2.32,2.32,0,0,0,1.831-2.267v-3.96h9.86V82.6a2.318,2.318,0,0,0,1.831,2.267,31.75,31.75,0,0,1,10.6,4.392,2.317,2.317,0,0,0,2.9-.308l2.8-2.8,6.975,6.969-2.8,2.8a2.318,2.318,0,0,0-.308,2.9,31.759,31.759,0,0,1,4.392,10.6,2.318,2.318,0,0,0,2.267,1.831h3.984v9.86h-3.984a2.319,2.319,0,0,0-2.267,1.831,31.732,31.732,0,0,1-4.392,10.6,2.319,2.319,0,0,0,.308,2.9l2.82,2.82-6.969,6.975-2.823-2.822a2.318,2.318,0,0,0-2.9-.308,31.758,31.758,0,0,1-10.6,4.392,2.318,2.318,0,0,0-1.831,2.267v4h-9.86v-4a2.32,2.32,0,0,0-1.831-2.267A31.739,31.739,0,0,1,98.826,143.1Zm0,0" transform="translate(-56.83 -56.842)" fill="#acacac"/>
    <path id="Path_37794" data-name="Path 37794" d="M211.688,192.529a19.158,19.158,0,1,0-19.158,19.158A19.18,19.18,0,0,0,211.688,192.529Zm-33.68,0a14.521,14.521,0,1,1,14.521,14.521A14.537,14.537,0,0,1,178.008,192.529Zm0,0" transform="translate(-133.173 -133.173)" fill="#acacac"/>
    <path id="Path_37795" data-name="Path 37795" d="M340.4,22.449a2.321,2.321,0,1,0-1.638-.679A2.335,2.335,0,0,0,340.4,22.449Zm0,0" transform="translate(-259.691 -13.679)" fill="#acacac"/>
    <path id="Path_37796" data-name="Path 37796" d="M156.678,474.359a2.319,2.319,0,1,0,1.639.679A2.337,2.337,0,0,0,156.678,474.359Zm0,0" transform="translate(-118.569 -364.374)" fill="#acacac"/>
  </g>
</svg>
