<svg xmlns="http://www.w3.org/2000/svg" width="115.47" height="114.797" viewBox="0 0 115.47 114.797">
  <g id="startup" transform="translate(0 -1.492)">
    <g id="Group_35832" data-name="Group 35832" transform="translate(0 111.752)">
      <g id="Group_35831" data-name="Group 35831">
        <circle id="Ellipse_237" data-name="Ellipse 237" cx="2.269" cy="2.269" r="2.269" fill="#acacac"/>
      </g>
    </g>
    <g id="Group_35834" data-name="Group 35834" transform="translate(57.953 54.215)">
      <g id="Group_35833" data-name="Group 35833">
        <circle id="Ellipse_238" data-name="Ellipse 238" cx="2.264" cy="2.264" r="2.264" fill="#acacac"/>
      </g>
    </g>
    <g id="Group_35836" data-name="Group 35836" transform="translate(73.421 24.953)">
      <g id="Group_35835" data-name="Group 35835">
        <path id="Path_37873" data-name="Path 37873" d="M342,108.339a9.633,9.633,0,1,0,0,13.629A9.573,9.573,0,0,0,342,108.339Zm-3.2,10.427a5.109,5.109,0,1,1,0-7.225A5.115,5.115,0,0,1,338.8,118.766Z" transform="translate(-325.551 -105.516)" fill="#acacac"/>
      </g>
    </g>
    <g id="Group_35838" data-name="Group 35838" transform="translate(7.296 86.995)">
      <g id="Group_35837" data-name="Group 35837">
        <path id="Path_37874" data-name="Path 37874" d="M53.337,387.57a2.264,2.264,0,0,0-3.036,1.018L47.6,394a7.472,7.472,0,0,1-6.156,4.109l-3.137.215a1.342,1.342,0,0,1-1.43-1.43l.215-3.136a7.474,7.474,0,0,1,4.109-6.156l5.416-2.7a2.264,2.264,0,0,0-2.018-4.054l-5.416,2.7a12.018,12.018,0,0,0-6.608,9.9l-.215,3.136a5.87,5.87,0,0,0,5.856,6.271c.133,0,.267,0,.4-.014l3.137-.215a12.017,12.017,0,0,0,9.9-6.608l2.7-5.416A2.264,2.264,0,0,0,53.337,387.57Z" transform="translate(-32.35 -380.616)" fill="#acacac"/>
      </g>
    </g>
    <g id="Group_35840" data-name="Group 35840" transform="translate(0.004 1.492)">
      <g id="Group_35839" data-name="Group 35839" transform="translate(0 0)">
        <path id="Path_37875" data-name="Path 37875" d="M113.921,3a5.243,5.243,0,0,0-4.013-1.5l-2.108.134A68.316,68.316,0,0,0,59.263,26.672L54.3,32.782,41.314,32.4h-.066A38.307,38.307,0,0,0,13.982,43.693l-13.3,13.3a2.264,2.264,0,0,0,1.485,3.862L30.322,62.3l-1.148,1.413a2.264,2.264,0,0,0-.231,2.509q.662,1.216,1.386,2.394l-6.677,7.927a2.265,2.265,0,0,0-.315,2.427A29.482,29.482,0,0,0,37.491,93.129a2.264,2.264,0,0,0,2.4-.288c1.438-1.167,3.1-2.551,4.7-3.889,1.143-.954,2.313-1.93,3.406-2.83q.979.589,1.984,1.138a2.264,2.264,0,0,0,2.47-.2l1.543-1.2,1.453,28.274a2.264,2.264,0,0,0,3.862,1.485l13.3-13.3A38.306,38.306,0,0,0,83.9,75.055v-12.4l5.247-4.072A68.045,68.045,0,0,0,115.423,8.093l.054-1.1A5.246,5.246,0,0,0,113.921,3ZM7.484,56.6l9.7-9.7a33.81,33.81,0,0,1,24.031-9.967l9.491.279L33.857,57.951Zm34.2,28.879c-1.182.986-2.394,2-3.518,2.922A24.874,24.874,0,0,1,28.08,78.319l4.889-5.8a52.492,52.492,0,0,0,4.844,5.621l0,0v0l0,0A52.5,52.5,0,0,0,44.053,83.5C43.273,84.151,42.473,84.818,41.686,85.475Zm37.686-10.42A33.808,33.808,0,0,1,69.4,99.118l-9.7,9.7L58.35,82.479,79.371,66.167v8.889ZM110.9,7.872A63.521,63.521,0,0,1,86.371,55L50.859,82.56a47.945,47.945,0,0,1-8.2-6.055L54.63,64.533a2.264,2.264,0,0,0-3.2-3.2L39.466,73.292a47.938,47.938,0,0,1-5.805-7.917L62.778,29.527a63.773,63.773,0,0,1,45.31-23.37l2.108-.134a.714.714,0,0,1,.758.747Z" transform="translate(-0.018 -1.492)" fill="#acacac"/>
      </g>
    </g>
  </g>
</svg>
