<svg xmlns="http://www.w3.org/2000/svg" width="106.165" height="115.439" viewBox="0 0 106.165 115.439">
  <g id="Group_35841" data-name="Group 35841" transform="translate(32.107 -61.875)">
    <path id="Path_7303" data-name="Path 7303" d="M85.992,344.328c-.38-.311-.758-.625-1.139-.934-3.469-2.8-7.029-5.5-9.606-9.242-1.424-2.067-2.962-4.055-4.462-6.068-2.968-3.983-5.857-8.025-8.893-11.958a7.952,7.952,0,0,1,11.038-11.2c2.567,1.874,5.075,3.828,7.616,5.738.3.229.578.641,1.041.408s.309-.7.309-1.081q.01-18.113.007-36.226a7.551,7.551,0,0,1,14.984-1.359,8.1,8.1,0,0,1,.1,1.436c.008,3.58.021,7.16-.009,10.74-.006.687.137.791.792.575a7.444,7.444,0,0,1,9.048,3.528c.224.392.361.522.838.31a7.484,7.484,0,0,1,10.335,4.179c.188.47.378.517.809.367a7.024,7.024,0,0,1,9.279,6.907c-.064,14.267-.022,28.535-.022,42.8,0,1.249,0,1.249,1.212,1.249,3.714,0,7.427-.008,11.141.005a2.143,2.143,0,0,1,2.211,1.906,2.176,2.176,0,0,1-1.541,2.34,2.887,2.887,0,0,1-.788.1c-1.069.01-2.137,0-3.206,0H72.48c-.294,0-.588.009-.882-.005a2.172,2.172,0,0,1,.009-4.343c.213-.01.427,0,.641,0H85.921Zm37.7-22.334h0q0-10.739,0-21.479a2.848,2.848,0,0,0-.867-2.318,2.468,2.468,0,0,0-2.76-.465,2.551,2.551,0,0,0-1.586,2.553c0,4.114.007,8.228,0,12.342a2.189,2.189,0,1,1-4.357-.028q-.007-7.974,0-15.949c0-.347.015-.7-.01-1.042a3.2,3.2,0,1,0-6.377.458c0,3.874,0,7.747.006,11.621a2.344,2.344,0,0,1-.556,1.7,2.211,2.211,0,0,1-2.422.566,2.163,2.163,0,0,1-1.374-2.147q-.012-6.772-.006-13.544c0-.694.02-1.39-.011-2.083a3.183,3.183,0,0,0-5.986-1.386,3.924,3.924,0,0,0-.4,1.94q.007,6.051.009,12.1a2.174,2.174,0,0,1-3.477,1.8,2.323,2.323,0,0,1-.882-2.04q.017-15.307,0-30.615a3.191,3.191,0,1,0-6.37-.067c-.024,6.063-.015,12.126-.015,18.189q0,9.334,0,18.669a4.49,4.49,0,0,1-.987,2.82,4.893,4.893,0,0,1-6.988.85c-2.61-1.95-5.19-3.941-7.8-5.895a3.42,3.42,0,0,0-3.984-.28,3.457,3.457,0,0,0-1.78,3.578,5.29,5.29,0,0,0,1.45,2.616q5.509,7.436,10.992,14.891a37.191,37.191,0,0,0,6.578,7.506c3,2.369,5.943,4.8,8.9,7.219a1.814,1.814,0,0,0,1.238.429q14.506-.014,29.012.005c.619,0,.822-.152.82-.8C123.68,336.474,123.688,329.234,123.688,321.994Z" transform="translate(-77.586 -171.541)" fill="#acacac"/>
    <path id="Path_7304" data-name="Path 7304" d="M20.974,61.878q14.349,0,28.7,0a24.475,24.475,0,0,1,.06,48.95c-7.081.048-14.161.012-21.242.012a3.72,3.72,0,0,1-1.269-.128,2.181,2.181,0,0,1-1.427-2.19,2.154,2.154,0,0,1,1.774-2,4.827,4.827,0,0,1,.878-.049q10.461,0,20.922,0A20.11,20.11,0,0,0,52.787,66.5a23.96,23.96,0,0,0-3.511-.275q-28.3,0-56.593,0A20.167,20.167,0,0,0-27.341,82.37,20.143,20.143,0,0,0-7.975,106.463c1.469.017,2.939-.005,4.409.008a2.218,2.218,0,0,1,2.39,2.165,2.19,2.19,0,0,1-2.345,2.2c-3.766.034-7.522.088-11.2-1.026A24.6,24.6,0,0,1-32.078,84.934a24.56,24.56,0,0,1,19.66-22.587,25.334,25.334,0,0,1,4.856-.472Q6.706,61.883,20.974,61.878Z" transform="translate(0 0)" fill="#acacac"/>
    <path id="Path_7305" data-name="Path 7305" d="M124.236,142.844q-11.136,0-22.271,0a4.012,4.012,0,0,1-1.27-.112,2.205,2.205,0,0,1-1.529-2.275,2.155,2.155,0,0,1,1.91-1.956,13.225,13.225,0,0,1,1.36-.033q22.071,0,44.141,0c.267,0,.535,0,.8.024a2.123,2.123,0,0,1,2,2.116,2.155,2.155,0,0,1-1.986,2.218,10.909,10.909,0,0,1-1.121.021Z" transform="translate(-110.219 -64.31)" fill="#acacac"/>
  </g>
</svg>
