<svg xmlns="http://www.w3.org/2000/svg" width="110" height="111" viewBox="0 0 110 111">
  <g id="Group_35792" data-name="Group 35792" transform="translate(0.076 0)">
    <ellipse id="Ellipse_235" data-name="Ellipse 235" cx="55" cy="55.5" rx="55" ry="55.5" transform="translate(-0.076 0)" fill="#00ca77"/>
    <g id="Group_35838" data-name="Group 35838" transform="translate(28.092 30.244)">
      <path id="Path_37776" data-name="Path 37776" d="M4083.069,4619.525h.627c3.187,0,6.374-.013,9.56,0a5.269,5.269,0,0,1,5.03,2.99,5.106,5.106,0,0,1-.407,5.509.715.715,0,0,0-.009,1.023,5.257,5.257,0,0,1-.009,6.223.669.669,0,0,0-.005.972,5.362,5.362,0,0,1-2.441,8.156c-.345.13-.51.213-.385.657a5.337,5.337,0,0,1-5.151,6.922c-5.291.062-10.583.025-15.874-.012a18.986,18.986,0,0,1-5.88-1.106c-1.784-.6-3.575-1.173-5.35-1.793-.393-.138-.55-.042-.753.289a5.119,5.119,0,0,1-4.46,2.619c-3.647.055-7.3.029-10.944.015a1.815,1.815,0,0,1-1.847-2.053q0-8.659,0-17.318,0-7.247,0-14.491c0-1.565.656-2.214,2.237-2.214,3.327,0,6.655.011,9.981,0a5.424,5.424,0,0,1,5.272,3.094c.166.328.346.291.625.2a10.908,10.908,0,0,0,4.585-3.09,22.543,22.543,0,0,0,5.564-10.746c.182-.82.393-1.634.607-2.446a1.883,1.883,0,0,1,1.992-1.561,9.7,9.7,0,0,1,4.482.6,7.073,7.073,0,0,1,4.334,6.53,34.552,34.552,0,0,1-1.332,10.569A.64.64,0,0,0,4083.069,4619.525Zm-20.258,14.623c0,3.529.006,7.057-.009,10.584,0,.4.087.6.5.729,2.076.669,4.138,1.38,6.211,2.06a16.339,16.339,0,0,0,5.073.865q7.577.013,15.155,0a1.8,1.8,0,1,0,.151-3.6,1.808,1.808,0,1,1,.155-3.608c1.083-.009,2.166,0,3.248,0a1.81,1.81,0,1,0,.02-3.6c-1.082-.01-2.165,0-3.247,0a1.811,1.811,0,1,1-.015-3.6c1.082-.008,2.166,0,3.248,0a1.811,1.811,0,1,0,.009-3.6c-1.1-.008-2.205.006-3.307-.005a1.805,1.805,0,1,1,0-3.6c1-.012,2,0,3.007,0,1.442,0,2.282-.665,2.282-1.8s-.839-1.8-2.283-1.8q-8.689,0-17.38,0a1.81,1.81,0,1,1,.005-3.6c1.023-.008,2.046-.018,3.067.008a.528.528,0,0,0,.6-.422,28.841,28.841,0,0,0,1.514-10.88,3.477,3.477,0,0,0-3.015-3.206c-.919-.154-.946-.154-1.147.773a26.746,26.746,0,0,1-5.622,11.747,14.706,14.706,0,0,1-7.868,5.326c-.424.1-.343.367-.343.631Q4062.809,4628.827,4062.811,4634.148Zm-14.434-.2c0,4.628.006,9.256-.01,13.884,0,.44.1.572.557.569,2.724-.024,5.449-.009,8.174-.013a1.856,1.856,0,0,0,2.1-2.1q0-12.321,0-24.642a1.868,1.868,0,0,0-2.148-2.12c-2.665,0-5.33.014-7.994-.012-.528,0-.7.1-.7.674C4048.389,4624.777,4048.377,4629.364,4048.377,4633.952Z" transform="translate(-4044.768 -4601.353)" fill="#fff"/>
      <path id="Path_37779" data-name="Path 37779" d="M4094.491,4869.338a1.8,1.8,0,1,1,1.815-1.783A1.815,1.815,0,0,1,4094.491,4869.338Z" transform="translate(-4085.486 -4825.911)" fill="#fff"/>
    </g>
  </g>
</svg>
