<svg xmlns="http://www.w3.org/2000/svg" width="173" height="174" viewBox="0 0 173 174">
  <g id="Group_35792" data-name="Group 35792" transform="translate(-0.419 -0.191)">
    <ellipse id="Ellipse_235" data-name="Ellipse 235" cx="86.5" cy="87" rx="86.5" ry="87" transform="translate(0.419 0.191)" fill="#0e77ff"/>
    <g id="Group_35798" data-name="Group 35798" transform="translate(-6233.608 -4677.136)">
      <path id="Path_37772" data-name="Path 37772" d="M6323.4,4810.245h-5.739a.855.855,0,0,0-.592-.15,40.846,40.846,0,0,1-11.358-2.343q-25.016-9.264-30.363-35.421c-.346-1.687-.489-3.417-.727-5.126v-5.739a6.107,6.107,0,0,0,.154-.779,42.484,42.484,0,0,1,.934-6.283,45.909,45.909,0,1,1,52.729,55.137C6326.768,4809.824,6325.081,4810.012,6323.4,4810.245Zm-41.109-45.979a38.239,38.239,0,1,0,38.235-38.173A38.215,38.215,0,0,0,6282.292,4764.265Z" transform="translate(0)" fill="#fff"/>
      <path id="Path_37773" data-name="Path 37773" d="M6457.943,4881.406c0,5.049.023,10.1-.01,15.146a3.813,3.813,0,1,1-7.616-.175c.013-6.812,0-13.623,0-20.434,0-3.346-.017-6.692.02-10.037a3.689,3.689,0,0,1,2.689-3.521,3.812,3.812,0,0,1,4.209,1.426,4.258,4.258,0,0,1,.711,2.627C6457.938,4871.428,6457.944,4876.417,6457.943,4881.406Z" transform="translate(-133.602 -109.357)" fill="#fff"/>
      <path id="Path_37774" data-name="Path 37774" d="M6454.178,4806.019a3.8,3.8,0,1,1,3.8-3.807A3.759,3.759,0,0,1,6454.178,4806.019Z" transform="translate(-133.642 -60.835)" fill="#fff"/>
    </g>
  </g>
</svg>
