<svg xmlns="http://www.w3.org/2000/svg" viewBox="0 0 79.61 99.91"><defs><style>.cls-1{fill:#307fc2;}</style></defs><title>Asset 17</title><g id="Layer_2" data-name="Layer 2"><g id="Layer_1-2" data-name="Layer 1"><path class="cls-1" d="M49.12,31.37c.7-3.41,1.12-6.07,1.81-8.66a9.29,9.29,0,0,1,10.2-7c4.25.6,7.61,4.72,7.76,9.42.51,15.07,2.19,29.87,10,43.27,1.28,2.21.87,4.28-1,6.15q-11,11.18-22,22.43A8.81,8.81,0,0,1,45.54,99.1c-8.81-3.54-17.49-7.38-24.85-13.56A235.08,235.08,0,0,1,3.32,69.06c-4.59-4.74-4.38-9.91.39-14.46,1.74-1.67,2.83-3.32,2.68-5.88-.2-3.63,1.75-6.37,4.51-8.51a5.2,5.2,0,0,0,2.35-4.6c-.07-2.89,1.66-5.05,3.82-6.81s1.83-3.29-.2-5a66.25,66.25,0,0,1-9.3-9.42C4.28,10.39,4.22,6.25,7.16,3,10.4-.56,14.73-1,19.09,2a66.19,66.19,0,0,1,9.08,8.24ZM60,21.5c-2.11.08-3.59,1-4,3.11-.87,4.73-1.14,9.47,1,14,.87,1.83.85,3.31-.8,4.56-2,1.52-2.91-.38-4-1.42Q35.12,24.9,18.09,8c-3.34-3.31-5.12-3.7-7-1.62s-1.34,3.3,2.11,6.66c7.5,7.31,14.93,14.69,22.42,22,1.27,1.23,1.78,2.39.43,3.86S33.37,40.3,32,38.87c-2.13-2.13-4.47-4.07-6.57-6.24-1.84-1.9-3.35-1.42-4.91.25-2,2.11-2.07,4.41,0,6.62s4.41,4.46,6.71,6.57c1.51,1.38,2.18,2.59.37,4.25s-3.05.93-4.34-.6a16,16,0,0,0-4.81-4.27c-2.52-1.29-4.08.22-5.54,1.91s-.82,3.35.68,4.77c1.81,1.7,3.55,3.48,5.39,5.14,1.31,1.18,1.9,2.27.47,3.79s-2.63,1.65-4.1.12a18.51,18.51,0,0,0-3-2.49c-1.38-.94-2.91-1.61-4.48-.41a4.42,4.42,0,0,0-1.59,5.2,9.49,9.49,0,0,0,2.73,4c2.37,2.21,4.88,4.28,7.12,6.61A79,79,0,0,0,45,93.07c3,1.15,5,.93,7.14-1.4a268.31,268.31,0,0,1,18.9-19.11c1.91-1.69,2.12-3.47.8-5.73a53.6,53.6,0,0,1-5.66-15c-2-8.65-2.52-17.48-3.15-26.29C62.91,23.38,62.58,21.6,60,21.5Z"/></g></g></svg>