<svg xmlns="http://www.w3.org/2000/svg" viewBox="0 0 99.9 99.91"><defs><style>.cls-1{fill:#307fc2;}</style></defs><title>Asset 16</title><g id="Layer_2" data-name="Layer 2"><g id="Layer_1-2" data-name="Layer 1"><path class="cls-1" d="M22.62,85.65c-3.79,0-7.58,0-11.37,0-1.94,0-3.38-.68-4-2.55A3.62,3.62,0,0,1,8.9,78.87c2.52-1.84,5-3.77,7.51-5.58a11.37,11.37,0,0,0,5-9.89c0-6.83-.09-13.67,0-20.5C21.61,31.22,27,22.67,37.3,17.28c1.61-.85,2.15-1.7,2-3.37a26.56,26.56,0,0,1,0-3.34A10.65,10.65,0,0,1,50.14,0,10.42,10.42,0,0,1,60.58,10.72c-.17,3.69.7,5.83,4.25,7.9,9,5.28,13.55,13.64,13.65,24.2q.09,10.14,0,20.28a11.62,11.62,0,0,0,5.13,10.28C86,75.09,88.34,77,90.76,78.7c1.62,1.16,2.5,2.63,1.83,4.57s-2.14,2.41-4.07,2.39c-7.43-.07-14.86,0-22.29-.06-1.48,0-1.94.36-2.11,1.91a14.28,14.28,0,0,1-28.33-.18c-.16-1.59-.75-1.74-2-1.72-3.72.06-7.43,0-11.14,0Zm55.72-7.24c-6.13-4.91-7.3-11.15-7-18.06.24-5.71.1-11.44,0-17.16-.13-11.94-9-21.29-20.64-21.77-12-.5-22.06,9.29-22.17,21.58-.07,7.13,0,14.26,0,21.4a17.17,17.17,0,0,1-5,12.25,11,11,0,0,1-1.73,1.24l.45.52ZM50,85.63c-1.93,0-3.86.05-5.79,0-1.19,0-1.56.24-1.25,1.51a7.1,7.1,0,0,0,13.91,0c.24-1,.13-1.51-1.08-1.46C53.9,85.68,52,85.63,50,85.63ZM50,14.31c1.16-.62,3.85,1.49,3.62-2.14-.19-3.13-1.25-4.92-3.49-5S46.63,9,46.31,11.92C46,15.32,48.26,14.08,50,14.31Z"/><path class="cls-1" d="M0,40.61C.76,28,5.33,17,14.19,7.88c1.85-1.91,3.89-2,5.47-.44s1.44,3.61-.24,5.37A43.06,43.06,0,0,0,7.14,42.73,3.51,3.51,0,0,1,3.51,46.4c-2,0-3.43-1.5-3.5-3.78C0,42,0,41.28,0,40.61Z"/><path class="cls-1" d="M99.9,40.92c0,.52,0,1,0,1.56-.06,2.35-1.33,3.82-3.37,3.9-2.21.08-3.67-1.32-3.74-3.74A43.44,43.44,0,0,0,80.57,12.89c-1.72-1.81-1.84-3.86-.43-5.37,1.61-1.7,3.69-1.59,5.64.41A49.28,49.28,0,0,1,99,33,37.78,37.78,0,0,1,99.9,40.92Z"/></g></g></svg>