<svg xmlns="http://www.w3.org/2000/svg" viewBox="0 0 78.76 100"><defs><style>.cls-1{fill:#307fc2;}</style></defs><title>Asset 11</title><g id="Layer_2" data-name="Layer 2"><g id="Layer_1-2" data-name="Layer 1"><path class="cls-1" d="M78.67,56.19q0,17.27,0,34.53c0,6-3.2,9.26-9.23,9.27q-30,0-60.07,0C3.16,100,0,96.81,0,90.6Q0,56.07,0,21.53c0-6,3.07-9.17,9-9.11,2,0,2.9-.32,2.94-2.67.1-5.61,4.16-9.56,10-9.63C33.58,0,45.18,0,56.78.13c5.93.08,9.69,3.94,10,10,.1,1.91.68,2.52,2.49,2.31,6.16-.71,9.58,4.23,9.45,9.51C78.48,33.32,78.67,44.76,78.67,56.19Zm-5.52.13c0-11.59,0-23.19,0-34.78,0-1.58-.34-3.14-2-3.24-1.88-.11-4.16-1.36-5.66,1a10.1,10.1,0,0,1-9.22,4.88q-17-.11-34,0a9.89,9.89,0,0,1-9-4.78c-1.52-2.43-3.77-1.18-5.63-1.1S5.5,20,5.5,21.67q0,34.39,0,68.81c0,2.88.75,3.61,3.73,3.61H69.31c3.25,0,3.84-.61,3.84-4ZM39.58,5.9H25.32c-7.3,0-8,.69-7.78,8a2.08,2.08,0,0,0,0,.25c.11,2.53,1.7,4.35,4.18,4.36q17.64.09,35.26,0c2.5,0,4.05-1.8,4.12-4.37,0-1,0-2,0-3,0-3.86-1.33-5.19-5.27-5.2C50.41,5.89,45,5.9,39.58,5.9Z"/><path class="cls-1" d="M39.24,41c-6.92,0-13.84,0-20.76,0-3.65,0-5.8-2.61-5-5.78.56-2.24,2.21-3.43,5.12-3.45,5.75,0,11.5,0,17.25,0,8.08,0,16.17,0,24.25,0,4,0,6.38,3.09,5,6.35C64.12,40.26,62.26,41,60,41Q49.61,41,39.24,41Z"/><path class="cls-1" d="M36.48,87.26c-5.91,0-11.83,0-17.74,0-3.42,0-5.42-1.67-5.48-4.44s2.15-4.71,5.55-4.72q17.75,0,35.49,0c4.31,0,6.74,3.55,4.84,6.94-1,1.74-2.56,2.22-4.42,2.22Z"/><path class="cls-1" d="M33,45.59c4.58,0,9.16,0,13.74,0,3.37,0,5.35,1.71,5.41,4.53.06,3.06-1.73,4.68-5.41,4.7q-14,.06-28,0c-3.38,0-5.44-1.75-5.51-4.46s2.12-4.75,5.5-4.77C23.52,45.56,28.26,45.59,33,45.59Z"/><path class="cls-1" d="M28.3,64.18c3.25,0,6.49,0,9.73,0s5.43,1.88,5.5,4.56-2.21,4.68-5.6,4.7q-9.6.06-19.21,0c-3.3,0-5.4-1.84-5.45-4.55s2.15-4.68,5.55-4.71C22,64.15,25.14,64.18,28.3,64.18Z"/></g></g></svg>