<svg xmlns="http://www.w3.org/2000/svg" viewBox="0 0 100 99.94"><defs><style>.cls-1{fill:#307fc2;}</style></defs><title>Asset 14</title><g id="Layer_2" data-name="Layer 2"><g id="Layer_1-2" data-name="Layer 1"><path class="cls-1" d="M47.9,0h4.2l4.2.4a66.59,66.59,0,0,1,8.39,1.79l4,1.43a63.1,63.1,0,0,1,8.61,4.44,3.92,3.92,0,0,0,1.21.8l3,2.27a57.12,57.12,0,0,1,9.56,10.33,73.19,73.19,0,0,1,4.71,8.37,78,78,0,0,1,2.9,8.67c.24,1.24.47,2.48.71,3.72L100,47.3c0,1.17,0,2.35,0,3.53L99.77,55c-.21,1.4-.41,2.79-.62,4.19s-.68,2.81-1,4.21l-.07.41-1.26,3.78c-.56,1.32-1.13,2.64-1.69,3.95a73,73,0,0,1-5.25,8.63L86.3,84.41a1.41,1.41,0,0,0-.61.62l-4,3.6-.24.2a68.48,68.48,0,0,1-8.67,5.64,72.18,72.18,0,0,1-8.16,3.31L60.5,98.9l-4.2.68a54.18,54.18,0,0,1-12.6,0l-4.19-.67-4.18-1.11a76,76,0,0,1-8.18-3.31,65.72,65.72,0,0,1-8.64-5.64l-.34-.26L14.32,85a1.52,1.52,0,0,0-.61-.62l-3.57-4.22a70.92,70.92,0,0,1-5.25-8.63l-1.7-3.94L1.92,63.84l-.06-.41-1-4.21L.23,55,0,50.83.07,47.1.6,42.42l.73-3.93a79.93,79.93,0,0,1,2.89-8.66A76.26,76.26,0,0,1,8.9,21.45,54.13,54.13,0,0,1,22.73,8.07c1.53-.87,3.05-1.76,4.6-2.59,1.24-.66,2.52-1.24,3.79-1.86a41.65,41.65,0,0,0,4.2-1.45A70.54,70.54,0,0,1,43.7.39ZM92,55.46a20,20,0,0,0,.37-4.64,17.37,17.37,0,0,0-.15-4.2A17.93,17.93,0,0,0,91.6,42,31.24,31.24,0,0,0,89.26,34a33.55,33.55,0,0,0-4.79-8.67,20.91,20.91,0,0,0-3-3.72l-.41-.45a22.55,22.55,0,0,0-3.78-3.59l-.42-.37a19.23,19.23,0,0,0-3.78-2.75,33.2,33.2,0,0,0-8.39-4.22,16.32,16.32,0,0,0-4-1.23A33,33,0,0,0,52.1,7.65a27.91,27.91,0,0,0-4.19,0,33.44,33.44,0,0,0-8.83,1.41,16.23,16.23,0,0,0-3.79,1.2,32.91,32.91,0,0,0-8.39,4.23,19.34,19.34,0,0,0-3.78,2.75l-.43.36a24.24,24.24,0,0,0-3.78,3.59.76.76,0,0,0-.4.46,21.12,21.12,0,0,0-3.18,4A33.27,33.27,0,0,0,10.75,34,31.85,31.85,0,0,0,8.41,42a18.82,18.82,0,0,0-.63,4.66,17.37,17.37,0,0,0-.15,4.2A19.85,19.85,0,0,0,8,55.5a14.25,14.25,0,0,0,.66,3.72,32.09,32.09,0,0,0,2.92,8.63,34,34,0,0,0,5,8.19,11.39,11.39,0,0,0,1.92,2.3,10.68,10.68,0,0,0,1.83,1.91,12.86,12.86,0,0,0,2.35,2.13,33.88,33.88,0,0,0,8.18,5.41,35.28,35.28,0,0,0,8.64,3.27,27.89,27.89,0,0,0,4.16.85,31.56,31.56,0,0,0,4.24.43,30.84,30.84,0,0,0,4.19,0,25.77,25.77,0,0,0,4.2-.42l.45-.08.21-.06a17.2,17.2,0,0,0,3.54-.7,34.71,34.71,0,0,0,8.63-3.29,34.17,34.17,0,0,0,8.19-5.42,12.1,12.1,0,0,0,2.33-2.13,10.4,10.4,0,0,0,1.85-1.9A11.46,11.46,0,0,0,83.41,76a33.29,33.29,0,0,0,5-8.2,32.67,32.67,0,0,0,2.92-8.61A14.9,14.9,0,0,0,92,55.46Z"/><path class="cls-1" d="M15.34,55a40.84,40.84,0,0,1,.45-12.58c.37-1.32.74-2.64,1.1-4a55.7,55.7,0,0,1,4.39-8.6A11.52,11.52,0,0,0,23,27.57a8,8,0,0,0,1.78-1.93A17,17,0,0,0,27,23.57a15.67,15.67,0,0,0,2.58-2.08,4.13,4.13,0,0,0,1.61-1l4.2-2.3L37,17.46a13.8,13.8,0,0,0,2.53-.89l4-1A40.75,40.75,0,0,0,47.9,15h4.21l4.19.56,4.15,1A46.3,46.3,0,0,1,67.1,19.5c1.45.83,1.46.81.34,1.89a17.43,17.43,0,0,0-2.74,2.17,12.2,12.2,0,0,0-2.55,2,5.7,5.7,0,0,0-1.66,1.31,21.63,21.63,0,0,0-3.65,2.9c-.31,0-.46.2-.6.44-.65.6-1.25.46-2,.07a20.11,20.11,0,0,0-6.54-2.14,4.91,4.91,0,0,0-2.22-.26c-.26-.32-.59-.24-.92-.15a1.3,1.3,0,0,0-.87,0,11.42,11.42,0,0,0-4.2.2.77.77,0,0,0-.66,0,.18.18,0,0,0-.29.12,19.22,19.22,0,0,0-7.45,2.38,5,5,0,0,0-1.57.79A25.13,25.13,0,0,0,19.36,42.42,20.48,20.48,0,0,0,17,50.83,12,12,0,0,0,16.83,55a.89.89,0,0,0,0,.66c-.08.33-.16.66.15.93a5.28,5.28,0,0,0,.42,2.63A4,4,0,0,0,17.73,61c.12.41.17.77-.33.91s-.38-.4-.46-.6c-.34-.82-.59-1.67-.87-2.51Z"/><path class="cls-1" d="M43.7,84.43a48.65,48.65,0,0,1-8.4-2.7,40.93,40.93,0,0,1-8.39-5.45L26.57,76a2.31,2.31,0,0,0-.43-.45c-.73-.53-.83-1-.07-1.66,1.37-1.24,2.63-2.6,3.95-3.9.23-.23.4-.63.85-.46a24,24,0,0,0,8.61,5.71,22.89,22.89,0,0,0,8.42,2,14.77,14.77,0,0,0,4.2,0,22.89,22.89,0,0,0,8.42-2,24,24,0,0,0,8.61-5.71c.46-.16.62.24.85.46,1.14,1.12,2.28,2.26,3.41,3.4,1.28,1.29,1.28,1.29,0,2.61l-.33.28a41.42,41.42,0,0,1-8.4,5.45,49.24,49.24,0,0,1-8.4,2.7l-4.2.47H47.9Z"/><path class="cls-1" d="M84.22,42.44c.16,1.69.5,3.36.64,5.07a32.13,32.13,0,0,1-.23,7,3,3,0,0,0,0,.51l-.87,4c-2.17-.49-4.28-1.25-6.47-1.62a18.84,18.84,0,0,0-4.23-1.11,13.89,13.89,0,0,0-3.33-1c-.7-.18-.85-.48-.84-1.14a14.87,14.87,0,0,0-.35-4,10.28,10.28,0,0,0-.73-3.5,1.76,1.76,0,0,1,.43-.82C69.52,44.21,70.76,42.62,72,41c1.77-2.32,3.68-4.54,5.31-7l.06,0v-.07c.87-.71,1.33-1.77,2.18-2.56A39.24,39.24,0,0,1,83,38.23Z"/><path class="cls-1" d="M74.21,29.84,73.09,31.3,71,34q-3.32,4-6.41,8.23l0,.06a54.2,54.2,0,0,0-3.37,4.31c-.37.45-.77.89-1.11,1.36s-.91.81-.87,1.48A10.19,10.19,0,0,1,57.76,55c-.49.57-1,1.14-1.45,1.72a12,12,0,0,1-2.52,1.64,9.35,9.35,0,0,1-10-1.54L42.21,55a12.29,12.29,0,0,1-1.46-4.2,14.63,14.63,0,0,1,.44-3.78,11.9,11.9,0,0,1,2.54-3.89l.61-.51a14.25,14.25,0,0,1,3.56-1.71A11,11,0,0,1,50,40.79a2.33,2.33,0,0,0,2.14-.9l2.11-1.66a14.13,14.13,0,0,0,2.1-1.67,29.73,29.73,0,0,0,3.18-2.51,3.08,3.08,0,0,0,1-.82L69,26.64c.09-.07.11-.24.16-.36s.51-.13.62-.41a37,37,0,0,0,3.37-2.48c1.9-.54,2.72-.22,3.59,1.4a3.52,3.52,0,0,1-.92,3C75.23,28.43,74.73,29.15,74.21,29.84ZM46,51.08a3.31,3.31,0,0,0,1.91,2.49,4.14,4.14,0,0,0,5.6-1.25,4.19,4.19,0,0,0-1.29-5.86,4.15,4.15,0,0,0-4.86.24A4.07,4.07,0,0,0,46,51.08Z"/></g></g></svg>